<svg xmlns="http://www.w3.org/2000/svg" width="1322.835" height="755.905" viewBox="0 0 992.126 566.929"><g data-name="Plan 1"><path d="M138.382 169.648h63.344l-26.08 140.384h52.502l-9.276 49.932H103.025zM273.375 169.648h112.136l-9.276 49.933h-51.361l-3.922 21.115h50.504l-8.8 47.363h-50.503l-4.082 21.973h53.357l-9.276 49.932H238.02zM543.758 242.123c-2.439 13.125-6.798 24.302-13.077 33.526-6.279 9.227-13.898 16.691-22.85 22.397-8.955 5.709-18.958 9.893-30.01 12.555-11.053 2.667-22.668 3.995-34.84 3.995l-8.428 45.368h-60.776l35.357-190.316h60.775c12.172 0 23.293 1.333 33.355 3.994 10.063 2.667 18.51 6.849 25.345 12.555 6.833 5.707 11.678 13.174 14.529 22.399 2.851 9.228 3.058 20.401.62 33.527zm-91.235 21.115h2.568c7.99 0 14.084-1.855 18.296-5.565 4.207-3.71 6.93-8.89 8.168-15.55 1.236-6.657.439-11.842-2.39-15.552-2.833-3.708-8.24-5.563-16.228-5.563h-2.57zM570.656 169.648h64.487l-35.356 190.316H535.3zM623.438 359.964l35.356-190.316h52.787c17.877 0 33.44 1.997 46.678 5.992 13.24 3.994 23.92 9.987 32.042 17.976 8.12 7.99 13.598 17.931 16.433 29.817 2.829 11.89 2.799 25.635-.099 41.231-2.898 15.598-7.974 29.343-15.22 41.23-7.252 11.89-16.423 21.827-27.511 29.818-11.092 7.988-24.006 14.03-38.748 18.118-14.74 4.093-31.054 6.134-48.931 6.134zm70.846-54.213c14.268 0 25.924-3.374 34.981-10.128 9.052-6.751 14.87-17.072 17.45-30.959 2.578-13.884.586-24.156-5.974-30.816-6.565-6.657-16.976-9.987-31.243-9.987zM840.864 169.648h64.485l-35.356 190.316h-64.485z" fill="#1a1a18"/></g></svg>