<svg xmlns="http://www.w3.org/2000/svg" width="1322.835" height="755.905" viewBox="0 0 992.126 566.929"><g data-name="Plan 1"><path d="M167.364 173.243h650.64v223.048h-650.64z" fill="#1a1a18" fill-rule="evenodd"/><path d="m471.737 238.41-.015-12.898 15.732-.02-.005-4.44-15.732.019-.01-9.175 17.599-.021-.006-4.484-22.237.027.036 30.997zM514.456 238.166zm.003-27.528v.698c6.136 0 10.77 4.967 10.777 11.552.007 6.544-4.585 11.486-10.695 11.493-6.136 0-10.769-4.966-10.776-11.552-.008-6.544 4.584-11.485 10.68-11.493l.014-.698zm.018 28.227c8.713-.01 15.53-7.068 15.52-16.068-.01-9.09-6.654-15.945-15.474-15.945-8.713.011-15.531 7.069-15.52 16.068.01 9.09 6.654 15.944 15.453 15.945zM546.715 215.348l17.778 22.948 3.622-.004-.036-30.998-4.552.006.024 22.417-17.323-22.396-4.077.005.035 30.998 4.553-.006zM592.325 211.05v.698c6.679 0 11.348 4.542 11.353 11.044.009 6.46-4.657 10.978-11.344 10.987l-6.129.007-.026-22.03 6.129-.008.017-.698zm16.114 11.652c-.009-8.945-6.782-15.438-16.135-15.438l-10.769.014.04 30.997 10.763-.013c9.34-.012 16.114-6.556 16.101-15.56M626.046 225.999l5.57-12.706 5.566 12.692zm-1.896 4.401 14.932-.018 3.415 7.82 5.025-.007-13.898-31.192-3.943.004-13.828 31.227 4.86-.006zM662.021 211.663l.035 26.514 4.674-.006-.03-26.514 9.756-.012-.005-4.483-24.19.03.005 4.483zM692.794 238.14l-.034-30.998-4.636.005.035 30.998zM720.694 237.914zm.004-27.528v.698c6.137 0 10.768 4.966 10.777 11.552.004 3.133-1.065 6.027-3.004 8.15-1.965 2.153-4.692 3.34-7.69 3.343-6.138 0-10.77-4.966-10.778-11.552-.004-3.133 1.06-6.028 3.004-8.151 1.96-2.152 4.692-3.339 7.678-3.342l.013-.698zm-.004 28.226h.021c8.713-.01 15.53-7.068 15.52-16.067-.008-9.09-6.656-15.945-15.476-15.945-8.713.01-15.53 7.068-15.517 16.068.009 9.09 6.652 15.944 15.452 15.944M752.977 238.065l-.026-22.969 17.78 22.948 3.623-.004-.035-30.998-4.557.006.026 22.417-17.322-22.396-4.081.004.035 30.998zM478.337 251.923v.697c4.517 0 7.11 2.1 7.114 5.764.002 1.713-.662 3.168-1.92 4.209-1.306 1.08-3.16 1.653-5.363 1.655l-6.502.008-.014-11.627 6.668-.009.017-.697zm11.793 6.328c-.007-6.145-4.538-10.115-11.566-10.115l-11.554.014.036 30.998 4.637-.005-.012-10.445 6.377-.008c7.234-.009 12.09-4.204 12.082-10.44M516.564 251.876v.698c4.28 0 6.736 1.885 6.74 5.17.003 3.302-2.66 5.437-6.786 5.442l-8.246.01-.012-10.612 8.286-.01.018-.698zm-8.286 15.72 7.283-.01 8.44 11.492 5.733-.006-9.123-12.333c4.644-1.235 7.376-4.585 7.37-9.126-.006-5.785-4.39-9.523-11.19-9.523l-13.174.015.036 30.998 4.638-.005zM547.435 248.052l-4.636.006.036 30.998 4.636-.006zM584.844 248.006l.026 22.418-17.325-22.397-4.08.006.035 30.997 4.557-.005-.029-22.97 17.781 22.948 3.623-.004-.035-30.998zM619.114 278.77zm9.011-7.875c-2.519 2.451-4.995 4.086-8.924 4.09-6.02 0-10.565-4.966-10.57-11.55-.004-3.164 1.07-6.075 3.017-8.199 1.943-2.122 4.623-3.292 7.557-3.295 3.26 0 5.847 1.154 8.652 3.86l.494.477 3.172-3.476-.498-.478c-2.64-2.528-5.89-4.867-11.803-4.867-8.764.01-15.365 6.918-15.351 16.067.008 9.09 6.56 15.946 15.243 15.946h.022c6.055-.007 9.513-2.745 12.097-5.422l.485-.502-3.12-3.112zM649.316 274.483l-.009-8.962 15.854-.02-.004-4.442-15.854.02-.009-8.71 17.72-.021-.005-4.442-22.359.027.035 30.998 22.571-.027-.005-4.442zM691.987 278.597zm.606-17.514c-6.808-1.477-7.354-3.114-7.354-5.1-.004-2.428 2.26-4.126 5.514-4.13 2.913 0 5.436.97 7.947 3.05l.545.45 2.731-3.699-.52-.425c-3.24-2.646-6.418-3.775-10.638-3.775-2.834.003-5.414.874-7.271 2.452-1.9 1.615-2.947 3.88-2.947 6.378.008 5.8 4.124 7.894 10.305 9.255 6.5 1.388 7.02 3.005 7.02 4.975 0 1.254-.52 2.33-1.502 3.11-1.047.83-2.527 1.27-4.306 1.272-3.653 0-6.406-1.157-9.492-3.996l-.52-.477-2.916 3.523.502.454c3.679 3.34 7.591 4.896 12.296 4.896h.03c6.242-.008 10.596-3.76 10.591-9.127-.008-4.82-2.999-7.538-10.015-9.086M727.023 278.553v.002zm.602-17.513c-6.808-1.477-7.35-3.114-7.354-5.1-.004-2.428 2.26-4.126 5.514-4.13 2.909 0 5.437.969 7.947 3.05l.54.45 2.732-3.699-.52-.425c-3.241-2.646-6.414-3.775-10.634-3.775-2.835.003-5.419.874-7.275 2.452-1.9 1.614-2.944 3.88-2.944 6.378.005 5.8 4.125 7.894 10.306 9.255 6.5 1.388 7.02 3.005 7.02 4.974.004 1.255-.52 2.33-1.506 3.111-1.048.83-2.528 1.27-4.307 1.273-3.653 0-6.401-1.159-9.491-3.997l-.52-.477-2.912 3.523.497.453c3.684 3.341 7.592 4.897 12.305 4.897h.022c6.241-.008 10.595-3.76 10.59-9.126-.004-4.822-2.999-7.539-10.01-9.087M756.472 265.39l15.858-.02-.009-4.442-15.854.02-.008-8.71 17.724-.022-.009-4.442-22.355.028.03 30.998 22.559-.027v-4.442l-17.923.022zM481.783 321.632zm0 .698h.02c6.052-.007 9.511-2.745 12.097-5.422l.484-.502-3.122-3.112-.473.462c-2.514 2.451-4.99 4.086-8.922 4.09-6.018 0-10.561-4.966-10.57-11.552-.003-3.163 1.068-6.074 3.017-8.198 1.946-2.12 4.624-3.292 7.555-3.295 3.263 0 5.852 1.154 8.655 3.86l.496.478 3.17-3.477-.499-.478c-2.638-2.527-5.89-4.867-11.801-4.867-8.764.011-15.365 6.918-15.354 16.068.01 9.09 6.565 15.944 15.247 15.945M528.942 290.767l.015 13.151-15.41.02-.015-13.152-4.638.005.036 30.998 4.638-.005-.016-13.32 15.411-.02.015 13.321 4.638-.005-.036-30.999zM569.393 309.493l-11.141.014 5.575-12.706zm1.901 4.397 3.411 7.819 5.025-.007-13.895-31.192-3.945.005-13.825 31.227 4.856-.007 3.438-7.826zM607.088 294.457v.699c4.285 0 6.74 1.884 6.744 5.17.004 3.301-2.662 5.437-6.787 5.442l-8.245.01-.013-10.612 8.288-.01.013-.699zm-8.284 15.72 7.285-.009 8.44 11.492 5.73-.006-9.12-12.333c4.645-1.236 7.376-4.585 7.371-9.127-.008-5.786-4.393-9.523-11.192-9.523l-13.175.016.039 30.998 4.64-.006zM655.633 317.126l-16.352.02-.034-26.514-4.636.005.039 30.999 20.987-.026zM685.28 289.351l-4.972-7.709-4.761 2.251 5.626 5.463zM693.361 317.121l-17.927.023-.013-8.963 15.858-.02-.008-4.441-15.854.02-.013-8.71 17.728-.022-.009-4.442-22.363.027.034 30.998 22.572-.027zM713.621 321.538l-.03-22.969 17.784 22.948 3.623-.004-.039-30.998-4.553.006.026 22.417-17.322-22.397-4.08.006.034 30.998zM756.946 317.044l-.009-8.963 15.854-.02-.004-4.442-15.854.02-.013-8.709 17.724-.021-.005-4.443-22.363.028.034 30.998 22.572-.028-.005-4.442zM478.03 335.377v.698c6.677 0 11.346 4.541 11.353 11.044.007 6.46-4.658 10.977-11.345 10.986l-6.128.007-.026-22.03 6.128-.007.019-.698zm-.023-3.786-10.766.013.036 30.998 10.766-.013c4.545-.005 8.667-1.6 11.608-4.489 2.903-2.85 4.498-6.784 4.494-11.072-.01-8.944-6.786-15.437-16.138-15.437M509.305 358.11l-.01-8.964 15.857-.02-.006-4.441-15.856.02-.01-8.71 17.724-.022-.005-4.442-22.362.027.036 30.998 22.569-.027-.006-4.442zM579.582 331.467l-10.205 15.615-10.243-15.59-4.36.006.035 30.997 4.557-.005-.028-22.386 9.567 14.256.88-.003 9.53-14.316.025 22.424 4.64-.006-.035-30.998zM609.927 362.236zm-7.69-23.488c1.96-2.15 4.69-3.338 7.677-3.342l.013-.698v.698c6.137 0 10.769 4.967 10.777 11.552.005 3.133-1.065 6.028-3.003 8.151-1.966 2.152-4.688 3.338-7.692 3.342-6.133 0-10.768-4.966-10.772-11.551-.005-3.134 1.06-6.028 3-8.152zm7.755-7.826c-4.363.006-8.353 1.72-11.231 4.83-2.775 2.992-4.294 6.983-4.29 11.238.013 9.09 6.653 15.944 15.456 15.945h.017c4.368-.005 8.354-1.72 11.236-4.829 2.77-2.992 4.29-6.984 4.285-11.239-.009-9.09-6.657-15.945-15.473-15.945M657.333 331.372l.03 22.417-17.325-22.396-4.082.005.04 30.998 4.553-.006-.026-22.97 17.78 22.949 3.622-.005-.034-30.998zM692.18 350.104l-11.137.015 5.57-12.707zm-7.502-18.977-13.824 31.226 4.856-.006 3.437-7.827 14.932-.019 3.415 7.82 5.03-.007-13.903-31.192zM723.688 362.097zm9.007-7.876c-2.51 2.452-4.99 4.086-8.92 4.09-6.017 0-10.561-4.965-10.57-11.55-.004-3.164 1.065-6.075 3.012-8.198 1.952-2.122 4.627-3.293 7.557-3.296 3.268 0 5.856 1.154 8.657 3.86l.497.478 3.164-3.477-.493-.478c-2.64-2.528-5.89-4.868-11.799-4.868-8.769.011-15.369 6.919-15.36 16.068.013 9.09 6.566 15.946 15.248 15.946h.021c6.051-.008 9.51-2.745 12.098-5.422l.484-.502-3.125-3.112zM758.633 362.054zm-.008-26.83.013-.698v.699c6.137 0 10.768 4.965 10.777 11.55.004 3.134-1.065 6.029-3.004 8.152-1.965 2.152-4.692 3.338-7.691 3.342-6.137 0-10.769-4.966-10.777-11.551-.009-6.545 4.583-11.486 10.682-11.493zm.073-4.484c-4.362.006-8.353 1.72-11.227 4.83-2.77 2.992-4.298 6.983-4.29 11.238.01 9.09 6.653 15.944 15.452 15.945h.022c4.367-.005 8.353-1.72 11.231-4.83 2.77-2.992 4.298-6.983 4.29-11.237-.009-9.091-6.653-15.946-15.478-15.946" fill="#fff"/><path d="M381.856 273.977c-7.597-9.045-16.79-18.132-27.223-26.94a68.02 68.02 0 0 0 2.912-4.182c6.702-10.473 8.242-19.798 4.337-26.257a13.804 13.804 0 0 0-1.303-1.805 84.182 84.182 0 0 1 3.091-.132c.347-.006.694-.01 1.042-.01 23.35 0 42.347 14.323 42.347 31.928 0 4.983-1.486 9.76-4.413 14.19-3.994 5.956-11.24 10.524-20.79 13.208zm-53.55-1.939c-.399-.112-.796-.23-1.192-.346l.17-.107c7.36-4.707 14.007-10.032 19.577-15.63 8.171 6.692 15.66 13.598 22.113 20.341-12.495 1.158-26.723-.314-40.668-4.258zm-17.13-6.206c-10.347-4.628-19.518-10.478-26.578-17.028 9.05-6.8 18.088-12.702 26.577-17.373 8.49 4.67 17.529 10.573 26.578 17.374-7.06 6.549-16.231 12.399-26.577 17.027zm-17.131 6.206c-13.945 3.944-28.174 5.416-40.668 4.257 6.454-6.742 13.942-13.649 22.113-20.341 5.57 5.598 12.216 10.924 19.578 15.631l.17.107c-.397.117-.795.234-1.193.346zm-53.55 1.939c-9.549-2.684-16.795-7.25-20.786-13.202-2.931-4.436-4.417-9.213-4.417-14.197 0-17.604 18.997-31.927 42.347-31.927.348 0 .696.004 1.036.01a84.47 84.47 0 0 1 3.097.132c-.48.565-.917 1.166-1.303 1.805-3.905 6.459-2.365 15.784 4.337 26.256a67.81 67.81 0 0 0 2.912 4.182c-10.432 8.809-19.626 17.896-27.223 26.94zm31.967-51.093c3.103-4.102 12.254-3.383 25.149 1.955a317.56 317.56 0 0 0-21.267 15.198c-1.92-2.592-3.327-5.22-4.167-7.816h.003l-.575-2.159-.005.001c-.673-3.122-.385-5.531.862-7.179zm77.428 0c1.246 1.648 1.534 4.057.861 7.18l-.005-.002-.575 2.159h.003c-.84 2.596-2.246 5.224-4.167 7.816a317.715 317.715 0 0 0-21.267-15.198c12.895-5.338 22.046-6.057 25.15-1.955zm61.902 27.696c.326-5.322-.48-10.41-2.397-15.122-3.602-8.852-10.822-15.688-20.88-19.771-9.004-3.655-19.644-4.865-30.916-3.54-4.699-3.17-11.748-4.29-20.532-3.167-8.05 1.03-16.944 3.86-25.892 8.174-8.947-4.314-17.841-7.144-25.89-8.174a50.074 50.074 0 0 0-6.254-.424c-5.908-.01-10.755 1.214-14.28 3.59-11.276-1.323-21.913-.114-30.915 3.54-10.058 4.083-17.278 10.92-20.88 19.772-1.916 4.71-2.723 9.799-2.397 15.12.646 10.996 8.262 20.856 21.445 27.764a66.07 66.07 0 0 0 3.596 1.748 144.183 144.183 0 0 0-3.457 4.734c-7.262 10.392-12.043 20.285-14.21 29.403-2.271 9.55-1.614 18.015 1.952 25.16 4.562 9.143 13.478 15.492 26.498 18.873 4.15 1.095 8.541 1.643 13.034 1.643 3.956 0 7.99-.425 12.006-1.277 11.44-2.426 21.54-8.03 28.442-15.782 6.983-7.843 9.87-16.948 8.128-25.636-.938-4.681-3.144-8.919-6.566-12.604-3.418-3.586-8.414-5.779-14.066-6.173-5.673-.395-11.792 1.05-17.232 4.073-5.835 3.241-10.556 8.076-13.294 13.613l-.17.346c2.464-3.516 5.882-6.702 10.077-9.133 6.941-4.023 14.497-5.106 20.66-3.535 3.028.608 5.701 1.965 7.848 4.033 4.66 4.486 6.206 11.814 4.255 19.833l-.436 1.577c-3.261 11.788-17.943 20.454-34.91 20.604-9.598.08-18.673-2.549-25.53-7.415-6.733-4.778-10.471-11.1-10.527-17.803l-.003-.061c-.37-5.66.694-11.696 3.078-17.454.58-1.4 1.289-2.916 1.903-4.069l.224-.435c2.927-5.628 7.418-11.97 13.112-18.63 10.13 2.827 21.519 3.962 33.256 3.231 10.082-.625 19.673-2.556 28.522-5.74l.01.025.834-.333-.002-.006c.714-.294 1.427-.598 2.14-.91.712.312 1.426.616 2.139.91l-.002.006.835.333.01-.025c8.85 3.184 18.44 5.115 28.52 5.74 11.738.73 23.126-.403 33.257-3.232 5.694 6.66 10.185 13.001 13.11 18.627l.233.452a49.732 49.732 0 0 1 1.896 4.057c2.384 5.757 3.448 11.792 3.078 17.453l-.003.06c-.056 6.703-3.794 13.026-10.527 17.804-6.856 4.867-15.926 7.504-25.53 7.415-16.967-.15-31.649-8.816-34.91-20.604l-.436-1.573c-1.163-4.779-1.083-9.311.156-13.145.302-.99.703-1.953 1.21-2.878.064-.117.135-.227.202-.34.084-.148.17-.294.259-.438l.06-.1a15.25 15.25 0 0 1 2.368-2.936c2.01-1.936 4.479-3.249 7.27-3.907 6.246-1.752 14.014-.718 21.133 3.41 4.298 2.49 7.78 5.774 10.258 9.392l.032-.044-.278-.562c-2.738-5.537-7.46-10.371-13.293-13.613-5.441-3.022-11.56-4.469-17.233-4.073-5.653.394-10.648 2.587-14.076 6.183-3.412 3.677-5.618 7.914-6.556 12.594-1.742 8.688 1.145 17.793 8.128 25.636 6.901 7.752 17.002 13.356 28.443 15.783a57.959 57.959 0 0 0 12.006 1.277c4.491 0 8.882-.549 13.03-1.643 13.023-3.382 21.94-9.731 26.502-18.873 3.566-7.146 4.222-15.61 1.952-25.161-2.168-9.118-6.95-19.01-14.211-29.403a142.876 142.876 0 0 0-3.457-4.734 66.258 66.258 0 0 0 3.596-1.747c13.183-6.909 20.8-16.77 21.445-27.763" fill="#be1421"/></g></svg>