<svg xmlns="http://www.w3.org/2000/svg" xmlns:xlink="http://www.w3.org/1999/xlink" width="1322.835" height="755.905" viewBox="0 0 992.126 566.929"><g data-name="Plan 1"><symbol id="a"><path d="M.171.309.168.243.167.2.169.128A.25.25 0 0 1 .176.06.052.052 0 0 1 .198.034.065.065 0 0 1 .235.02C.25.019.257.016.257.01.257.005.255.002.25.001L.198 0 .064.001a.437.437 0 0 0-.06.002C.001.004 0 .006 0 .009c0 .006.006.009.019.012.021.005.037.013.045.023.009.01.014.033.016.067S.083.185.083.23L.082.36l.001.141a.268.268 0 0 1-.01.095C.066.61.052.619.033.622.011.626 0 .631 0 .637c0 .005.005.008.015.008h.252C.369.645.438.629.473.597A.156.156 0 0 0 .526.478c0-.057-.023-.1-.069-.129A.396.396 0 0 0 .249.306L.171.309m0 .02L.252.326c.033 0 .065.006.094.017.029.012.05.032.064.062.013.029.02.058.02.087a.13.13 0 0 1-.037.094C.368.611.323.624.259.624A.29.29 0 0 1 .171.613L.17.591.172.479.17.36.171.329z"/></symbol><symbol id="b"><path d="m.509.34.004.136c0 .059-.005.098-.017.117C.484.612.464.621.436.621.419.621.411.625.411.632c0 .006.005.009.015.009L.568.636l.121.002C.698.638.703.635.703.629.703.624.7.621.694.621A.117.117 0 0 1 .636.61.057.057 0 0 1 .609.574 5.078 5.078 0 0 1 .595.25L.593.13c0-.037.004-.061.011-.073A.07.07 0 0 1 .636.031.173.173 0 0 1 .679.019C.69.018.695.015.695.01.695.004.691.001.682.001l-.15.004L.434.002C.423.002.417.005.417.011c0 .005.004.008.012.008.026.002.043.005.05.01a.052.052 0 0 1 .019.03.28.28 0 0 1 .009.074L.509.31A2.298 2.298 0 0 1 .184.306 3.221 3.221 0 0 1 .183.068.054.054 0 0 1 .201.039.1.1 0 0 1 .244.02C.255.018.26.014.26.009.26.003.257 0 .249 0L.24.001a.853.853 0 0 1-.109.004A.736.736 0 0 1 .02 0H.011C.004 0 0 .002 0 .008c0 .005.005.009.015.01.025.003.043.01.054.021C.08.05.087.092.091.163c.004.072.006.159.006.262a.608.608 0 0 1-.012.158C.078.605.059.617.028.619.021.62.018.622.018.627c0 .007.007.01.021.01L.236.64.261.639C.264.638.265.636.265.631S.261.623.252.622C.22.619.2.613.193.604a.55.55 0 0 1-.01-.158L.184.34C.217.337.256.336.301.336c.058 0 .127.001.208.004z"/></symbol><symbol id="c"><path d="M.36.338c.019.021.046.057.083.11.038.053.059.086.066.099.007.012.01.023.01.03 0 .013-.007.024-.02.032a.08.08 0 0 1-.041.012C.447.621.441.624.441.63c0 .006.009.009.028.009h.184C.67.639.678.636.678.629.678.623.674.621.667.621A.118.118 0 0 1 .612.607.204.204 0 0 1 .547.548L.462.433A.985.985 0 0 1 .39.328.55.55 0 0 1 .382.206C.382.119.386.067.393.05.4.034.424.024.464.021.475.02.48.017.48.011S.474.002.463.002L.332.005A.815.815 0 0 1 .254.002L.223 0C.21 0 .204.003.204.01c0 .005.005.008.014.008C.249.019.27.031.28.053a.23.23 0 0 1 .016.099.594.594 0 0 1-.009.115.542.542 0 0 1-.221.334.107.107 0 0 1-.048.02C.006.622 0 .625 0 .63c0 .004.002.006.005.007.003.002.012.002.027.002h.213L.272.638C.275.637.276.634.276.63.276.625.272.622.264.621.222.618.202.605.202.584c0-.011.007-.029.022-.052C.239.508.284.443.36.338z"/></symbol><symbol id="d"><path d="M.616.444C.612.444.608.449.603.46a.325.325 0 0 1-.105.136.24.24 0 0 1-.14.047A.21.21 0 0 1 .24.606.259.259 0 0 1 .146.492.381.381 0 0 1 .11.328C.11.245.135.174.184.114A.23.23 0 0 1 .437.035c.018.009.036.02.052.036a.111.111 0 0 1 .03.034.208.208 0 0 1 .005.059C.524.218.517.253.503.27.489.287.466.296.434.296L.419.295C.41.295.405.298.405.305S.41.316.421.316L.447.315l.11.001.136.003C.7.319.704.316.704.309S.7.299.691.298A.13.13 0 0 1 .642.285C.629.278.621.27.618.261A.196.196 0 0 1 .614.217.78.78 0 0 0 .609.091.361.361 0 0 0 .518.04.397.397 0 0 0 .346 0a.351.351 0 0 0-.244.092A.299.299 0 0 0 0 .324a.326.326 0 0 0 .18.297.36.36 0 0 0 .17.043.38.38 0 0 0 .174-.047.124.124 0 0 1 .037-.013c.01 0 .018.004.024.013.005.007.009.011.013.011C.605.628.61.619.611.6.613.57.618.525.625.465L.626.456C.626.448.623.444.616.444z"/></symbol><symbol id="e"><path d="M.01.645.099.643l.137.002C.252.645.26.642.26.635.26.63.256.627.247.626.211.622.188.608.179.587A1.152 1.152 0 0 1 .166.349 3.567 3.567 0 0 1 .179.065a.058.058 0 0 1 .018-.03C.206.027.223.022.248.019.256.018.26.014.26.009.26.003.256 0 .249 0L.127.001.024 0C.013 0 .007.003.007.01s.005.01.014.01c.03.001.048.011.053.03a1.2 1.2 0 0 1 .008.187c0 .102-.001.184-.003.247a.313.313 0 0 1-.015.115C.055.613.038.622.014.625.005.627 0 .63 0 .636c0 .006.004.009.01.009z"/></symbol><symbol id="f"><path d="M.496.613a.193.193 0 0 1 .031.032C.53.653.535.657.541.657c.007 0 .01-.006.011-.018L.563.468.562.45C.561.448.559.447.555.447.55.447.544.454.538.468a.323.323 0 0 1-.09.128.192.192 0 0 1-.126.05.181.181 0 0 1-.11-.038.251.251 0 0 1-.077-.11.412.412 0 0 1-.028-.153.33.33 0 0 1 .077-.226C.235.061.292.032.354.032c.043 0 .082.014.118.041a.272.272 0 0 1 .081.093c.005.01.01.015.016.015.007 0 .01-.004.01-.012A.288.288 0 0 0 .315 0 .306.306 0 0 0 .16.042a.308.308 0 0 0-.117.115A.328.328 0 0 0 0 .329c0 .064.014.122.042.174A.299.299 0 0 0 .16.624a.306.306 0 0 0 .244.03.434.434 0 0 0 .092-.041z"/></symbol><symbol id="g"><path d="M.319.658h.024C.379.584.429.456.493.276.534.16.562.089.577.063A.09.09 0 0 1 .651.019C.662.018.667.014.667.008.667.003.664 0 .659 0L.652.001a1.853 1.853 0 0 1-.251.002c-.01 0-.015.003-.015.009 0 .004.004.007.011.008a.146.146 0 0 1 .058.014C.465.041.47.051.47.066a.442.442 0 0 1-.029.105L.412.255.184.252A.704.704 0 0 1 .133.081c0-.02.009-.034.025-.044a.112.112 0 0 1 .05-.016C.22.02.226.017.226.01.226.008.224.005.22.003a2.293 2.293 0 0 1-.204.001C.005.004 0 .007 0 .013c0 .005.005.009.014.01C.051.028.08.053.1.099c.02.046.051.128.093.247.038.109.08.213.126.312M.3.551A2.324 2.324 0 0 1 .193.282l.073.003.137-.003a4.325 4.325 0 0 1-.051.135L.3.551z"/></symbol><symbol id="h"><path d="M.358.351A.31.31 0 0 0 .494.283.137.137 0 0 0 .539.179.173.173 0 0 0 .483.056C.445.019.39 0 .318 0L.252.003.221.005C.121.005.053.004.018.002.006.002 0 .005 0 .011c0 .004.002.006.005.007l.038.008a.052.052 0 0 1 .031.016c.008.009.013.027.017.054a.887.887 0 0 1 .006.12l.002.128.002.074c0 .054-.002.097-.006.129C.091.58.085.6.077.609.07.618.055.625.031.628.022.629.017.633.017.639c0 .006.005.009.014.009L.12.647l.082.002.11.004A.237.237 0 0 0 .456.614.13.13 0 0 0 .509.506.13.13 0 0 0 .474.414.247.247 0 0 0 .358.351M.19.618A4.396 4.396 0 0 1 .185.446L.186.373C.186.364.187.358.19.355.193.352.2.351.213.351c.062 0 .112.011.15.034.037.023.056.06.056.114C.419.544.405.577.377.6a.164.164 0 0 1-.104.033A.27.27 0 0 1 .19.618m0-.29A.093.093 0 0 1 .183.285L.18.133c0-.054.001-.084.004-.09C.187.037.196.032.212.027A.353.353 0 0 1 .289.021c.031 0 .056.004.075.013.02.009.037.026.054.051a.17.17 0 0 1 .024.092C.442.23.427.269.395.294.364.319.318.331.257.331A.823.823 0 0 1 .19.328z"/></symbol><use xlink:href="#a" transform="matrix(116.58574 0 0 -150.22 189.198 282.223)" fill="#1a1a18"/><use xlink:href="#b" transform="matrix(116.58574 0 0 -150.22 270.327 282.975)" fill="#1a1a18"/><use xlink:href="#c" transform="matrix(116.58574 0 0 -150.22 369.138 282.975)" fill="#1a1a18"/><use xlink:href="#d" transform="matrix(116.58574 0 0 -150.22 461.11 283.726)" fill="#1a1a18"/><use xlink:href="#e" transform="matrix(116.58574 0 0 -150.22 564.195 282.374)" fill="#1a1a18"/><use xlink:href="#f" transform="matrix(116.58574 0 0 -150.22 618.315 284.327)" fill="#1a1a18"/><use xlink:href="#g" transform="matrix(116.58574 0 0 -150.22 699.95 283.125)" fill="#1a1a18"/><use xlink:href="#h" transform="matrix(116.58574 0 0 -150.22 795.282 282.975)" fill="#1a1a18"/><symbol id="i"><path d="M.021.648h.244C.279.648.286.645.286.639.286.633.281.63.27.629A.086.086 0 0 1 .219.61.1.1 0 0 1 .194.555.97.97 0 0 1 .185.386C.185.282.188.21.194.17A.142.142 0 0 1 .251.074a.218.218 0 0 1 .13-.035.22.22 0 0 1 .131.033c.03.022.05.054.059.097.009.043.013.136.013.28 0 .073-.008.122-.023.145C.546.617.523.628.493.628c-.012 0-.018.004-.018.01 0 .007.008.01.024.01h.194c.009 0 .013-.003.013-.01C.706.634.703.631.695.63.671.626.653.619.642.607.63.595.623.573.619.541A1.542 1.542 0 0 1 .614.402C.614.325.611.261.606.207A.253.253 0 0 0 .569.088.2.2 0 0 0 .483.024.359.359 0 0 0 .343 0a.354.354 0 0 0-.145.027.161.161 0 0 0-.081.072.328.328 0 0 0-.021.134l.002.135a.91.91 0 0 1-.015.221C.072.616.05.629.017.63.006.63 0 .633 0 .638c0 .007.007.01.021.01z"/></symbol><symbol id="j"><path d="m.218.649.1.002C.445.651.541.62.606.558A.307.307 0 0 0 .704.324.319.319 0 0 0 .54.038.398.398 0 0 0 .353 0a.93.93 0 0 0-.067.003 2.105 2.105 0 0 1-.081.006A3.08 3.08 0 0 1 .016.006C.005.006 0 .009 0 .014c0 .004.002.007.006.008a.601.601 0 0 0 .036.006c.026.003.045.014.055.031a.465.465 0 0 1 .02.161l.008.259c0 .03-.002.059-.006.087C.115.594.109.612.1.62a.078.078 0 0 1-.041.016C.045.638.038.642.038.647c0 .007.004.01.01.01a1.24 1.24 0 0 1 .17-.008M.2.177C.2.134.203.103.209.085A.084.084 0 0 1 .245.039a.186.186 0 0 1 .09-.017c.059 0 .107.014.144.042a.278.278 0 0 1 .086.112.354.354 0 0 1-.04.359C.478.598.405.629.306.629A.372.372 0 0 1 .228.625C.221.622.217.613.217.599L.214.531A4.975 4.975 0 0 1 .208.42L.203.285A6.376 6.376 0 0 1 .2.177z"/></symbol><symbol id="k"><path d="M.284.613.23.614C.16.614.109.599.077.57.045.541.027.515.022.492.02.484.016.48.009.48.006.48.003.482 0 .485c.002.038.008.09.019.156l.03.001A3.666 3.666 0 0 1 .362.634a3.588 3.588 0 0 1 .299.007.562.562 0 0 0 .008-.073.72.72 0 0 1 .006-.061V.499C.675.491.672.487.665.487c-.004 0-.008.001-.01.004a.148.148 0 0 0-.019.028.246.246 0 0 1-.053.06.142.142 0 0 1-.062.026 1.024 1.024 0 0 1-.137.008A2.757 2.757 0 0 1 .379.444c0-.209.005-.332.013-.37C.401.037.433.018.488.018c.013 0 .02-.003.02-.008C.508.003.502 0 .489 0H.19C.182 0 .178.003.178.009c0 .007.008.01.023.01A.09.09 0 0 1 .263.04.086.086 0 0 1 .29.099a4.205 4.205 0 0 1-.006.514z"/></symbol><symbol id="l"><path d="M0 0z"/></symbol><symbol id="m"><path d="M.427.168A.39.39 0 0 1 .496.065.073.073 0 0 1 .543.046a.09.09 0 0 1 .062.027l.006.003c.007 0 .01-.003.01-.01C.621.06.606.047.577.028A.163.163 0 0 0 .488 0a.082.082 0 0 0-.049.016.33.33 0 0 0-.065.09C.301.035.231 0 .164 0a.171.171 0 0 0-.117.042A.137.137 0 0 0 0 .148c0 .04.013.076.039.109A.541.541 0 0 0 .17.365C.111.423.081.474.081.518c0 .037.013.067.04.09a.128.128 0 0 0 .09.035c.031 0 .058-.01.081-.029A.093.093 0 0 0 .328.538C.328.496.299.45.241.401A.665.665 0 0 0 .416.19c.042.065.063.116.063.152a.053.053 0 0 1-.015.039.06.06 0 0 1-.043.015C.405.396.397.399.397.405c0 .007.004.011.01.011L.493.412l.115.001c.01 0 .014-.003.014-.01C.622.397.616.394.605.394A.087.087 0 0 1 .544.368.38.38 0 0 1 .485.27.48.48 0 0 0 .427.168M.225.417c.041.037.062.075.062.114a.088.088 0 0 1-.024.062.074.074 0 0 1-.057.027.059.059 0 0 1-.049-.022.078.078 0 0 1-.019-.053c0-.038.029-.081.087-.128M.186.348A.315.315 0 0 1 .108.279a.14.14 0 0 1-.029-.09c0-.04.013-.074.039-.102A.123.123 0 0 1 .209.046c.05 0 .101.027.154.08a.807.807 0 0 1-.07.112 1.11 1.11 0 0 1-.107.11z"/></symbol><symbol id="n"><path d="M0 .333c0 .044.013.092.04.145a.347.347 0 0 0 .117.13.306.306 0 0 0 .174.051c.09 0 .164-.032.223-.097a.316.316 0 0 0 .088-.22.336.336 0 0 0-.098-.237A.308.308 0 0 0 .31 0a.297.297 0 0 0-.221.092A.332.332 0 0 0 0 .333m.108.016c0-.054.008-.108.025-.164A.222.222 0 0 1 .209.063.192.192 0 0 1 .322.025c.064 0 .115.031.154.094a.4.4 0 0 1 .058.217c0 .08-.02.15-.059.21-.04.06-.091.09-.155.09A.163.163 0 0 1 .2.588.295.295 0 0 1 .13.473.392.392 0 0 1 .108.349z"/></symbol><symbol id="o"><path d="M.164.637C.184.611.218.57.266.514L.423.333l.15-.174A4.632 4.632 0 0 1 .574.53a.095.095 0 0 1-.033.061.104.104 0 0 1-.07.024c-.013 0-.02.003-.02.008 0 .004.001.006.004.007.003.002.025.003.066.005l.103.002h.077c.01 0 .015-.003.015-.009C.716.623.712.62.703.619.67.616.646.607.632.593A.092.092 0 0 1 .606.535 3.93 3.93 0 0 1 .602.279L.597.021c0-.013-.003-.02-.009-.02L.581.003C.578.004.564.021.537.052L.44.166a2.586 2.586 0 0 0-.091.106C.3.331.27.368.257.381a.966.966 0 0 0-.084.097C.168.488.163.493.158.493.155.493.153.486.153.474L.154.398c0-.096.003-.173.008-.231A.42.42 0 0 1 .178.066a.106.106 0 0 1 .03-.03.076.076 0 0 1 .045-.015C.274.021.285.017.285.009.285.004.279 0 .267 0L.033.001C.022.001.016.004.016.009c0 .007.005.01.016.01.04 0 .067.009.08.027.013.018.02.055.02.113L.128.331C.128.432.124.492.119.51a.236.236 0 0 1-.037.065C.063.601.041.616.017.619.006.62 0 .624 0 .628c0 .007.007.01.021.01L.164.637z"/></symbol><symbol id="p"><path d="M.349.615a.064.064 0 0 1 .018.027C.37.65.373.654.378.654.381.654.384.652.387.649l.01-.071.011-.092C.408.48.405.477.397.477.393.477.39.48.387.487A.264.264 0 0 1 .31.593a.171.171 0 0 1-.111.042C.159.635.129.623.109.6a.116.116 0 0 1-.03-.076C.079.492.09.467.112.45A.47.47 0 0 1 .247.391.654.654 0 0 0 .36.346.186.186 0 0 0 .423.284.153.153 0 0 0 .448.199.186.186 0 0 0 .384.061.214.214 0 0 0 .228 0a.31.31 0 0 0-.167.052A.057.057 0 0 1 .039.02C.036.009.032.004.026.004c-.005 0-.009.007-.011.02A2.7 2.7 0 0 0 0 .214C.001.218.005.22.01.22S.019.216.022.209C.072.083.142.02.232.02c.044 0 .079.014.104.04a.133.133 0 0 1 .038.093.12.12 0 0 1-.02.066A.159.159 0 0 1 .3.268.72.72 0 0 1 .194.31a.4.4 0 0 0-.126.056.168.168 0 0 0-.064.125c0 .043.02.081.059.115.039.033.088.05.145.05a.232.232 0 0 0 .067-.01.354.354 0 0 0 .074-.031z"/></symbol><symbol id="q"><path d="M.529.642A1.3 1.3 0 0 0 .557.488C.556.485.554.484.552.484a.009.009 0 0 0-.007.004.413.413 0 0 1-.065.083.187.187 0 0 1-.062.04.658.658 0 0 1-.219.004C.196.612.195.606.195.597L.194.585A2.67 2.67 0 0 1 .189.373L.19.352.241.351c.041 0 .071.006.089.018.019.012.035.038.048.079.003.007.006.01.009.01.006 0 .009-.005.009-.014L.394.424A4.09 4.09 0 0 1 .393.226C.393.215.39.209.384.209.38.209.377.213.375.221a.126.126 0 0 1-.043.083C.311.321.263.329.191.329A2.827 2.827 0 0 1 .189.214c0-.069.003-.113.007-.131A.072.072 0 0 1 .232.038.205.205 0 0 1 .326.022c.126 0 .208.044.245.131.004.011.009.016.013.016C.59.169.592.166.592.158L.59.146a1.43 1.43 0 0 1-.015-.07A.95.95 0 0 0 .557 0H.352L.223.004a2.853 2.853 0 0 1-.151.004.331.331 0 0 0-.069.003C.001.013 0 .014 0 .016c0 .007.005.01.016.01.037 0 .06.01.072.029a.351.351 0 0 1 .017.14v.1l.001.094a3.525 3.525 0 0 1-.009.197.048.048 0 0 1-.015.022.15.15 0 0 1-.055.022C.018.632.014.636.014.641.014.647.02.65.031.65l.1-.005C.166.643.253.642.39.642h.139z"/></symbol><symbol id="r"><path d="M.554.003.527.002.461.003a7.142 7.142 0 0 1-.197.002H.14A1.19 1.19 0 0 1 .09.002L.037 0C.012 0 0 .003 0 .01c0 .005.005.008.015.008.031.002.053.009.066.02a.095.095 0 0 1 .025.05c.005.022.007.08.007.176l.001.175a.612.612 0 0 1-.008.118.084.084 0 0 1-.031.052.105.105 0 0 1-.053.02C.011.63.006.634.006.64c0 .006.005.01.014.01L.033.649C.085.646.145.644.214.644L.3.645c.009 0 .013-.003.013-.01C.313.629.308.626.299.626A.106.106 0 0 1 .241.612a.068.068 0 0 1-.03-.031.205.205 0 0 1-.008-.069L.199.281.2.152C.2.112.202.086.205.074A.077.077 0 0 1 .227.041C.237.032.257.027.285.027L.373.03a.196.196 0 0 1 .12.066c.036.037.06.071.071.1.004.009.008.013.013.013.005 0 .008-.004.008-.012A1.847 1.847 0 0 0 .554.003z"/></symbol><use xlink:href="#g" transform="matrix(77.72331 0 0 -100.146 183.95 406.789)" fill="#1a1a18"/><use xlink:href="#i" transform="matrix(77.72331 0 0 -100.146 236.297 407.09)" fill="#1a1a18"/><use xlink:href="#j" transform="matrix(77.72331 0 0 -100.146 293.968 407.19)" fill="#1a1a18"/><use xlink:href="#e" transform="matrix(77.72331 0 0 -100.146 356.535 406.288)" fill="#1a1a18"/><use xlink:href="#k" transform="matrix(77.72331 0 0 -100.146 382.883 406.188)" fill="#1a1a18"/><use xlink:href="#l" transform="matrix(77.72331 0 0 -100.146 437.057 406.188)" fill="#1a1a18"/><use xlink:href="#m" transform="matrix(77.72331 0 0 -100.146 460.063 407.19)" fill="#1a1a18"/><use xlink:href="#l" transform="matrix(77.72331 0 0 -100.146 509.961 406.188)" fill="#1a1a18"/><use xlink:href="#f" transform="matrix(77.72331 0 0 -100.146 533.123 407.59)" fill="#1a1a18"/><use xlink:href="#n" transform="matrix(77.72331 0 0 -100.146 582.943 407.09)" fill="#1a1a18"/><use xlink:href="#o" transform="matrix(77.72331 0 0 -100.146 637.35 406.288)" fill="#1a1a18"/><use xlink:href="#p" transform="matrix(77.72331 0 0 -100.146 697.585 407.19)" fill="#1a1a18"/><use xlink:href="#q" transform="matrix(77.72331 0 0 -100.146 737.302 406.99)" fill="#1a1a18"/><use xlink:href="#e" transform="matrix(77.72331 0 0 -100.146 790.542 406.288)" fill="#1a1a18"/><use xlink:href="#r" transform="matrix(77.72331 0 0 -100.146 816.813 406.689)" fill="#1a1a18"/></g></svg>