<svg xmlns="http://www.w3.org/2000/svg" width="1322.835" height="755.905" viewBox="0 0 992.126 566.929"><g data-name="Plan 1"><path d="M385.63 220.657c0-23.498-13.816-38.967-34.718-38.967h-18.655v77.936h18.655c20.902 0 34.718-15.47 34.718-38.969zm10.983 0c0 23.5-18.895 41.33-44.166 41.33h-30.7v-82.66h30.7c25.271 0 44.166 17.832 44.166 41.33M468.634 259.626v2.36h-58.217v-82.659h57.036v2.363H420.93v37.196h37.077v2.361H420.93v38.379zM564.86 259.626v2.36h-55.262v-82.659h10.508v80.299zM623.893 235.181l-19.599-44.99-19.72 44.99zm1.065 2.363h-41.331l-10.745 24.442h-3.304l36.25-82.659h4.606l36.131 82.66h-10.98zM326 295.928v38.376h35.898v2.362H326v39.557h-10.509v-82.658h55.853v2.363zM448.092 334.894c0-24.206-12.753-40.146-32.117-40.146-19.251 0-32.004 15.94-32.004 40.146 0 24.206 12.753 40.15 32.004 40.15 19.364 0 32.117-15.944 32.117-40.15zm-75.103 0c0-24.206 18.424-42.51 42.986-42.51 24.675 0 43.096 18.304 43.096 42.51s-18.42 42.51-43.096 42.51c-24.562 0-42.986-18.304-42.986-42.51M483.388 338.437h19.955c12.636 0 21.02-8.383 21.02-21.254 0-12.872-8.384-21.256-21.02-21.256h-19.955zm57.979 37.787h-12.044c-2.718-1.889-4.722-4.369-6.14-6.848l-12.517-21.964c-1.654-2.717-4.134-5.197-7.203-6.614h-20.075v35.426h-10.507v-82.66h32.47c17.124 0 29.995 10.04 29.995 23.5 0 12.281-10.274 21.609-24.798 23.381 5.668 1.652 10.275 4.605 12.634 8.739l10.629 18.064c2.008 3.662 5.077 7.205 7.556 8.976M565.447 285.182l-.943-1.064 14.64-14.877h3.07l14.642 14.877-.943 1.064-15.232-8.148zm42.982 88.681v2.361h-58.216v-82.66h57.036v2.364h-46.524v37.196h37.078v2.361h-37.078v38.378zM681.516 295.928h-27.75v80.295h-10.51v-80.295H615.27v-2.363h66.245zM344.049 120.247l-15.726-9.642 5.278 17.676zm.834.5-10.981 8.444 2.858 9.608-.877.676-9.694-32.479 1.224-.94 28.927 17.69-2.916 2.244zM351.8 111.781l-9.871-16.363 3.017-1.822 10.244 16.983c3.385 5.61 8.799 7.302 13.648 4.375 4.848-2.928 5.672-8.386 2.288-13.994l-10.243-16.984.813-.491 10.267 17.02c3.805 6.306 2.74 12.595-3.125 16.136-6.07 3.664-13.002 1.833-17.038-4.86M396.64 92.854c-2.149-4.734-5.823-5.746-8.957-4.322l-7.464 3.386 6.162 13.583 8.002-3.633c3.172-1.44 4.085-4.98 2.257-9.014zm-22.58-14.517 5.788 12.759 6.377-2.897c3.534-1.603 4.74-4.98 2.93-8.974-1.774-3.91-5.002-5.472-8.176-4.03zm25.912 12.953c1.962 4.322.048 9.014-4.315 10.994l-12.112 5.497-13.068-28.814 11.03-5.004c4.434-2.014 9.133-.375 10.926 3.576 1.473 3.252.396 6.721-2.4 9.28 4.25-.887 8.223.685 9.939 4.471M426.045 90.354l.28.858-18.547 6.072-9.838-30.072 18.17-5.947.28.858-14.82 4.853 4.426 13.532 11.811-3.866.282.858-11.811 3.866 4.57 13.962zM431.202 75.211l6.546-1.378c4.146-.874 6.233-4.594 5.215-9.418-1.014-4.822-4.43-7.387-8.576-6.515l-6.546 1.38zm22.01 10.157-3.955.832c-1.04-.52-1.894-1.312-2.555-2.143l-5.84-7.367c-.76-.903-1.768-1.66-2.887-1.982l-6.586 1.389 2.8 13.275-3.452.725-6.53-30.978 10.65-2.242c5.619-1.182 10.635 1.692 11.701 6.735.972 4.603-1.663 8.807-6.287 10.476 1.99.227 3.735 1.016 4.837 2.402l4.911 6.037c.95 1.232 2.239 2.348 3.193 2.84M479.324 69.561l1.166 13.333-.396.035-2.526-3.003c-1.422 2.347-4.606 4.077-8.472 4.413-8.315.723-15.273-5.705-16.079-14.938-.806-9.235 4.851-16.76 13.442-17.508 5.992-.522 10.75 2.56 11.16 7.243l-.868.075c-.352-4.053-4.322-6.747-9.407-6.306-7.41.646-11.47 6.943-10.648 16.312.799 9.143 5.78 14.79 12.718 14.187 3.742-.327 6.402-2.19 7.23-4.986l-.75-8.558zM506.196 82.631l-.03.906-19.515-.583.946-31.646 19.118.57-.026.904-15.597-.466-.425 14.242 12.43.37-.028.904-12.431-.371-.436 14.694zM723.12 418.273c6.036-6.143 11.618-12.759 17.05-19.53 6.853-8.544 13.39-17.372 19.68-26.42.831-1.194 1.775-2.002 3.115-2.53 2.999-1.178 5.923-2.571 8.85-3.941 3.599-1.686 7.335-2.85 11.275-3.264 3.086-.325 6.185-.205 9.28.183 2.379.299 4.75.708 7.124 1.07 1.357.205 2.67-.725 3.044-2.168a.815.815 0 0 0-.344-.913 15.814 15.814 0 0 0-1.376-.826c-4.354-2.359-8.916-3.048-13.626-2.452-4.591.58-8.838 2.253-12.915 4.455-2.512 1.358-4.917 2.91-7.288 4.525a36.36 36.36 0 0 1-1.806 1.165c-.323.194-.723.542-1.056.242-.378-.34-.012-.764.144-1.108.224-.497.477-.983.76-1.441 1.88-3.044 3.778-6.074 5.652-9.124.328-.533.719-.956 1.244-1.242 5.183-2.828 10.022-6.29 15.087-9.338 2.895-1.744 5.851-3.353 8.961-4.646 5.935-2.469 12.021-3.245 18.376-1.518 1.672.453 3.058-.506 3.474-2.29.123-.523-.007-.963-.364-1.35a8.321 8.321 0 0 0-2.423-1.802c-1.574-.792-3.236-1.104-4.926-1.117-2.397-.018-4.742.345-7.044 1.036-5.09 1.53-9.828 3.896-14.404 6.65a99.084 99.084 0 0 0-13.193 9.47c-.33.28-.58.753-1.106.7-.153-.209-.004-.37.077-.506 2.738-4.586 5.447-9.192 8.235-13.742 1.908-3.112 4.057-6.022 6.539-8.622 3.654-3.83 7.93-6.656 12.522-8.972 3.762-1.898 7.654-3.455 11.61-4.848.791-.28 1.586-.542 2.256-1.094.48-.396.38-1.075-.199-1.337-1.062-.48-2.16-.447-3.251-.321-2.191.254-4.268.938-6.287 1.831-4.05 1.796-7.693 4.308-11.086 7.24-1.788 1.546-3.46 3.248-5.192 4.87-.368.344-.616.869-1.168.958-.36-.258-.078-.5-.01-.714.082-.26.231-.494.352-.737a144.523 144.523 0 0 0 6.416-14.876c2.651-7.242 4.795-14.663 5.978-22.418.357-2.345.602-4.706.603-7.1a13.77 13.77 0 0 0-.394-3.351 3.93 3.93 0 0 0-.48-1.152c-.13-.204-.418-.358-.651-.4-.328-.06-.397.288-.44.547-.478 2.814-.963 5.625-1.405 8.445-.67 4.268-1.27 8.55-2.148 12.768-1.91 9.184-5.136 17.774-9.242 25.96-1.462 2.916-2.91 5.848-4.64 8.588l.035-.04c-.308-.646-.017-1.25.092-1.845a91.085 91.085 0 0 0 1.485-15.217c.088-6.293-.626-12.508-2.287-18.61-.574-2.108-1.311-4.166-2.326-6.094-.324-.614-.714-1.192-1.093-1.771-.151-.23-.356-.483-.64-.396-.41.124-.318.543-.277.86.381 3.006.806 6.01 1.17 9.019.705 5.808 1.44 11.612 1.413 17.465-.015 3.237-.298 6.44-.607 9.642-.43 4.453-.89 8.901-1.31 13.356-.1 1.067-.381 2.007-.945 2.892-1.235 1.93-2.393 3.92-3.587 5.884-.24.397-.494.785-.742 1.177-.449-.289-.321-.646-.284-.95.928-7.77.449-15.542-.649-23.324a128.705 128.705 0 0 0-2.88-14.309c-.742-2.865-1.585-5.705-2.731-8.433-.237-.564-.467-1.123-1.01-1.62-.093.96.161 1.7.308 2.447 1.164 5.886 2.123 11.805 2.978 17.74 1.468 10.18 1.619 20.339.415 30.466-.116.97-.268 1.94-.295 2.92-.055 2.083-1.049 3.619-2.334 5.323.085-1.792.176-3.316.226-4.846.24-7.326-.366-14.61-1.582-21.867-.747-4.46-1.782-8.854-2.919-13.222-.657-2.521-1.44-5.015-2.596-7.35-.432-.872-.896-1.756-1.78-2.217a.399.399 0 0 0-.353.018c-.083.054-.165.219-.15.321.081.557.183 1.113.293 1.665 1.569 7.82 2.97 15.668 4.134 23.556.677 4.602 1.258 9.219 1.235 13.876-.009 2.042-.205 4.057-.45 6.068-.387 3.191-.681 6.393-.585 9.636.02.652-.074 1.243-.444 1.77-2.353 3.349-4.695 6.705-7.056 10.08-.538-.414-.232-.836-.187-1.153.907-6.47.825-12.983.213-19.533-.527-5.632-1.536-11.176-2.928-16.654-.696-2.735-1.57-5.413-2.755-7.966-.502-1.084-1.064-2.13-1.86-3.008-.378-.417-.389-.424-1.397-.572-.004 1.76.183 3.503.489 5.235.663 3.753 1.45 7.476 2.412 11.168 1.28 4.916 2.38 9.884 2.969 14.934.697 5.995.447 11.938-.65 17.795-.345 1.845-.779 3.668-1.198 5.493-.154.673-.348 1.333-.773 1.883-2.207 2.855-4.401 5.72-6.6 8.578-.53-.442-.202-.853-.134-1.19 1.692-8.542 1.884-17.194.952-25.95-.427-4.013-1.133-7.955-2.378-11.795-.829-2.562-1.866-5.007-3.514-7.106-.289-.367-.552-.841-1.067-.858-.322-.01-.863.884-.894 1.498-.019.344.035.705.106 1.047.375 1.793.68 3.611 1.172 5.373.968 3.47 1.696 6.99 2.334 10.532 1.29 7.147 1.449 14.283.417 21.397-.59 4.071-1.242 8.128-1.846 12.196-.084.57-.216 1.083-.577 1.508-2.243 2.635-4.485 5.272-6.73 7.906-.026.03-.093.02-.143.03-.299-.343-.062-.676.007-.984 2.32-10.458 2.866-21.117 2.191-31.936-.43-6.91-1.4-13.737-2.844-20.512-.617-2.902-1.398-5.754-2.424-8.529-.094-.254-.269-.475-.419-.701-.013-.02-.12.009-.17.042-.215.147-.152-.192-.15.087.002.348.018.704.077 1.048.75 4.383 1.263 8.794 1.783 13.205 1.585 13.445 1.596 26.815-.321 40.097a816.084 816.084 0 0 0-1.616 11.605c-.133 1.02-.476 1.817-1.144 2.533-1.81 1.942-3.555 3.949-5.342 5.914-.339.372-.65.832-1.325.88-.03-.808.28-1.473.522-2.15 1.021-2.847 1.98-5.72 2.796-8.654 1.918-6.901 3.005-13.97 3.018-21.26a69.932 69.932 0 0 0-2.863-20.019c-.134-.453-.181-.98-.685-1.237-.362.196-.203.569-.188.862.177 3.653.348 7.305.36 10.96.03 8.943-.678 17.79-1.855 26.585-.723 5.398-1.73 10.727-2.8 16.04-.198.992-.573 1.79-1.275 2.474-1.508 1.47-2.951 3.017-4.38 4.49-.46-.234-.398-.51-.3-.764.427-1.084.87-2.162 1.298-3.247 1.668-4.226 3-8.57 3.42-13.218.385-4.238.115-8.42-1.406-12.477-.025-.066-.04-.136-.067-.2-.31-.76-.491-1.594-1.12-2.166-.764.684-.41 1.642-.38 2.48.093 2.6.206 5.202.415 7.799.327 4.069-.29 7.967-1.257 11.817-1.064 4.243-2.49 8.332-4.049 12.368a8.408 8.408 0 0 1-2.105 3.137c-7.924 7.571-16.14 14.754-24.48 21.778-1.958 1.65-3.93 3.282-5.897 4.92-1.415 1.178-2.789 2.408-3.98 3.851-.466.561-.863 1.194-1.26 1.816-.18.285-.294.652-.084.979.28.432.706.347 1.059.203.596-.243 1.192-.51 1.737-.86.983-.634 1.96-1.289 2.88-2.022.69-.547 1.414-.87 2.272-.982 6.76-.873 13.387-.178 19.857 2.607 3.288 1.418 6.435 3.166 9.54 5.013 1.782 1.062 3.542 2.17 5.322 3.236 1.152.69 1.791.543 2.47-.53.457-.725.51-1.31-.113-2.08-1.975-2.443-4.257-4.46-6.847-6.053-5.01-3.085-10.41-4.49-16.036-4.855a40.098 40.098 0 0 0-10.964.771c-.617.13-1.238.24-1.87.362-.11-.515.25-.64.464-.84.384-.361.797-.685 1.2-1.022.907-.758 1.718-1.754 2.746-2.208 1.154-.512 2.497-.576 3.77-.763 5.097-.745 10.192-1.509 15.302-2.172a91.019 91.019 0 0 1 10.793-.775c3.108-.031 6.204.237 9.21 1.332.905.33 1.64.196 2.295-.513 1.257-1.365 1.167-2.455-.315-3.622-1.144-.9-2.43-1.395-3.787-1.65-1.283-.24-2.577-.32-3.864-.178-1.985.222-3.956.512-5.913.93a189.408 189.408 0 0 1-8.158 1.554c-5.528.925-10.984 2.178-16.416 3.61-.12-.384.15-.552.373-.752 1.915-1.708 3.839-3.406 5.739-5.133.699-.636 1.457-1.061 2.378-1.229 3.304-.6 6.463-1.74 9.621-2.866 4.376-1.56 8.75-3.124 13.39-3.677 3.709-.44 7.341-.001 10.889 1.472 1.533.637 2.98 1.464 4.364 2.433.385.27.766.551 1.154.817.36.248.749.271 1.11.082.786-.412 1.3-1.103 1.536-2.014.133-.51-.12-.942-.379-1.375-1.214-2.024-2.795-3.585-4.803-4.622-1.678-.867-3.444-1.31-5.265-1.454-3.533-.278-6.94.34-10.29 1.356-4.51 1.366-8.813 3.303-13.148 5.153-1.658.708-3.303 1.469-5.134 1.54-.184-.363.071-.55.234-.712 1.402-1.402 2.826-2.78 4.231-4.18a3.666 3.666 0 0 1 1.664-.951c5.215-1.454 10.274-3.406 15.335-5.34 2.954-1.128 5.92-2.222 8.95-3.106 2.047-.596 4.14-.95 6.29-.92 1.966.028 3.859.437 5.65 1.417.351.192.691.416 1.05.582.384.178.769.112 1.108-.119 1.157-.786 1.369-2.733.427-3.86-.503-.6-1.144-.952-1.84-1.181-1.07-.352-2.163-.47-3.265-.453-2.989.045-5.887.622-8.738 1.465-7.237 2.141-14.274 4.856-21.17 7.986-.284.13-.593.195-.914.297.004-.569.356-.789.632-1.062 2.49-2.464 4.985-4.92 7.468-7.392.426-.425.862-.802 1.43-.992 3.977-1.334 7.774-3.152 11.648-4.763 2.452-1.018 4.966-1.815 7.603-2.155 1.808-.233 3.61-.168 5.397.288 4.278 1.09 8.08 3.134 11.133 6.768 2.444 2.91 4.607 6.048 6.765 9.196.941 1.373 1.878 2.75 2.852 4.096.36.5.813.923 1.242 1.36.195.199.51.025.573-.249.113-.497-.004-.978-.095-1.46-.465-2.454-1.295-4.77-2.58-6.871-4.113-6.733-9.37-12.113-15.977-15.847-1.986-1.123-4.067-1.947-6.294-2.204-.31-.035-.615-.168-1.075-.3 2.64-1.737 5.268-3.122 7.862-4.572.384-.215.74-.149 1.115-.007 3.84 1.453 7.837 2.039 11.779 2.924 2.038.457 4.06.974 6.044 1.691 5.091 1.844 9.347 5.046 12.817 9.545 1.95 2.53 3.597 5.27 5.043 8.154.312.624.585 1.276 1.065 1.787.49.521 1.13.422 1.413-.249.383-.903.456-1.875.412-2.87-.14-3.321-1.154-6.367-2.776-9.2-2.705-4.724-6.58-7.904-11.206-10.06-4.076-1.9-8.345-2.743-12.695-3.044-2.584-.18-5.166-.194-7.737.042-.762.07-1.534.048-2.406.072.408-.596.925-.717 1.366-.935 5.12-2.522 10.406-4.582 15.875-6.112 3.078-.861 3.077-.844 6.08.724 5.064 2.64 9.679 5.987 13.594 10.443 2.967 3.377 5.393 7.185 7.604 11.161.61 1.097 1.196 2.211 1.796 3.315.2.368.39.744.613 1.095.265.419.59.862 1.096.72.478-.133.619-.667.71-1.145a8.504 8.504 0 0 0 .07-2.514c-.352-3.204-1.348-6.18-2.84-9-2.328-4.408-5.496-7.982-9.224-11-2.22-1.799-4.605-3.291-7.076-4.621-.443-.239-1.015-.31-1.287-.957 1.037-.322 2.075-.106 3.088-.01 3.273.309 6.343 1.466 9.287 3.095 2.58 1.427 4.987 3.158 7.275 5.087 1.828 1.542 3.391 3.374 4.776 5.385 1.534 2.228 3.046 4.474 4.583 6.7.987 1.43 2.055 2.788 3.263 4.008.532.535 1.078 1.046 1.772 1.316.41.158.802-.108.832-.547.038-.574-.093-1.115-.258-1.66-.349-1.153-.84-2.233-1.396-3.287-3.647-6.914-8.407-12.736-14.423-17.329-.474-.36-.947-.723-1.361-1.04.043-.431.256-.422.419-.416 2.647.102 5.294.262 7.927.685 4.087.656 7.942 2.153 11.623 4.266 4.473 2.57 8.635 5.69 12.783 8.836.648.49 1.287.99 1.939 1.47.633.468 1.325.577 2.045.399.566-.142.801-.73.487-1.294-.962-1.719-2.18-3.214-3.517-4.6-2.543-2.638-5.443-4.71-8.538-6.46-4.26-2.408-8.727-4.187-13.306-5.637-2.942-.934-5.915-1.7-8.898-2.418-.437-.105-.889-.138-1.357-.564 1.776-.836 3.466-1.59 5.124-2.415 9.408-4.683 17.92-10.77 25.245-18.696 2.074-2.246 4.041-4.596 5.643-7.282.416-.697.824-1.403.964-2.243.03-.173-.038-.455-.154-.552-.12-.102-.406-.127-.531-.04-.697.478-1.4.955-2.04 1.517-4.098 3.605-8.201 7.207-12.263 10.86-4.765 4.287-9.863 8.025-15.402 11.064-3.125 1.714-6.25 3.432-9.381 5.136-1.139.62-2.253 1.328-3.455 1.772-1.217.45-2.551.041-3.833.072-2.323.057-4.638.174-6.945.453-.23-.627.298-.688.55-.868 3.259-2.312 6.295-4.919 9.07-7.877 2.684-2.862 5.134-5.942 7.15-9.412.57-.983 1.184-1.95 1.358-3.135-.314-.231-.538-.106-.721.099a79.534 79.534 0 0 0-1.437 1.658c-4.966 5.854-10.32 11.241-16.25 15.935-2.416 1.914-4.92 3.683-7.725 4.907-.96.42-1.908.731-2.987.6-.849-.103-1.645.181-2.402.604-.933.52-1.871 1.048-2.976 1.361.285-.805.889-1.12 1.358-1.563 6.286-5.95 12.237-12.266 17.677-19.138 1.202-1.519 2.316-3.119 3.448-4.7a7.49 7.49 0 0 0 .792-1.415c.133-.31.1-.718-.154-.985-.263-.277-.622-.26-.899-.06a6.162 6.162 0 0 0-1.02.911c-2.812 3.194-5.719 6.299-8.381 9.636-2.716 3.406-5.666 6.52-8.817 9.433-3.387 3.131-6.74 6.306-10.112 9.458-1.791 1.675-2.959 2.294-5.576 2.982-.246-.57.257-.703.488-.93 2.402-2.372 4.702-4.847 6.742-7.6a53.78 53.78 0 0 0 5.946-10.132c.14-.312.293-.617.41-.94.132-.375.385-.754.102-1.18-.195-.293-.785-.236-1.25.076-.555.375-.91.955-1.31 1.489-5.257 7.023-10.518 14.043-15.767 21.074-.488.654-1.023 1.195-1.74 1.558-6.88 3.484-13.505 7.462-19.976 11.737-.188.052-.284.235-.43.347a.947.947 0 0 1-.303.17c-.413.223-.855.385-1.21.664.021-.016-.03-.026-.015-.033.39-.216.608-.566.74-.99l.019-.017a.554.554 0 0 1 .334-.368" fill="#754829"/><path stroke-width="1.5" stroke-miterlimit="10" fill="none" stroke="#754829" d="M523.62 52.342c20.457 3.14 89.512 16.334 144.607 77.585 44.94 49.96 56.152 104.723 59.45 126.897M310.326 122.952c-17.077 17.359-47.514 53.101-62.668 107.14-30.436 108.539 27.259 196.484 33.496 205.656 43.851 64.466 105.218 87.805 122.872 93.866 70.978 24.373 131.06 8.169 152.514 2.059 58.587-16.683 96.794-49.359 114.622-66.809"/><path stroke-width=".75" stroke-miterlimit="10" fill="none" stroke="#754829" d="M382.965 436.847h209.55"/><path d="M474.083 470.33v2.335h-11.2v-.5c6.147-4.978 8.649-7.564 8.649-9.382 0-1.687-1.371-2.938-2.798-2.938-1.743 0-3.144 1.39-3.144 3.188l-2.14-.52c0-2.808 2.326-5.013 5.21-5.013 2.929 0 5.228 2.409 5.228 5.162 0 2.587-2.632 5.506-6.017 7.667zM485.99 465.193c0-3.124-1.5-5.34-3.754-5.34-2.26 0-3.754 2.216-3.754 5.34 0 3.115 1.493 5.321 3.754 5.321 2.253 0 3.755-2.206 3.755-5.32zm-9.844 0c0-4.505 2.466-7.694 6.1-7.694 3.633 0 6.1 3.189 6.1 7.694 0 4.496-2.467 7.684-6.1 7.684-3.634 0-6.1-3.188-6.1-7.684M501.607 470.33v2.335h-11.199v-.5c6.147-4.978 8.649-7.564 8.649-9.382 0-1.687-1.372-2.938-2.798-2.938-1.743 0-3.144 1.39-3.144 3.188l-2.141-.52c0-2.808 2.327-5.013 5.21-5.013 2.93 0 5.228 2.409 5.228 5.162 0 2.587-2.632 5.506-6.016 7.667zM514.87 470.33v2.335h-11.2v-.5c6.148-4.978 8.65-7.564 8.65-9.382 0-1.687-1.372-2.938-2.798-2.938-1.744 0-3.144 1.39-3.144 3.188l-2.141-.52c0-2.808 2.326-5.013 5.21-5.013 2.93 0 5.228 2.409 5.228 5.162 0 2.587-2.632 5.506-6.016 7.667z" fill="#754829"/><path d="M314.606 398.253h.68v8.96h10.589v-8.96h.68v15.45h-.68v-5.892h-10.589v5.892h-.68zM336.032 402.805l-2.163-1.854-2.163 1.854h-.906l2.76-2.369h.618l2.72 2.369zm0 10.054a4.218 4.218 0 0 0 1.514-1.596 4.508 4.508 0 0 0 .547-2.196c0-.783-.186-1.51-.557-2.183a4.298 4.298 0 0 0-1.524-1.607 4.015 4.015 0 0 0-2.144-.597c-.783 0-1.5.203-2.151.607a4.424 4.424 0 0 0-1.546 1.618 4.382 4.382 0 0 0-.566 2.184c0 .783.188 1.508.565 2.174a4.352 4.352 0 0 0 1.547 1.596 4.076 4.076 0 0 0 2.172.598c.783 0 1.497-.2 2.143-.598zm-4.677.484a4.924 4.924 0 0 1-1.772-1.834 4.997 4.997 0 0 1-.638-2.482c0-.88.216-1.696.65-2.452a4.917 4.917 0 0 1 1.77-1.803c.749-.446 1.583-.668 2.503-.668.907 0 1.734.222 2.484.668a4.843 4.843 0 0 1 1.76 1.803c.425.756.64 1.573.64 2.452 0 .92-.207 1.762-.619 2.524a4.687 4.687 0 0 1-1.72 1.812c-.735.446-1.576.67-2.524.67-.934 0-1.779-.23-2.534-.69M341.604 412.9c-.666-.618-.998-1.47-.998-2.554v-9.643h.659v3.73h2.843v.577h-2.843v5.336c0 .905.271 1.617.813 2.132.543.514 1.227.772 2.05.772v.578c-1.017 0-1.858-.31-2.524-.928M347.219 411.911l6.036-5.994c-.454-.399-.894-.683-1.319-.856-.426-.17-.934-.258-1.525-.258-.837 0-1.583.183-2.235.546a4.028 4.028 0 0 0-1.535 1.494c-.37.632-.555 1.346-.555 2.142 0 1.141.377 2.115 1.133 2.926zm5.191.907a4.722 4.722 0 0 0 1.607-1.525v1.05c-.51.564-1.065.972-1.669 1.226-.604.255-1.29.382-2.06.382a4.551 4.551 0 0 1-2.4-.68 5.13 5.13 0 0 1-1.792-1.813 4.65 4.65 0 0 1-.67-2.41c0-.92.22-1.748.66-2.483a4.617 4.617 0 0 1 1.802-1.72c.762-.411 1.61-.618 2.544-.618 1.428 0 2.644.563 3.647 1.69l-6.47 6.386c.453.371.894.642 1.32.813a3.81 3.81 0 0 0 1.441.258c.714 0 1.394-.185 2.04-.556M357.89 413.446a3.329 3.329 0 0 1-1.279-1.247 3.462 3.462 0 0 1-.473-1.792v-12.154h.66v12.154c0 .55.127 1.045.38 1.483.256.44.602.787 1.042 1.04.44.255.92.381 1.442.381v.578c-.646 0-1.237-.149-1.773-.443M372 413.126c.812 0 1.546-.196 2.205-.587.66-.39 1.18-.937 1.566-1.638.383-.7.577-1.49.577-2.369 0-1.414-.374-2.482-1.123-3.203-.749-.721-1.824-1.082-3.224-1.082h-.166v8.88zm0-9.434a2.2 2.2 0 0 0 1.668-.723c.454-.48.682-1.07.682-1.77 0-.784-.19-1.375-.567-1.772-.378-.4-.971-.598-1.782-.598h-.166v4.863zm-.824-5.439h.66c1.085 0 1.881.25 2.39.751.507.502.762 1.24.762 2.215 0 .562-.164 1.102-.495 1.618-.329.514-.727.862-1.195 1.04 1.18.193 2.094.686 2.74 1.483.645.797.969 1.84.969 3.131 0 1.03-.226 1.94-.68 2.73a4.718 4.718 0 0 1-1.865 1.833c-.79.433-1.665.65-2.627.65h-.66zM385.659 412.766a4.352 4.352 0 0 0 1.535-1.566 4.164 4.164 0 0 0 .567-2.132c0-.755-.192-1.463-.577-2.122a4.43 4.43 0 0 0-1.545-1.576 3.988 3.988 0 0 0-2.101-.587c-.757 0-1.46.199-2.113.598a4.568 4.568 0 0 0-1.565 1.586 4.095 4.095 0 0 0-.587 2.122c0 .755.196 1.46.587 2.111a4.478 4.478 0 0 0 1.576 1.566 4.08 4.08 0 0 0 2.121.587c.756 0 1.457-.195 2.102-.587zm-4.594.505a4.902 4.902 0 0 1-1.792-1.783 4.693 4.693 0 0 1-.66-2.42c0-.866.22-1.673.66-2.42a4.914 4.914 0 0 1 1.792-1.783 4.884 4.884 0 0 1 4.986.053c.797.473 1.352 1.087 1.669 1.842v-2.327h.66v9.27h-.66v-2.307c-.371.769-.945 1.383-1.72 1.844-.776.46-1.604.69-2.483.69-.88 0-1.697-.22-2.452-.659M390.974 404.433h.66v2.142c.274-.672.676-1.2 1.205-1.587a3 3 0 0 1 1.803-.576c.425 0 .858.09 1.298.267v.763a2.168 2.168 0 0 0-1.34-.454c-.494 0-.972.153-1.432.454-.46.302-.83.708-1.112 1.216a3.3 3.3 0 0 0-.422 1.627v5.42h-.66zM407.99 407.503a4.1 4.1 0 0 0 2.143-.578 4.18 4.18 0 0 0 1.524-1.554c.37-.653.557-1.378.557-2.174 0-1.387-.374-2.458-1.123-3.215-.75-.754-1.816-1.133-3.205-1.133h-.267v8.654zm-1.03-9.25h.886c1.607 0 2.846.425 3.719 1.276.872.853 1.308 2.068 1.308 3.647 0 .907-.217 1.737-.649 2.492a4.774 4.774 0 0 1-4.214 2.431h-.143l5.315 5.605h-.886l-4.677-4.904v4.904h-.659zM416.499 411.911l6.036-5.994c-.453-.399-.893-.683-1.318-.856-.427-.17-.935-.258-1.526-.258-.836 0-1.583.183-2.234.546a4.026 4.026 0 0 0-1.536 1.494c-.37.632-.555 1.346-.555 2.142 0 1.141.378 2.115 1.133 2.926zm5.191.907a4.717 4.717 0 0 0 1.607-1.525v1.05c-.509.564-1.064.972-1.668 1.226-.605.255-1.291.382-2.061.382a4.55 4.55 0 0 1-2.4-.68 5.13 5.13 0 0 1-1.791-1.813 4.65 4.65 0 0 1-.67-2.41c0-.92.22-1.748.659-2.483a4.616 4.616 0 0 1 1.803-1.72c.762-.411 1.61-.618 2.544-.618 1.427 0 2.643.563 3.646 1.69l-6.47 6.386c.453.371.894.642 1.32.813.425.173.906.258 1.442.258.713 0 1.393-.185 2.04-.556M425.914 413.59c-.508-.226-.873-.519-1.093-.875v-1.093c.26.591.619 1.028 1.071 1.308.453.282 1.031.423 1.73.423.673 0 1.217-.21 1.629-.63.412-.418.618-.956.618-1.615 0-.564-.117-1-.35-1.308-.234-.31-.612-.622-1.133-.937l-.783-.454a23.6 23.6 0 0 1-1.267-.814 2.539 2.539 0 0 1-.67-.68 1.612 1.612 0 0 1-.248-.896c0-.55.193-.988.577-1.319.385-.329.886-.494 1.504-.494.756 0 1.387.172 1.897.516v.906c-.427-.563-1.038-.845-1.835-.845-.44 0-.796.11-1.071.33-.275.22-.412.502-.412.844 0 .303.082.567.247.794.165.226.395.435.69.627.295.194.787.482 1.474.866.7.4 1.215.807 1.545 1.226.329.418.495.964.495 1.638 0 .851-.28 1.534-.836 2.05-.555.515-1.233.772-2.028.772-.66 0-1.244-.112-1.751-.34M433.381 412.9c-.665-.618-.999-1.47-.999-2.554v-9.643h.66v3.73h2.843v.577h-2.843v5.336c0 .905.27 1.617.813 2.132.542.514 1.227.772 2.05.772v.578c-1.017 0-1.858-.31-2.524-.928M444.145 412.766a4.353 4.353 0 0 0 1.535-1.566 4.163 4.163 0 0 0 .567-2.132c0-.755-.192-1.463-.577-2.122a4.43 4.43 0 0 0-1.545-1.576 3.986 3.986 0 0 0-2.101-.587c-.757 0-1.46.199-2.112.598a4.563 4.563 0 0 0-1.566 1.586 4.092 4.092 0 0 0-.587 2.122c0 .755.196 1.46.587 2.111a4.478 4.478 0 0 0 1.576 1.566 4.08 4.08 0 0 0 2.122.587c.755 0 1.456-.195 2.101-.587zm-4.594.505a4.907 4.907 0 0 1-1.792-1.783 4.693 4.693 0 0 1-.66-2.42c0-.866.22-1.673.66-2.42a4.919 4.919 0 0 1 1.792-1.783 4.883 4.883 0 0 1 4.986.053c.796.473 1.352 1.087 1.669 1.842v-2.327h.66v9.27h-.66v-2.307c-.371.769-.945 1.383-1.72 1.844-.776.46-1.604.69-2.483.69-.88 0-1.697-.22-2.452-.659M450.521 412.858c-.708-.713-1.06-1.722-1.06-3.028v-5.396h.659v5.396c0 1.127.299 1.995.896 2.606.596.612 1.438.917 2.523.917.66 0 1.264-.147 1.813-.443a3.29 3.29 0 0 0 1.299-1.245c.315-.536.474-1.148.474-1.835v-5.396h.658v9.27h-.658v-1.731c-.317.577-.791 1.048-1.423 1.41-.631.365-1.353.547-2.163.547-1.304 0-2.31-.357-3.018-1.072M460.38 404.433h.659v2.142c.275-.672.676-1.2 1.205-1.587a2.999 2.999 0 0 1 1.803-.576c.425 0 .858.09 1.297.267v.763a2.168 2.168 0 0 0-1.34-.454c-.493 0-.97.153-1.431.454-.46.302-.83.708-1.112 1.216a3.303 3.303 0 0 0-.422 1.627v5.42h-.66zM473.481 412.766a4.348 4.348 0 0 0 1.535-1.566 4.164 4.164 0 0 0 .567-2.132c0-.755-.192-1.463-.577-2.122a4.427 4.427 0 0 0-1.544-1.576 3.988 3.988 0 0 0-2.102-.587c-.757 0-1.46.199-2.112.598a4.563 4.563 0 0 0-1.566 1.586 4.093 4.093 0 0 0-.587 2.122c0 .755.196 1.46.587 2.111a4.477 4.477 0 0 0 1.576 1.566 4.08 4.08 0 0 0 2.122.587 3.97 3.97 0 0 0 2.101-.587zm-4.594.505a4.903 4.903 0 0 1-1.792-1.783 4.69 4.69 0 0 1-.66-2.42c0-.866.22-1.673.66-2.42a4.915 4.915 0 0 1 1.792-1.783 4.883 4.883 0 0 1 4.986.053c.797.473 1.352 1.087 1.67 1.842v-2.327h.658v9.27h-.659v-2.307c-.37.769-.945 1.383-1.72 1.844-.776.46-1.604.69-2.483.69-.88 0-1.696-.22-2.452-.659M478.796 404.433h.66v2.06c.301-.687.817-1.24 1.545-1.659a4.754 4.754 0 0 1 2.41-.629c1.14 0 2.043.362 2.71 1.082.665.721.998 1.728.998 3.019v5.398h-.658v-5.398c0-1.112-.273-1.978-.814-2.595-.543-.619-1.301-.928-2.276-.928-.715 0-1.371.162-1.97.484a3.726 3.726 0 0 0-1.42 1.33c-.35.563-.525 1.201-.525 1.915v5.192h-.66zM490.509 412.9c-.666-.618-1-1.47-1-2.554v-9.643h.66v3.73h2.843v.577h-2.843v5.336c0 .905.271 1.617.814 2.132.541.514 1.226.772 2.05.772v.578c-1.018 0-1.858-.31-2.524-.928M507.813 399.478a7.595 7.595 0 0 0-2.658 2.78 7.504 7.504 0 0 0-.978 3.74c0 1.346.329 2.596.988 3.75a7.652 7.652 0 0 0 2.628 2.75 6.566 6.566 0 0 0 3.532 1.02c.741 0 1.405-.07 1.989-.206a6.353 6.353 0 0 0 1.679-.66v-4.84h-5.11v-.599h5.79v5.008l.041-.021v.762c-.66.398-1.337.69-2.03.875a8.791 8.791 0 0 1-2.277.279 7.73 7.73 0 0 1-3.976-1.062 7.79 7.79 0 0 1-2.874-2.924c-.708-1.244-1.06-2.641-1.06-4.193 0-1.497.367-2.865 1.102-4.1a8.123 8.123 0 0 1 2.947-2.926 7.687 7.687 0 0 1 3.923-1.071c.962 0 1.724.087 2.287.258.563.172 1.216.47 1.958.896v.762c-.701-.48-1.35-.82-1.947-1.02-.598-.199-1.343-.299-2.236-.299-1.36 0-2.6.348-3.718 1.041M518.454 404.433h.658v9.271h-.658zm2.183-1.628-1.834-1.895-1.833 1.895h-.823l2.347-2.369h.619l2.308 2.369zM522.79 412.9c-.666-.618-.999-1.47-.999-2.554v-9.643h.66v3.73h2.842v.577h-2.843v5.336c0 .905.272 1.617.814 2.132.542.514 1.226.772 2.05.772v.578c-1.017 0-1.858-.31-2.524-.928M528.404 411.911l6.037-5.994c-.454-.399-.894-.683-1.319-.856-.426-.17-.935-.258-1.525-.258-.837 0-1.583.183-2.235.546a4.026 4.026 0 0 0-1.536 1.494c-.37.632-.555 1.346-.555 2.142 0 1.141.378 2.115 1.133 2.926zm5.192.907a4.72 4.72 0 0 0 1.606-1.525v1.05c-.509.564-1.064.972-1.668 1.226-.604.255-1.291.382-2.06.382a4.551 4.551 0 0 1-2.4-.68 5.128 5.128 0 0 1-1.792-1.813 4.65 4.65 0 0 1-.67-2.41c0-.92.22-1.748.66-2.483a4.615 4.615 0 0 1 1.802-1.72c.762-.411 1.61-.618 2.544-.618 1.427 0 2.643.563 3.646 1.69l-6.469 6.386c.453.371.893.642 1.319.813a3.81 3.81 0 0 0 1.442.258c.713 0 1.394-.185 2.04-.556M548.315 412.766a4.513 4.513 0 0 0 1.566-1.566c.39-.651.587-1.356.587-2.111 0-.755-.196-1.463-.587-2.122a4.573 4.573 0 0 0-1.566-1.586 3.978 3.978 0 0 0-2.112-.598c-.756 0-1.456.196-2.102.587a4.414 4.414 0 0 0-1.545 1.576 4.146 4.146 0 0 0-.576 2.122c0 .77.188 1.48.567 2.132a4.32 4.32 0 0 0 1.545 1.566 4.022 4.022 0 0 0 2.11.587c.756 0 1.46-.195 2.113-.587zm-4.553.505a4.952 4.952 0 0 1-1.782-1.772 4.681 4.681 0 0 1-.66-2.43c0-.88.22-1.69.66-2.432a4.958 4.958 0 0 1 1.782-1.772 4.784 4.784 0 0 1 2.46-.66c.866 0 1.692.23 2.473.691.783.461 1.36 1.06 1.73 1.803v-8.447h.66v15.451h-.66v-2.245c-.411.742-1.005 1.338-1.78 1.792-.776.453-1.584.68-2.422.68-.893 0-1.713-.22-2.461-.659M552.899 401.281c.81-.371 1.215-1.003 1.215-1.897v-2.368h.741v2.368c0 .646-.179 1.2-.535 1.66-.359.46-.832.78-1.422.957zM564.578 400.436h.845l-2.864 2.368h-.865zm-5.006 11.475 6.037-5.995c-.453-.398-.894-.683-1.319-.854-.425-.173-.934-.259-1.525-.259-.837 0-1.583.182-2.234.547a4.006 4.006 0 0 0-1.535 1.493c-.371.632-.557 1.347-.557 2.143 0 1.14.378 2.115 1.133 2.925zm5.192.907a4.716 4.716 0 0 0 1.607-1.525v1.051c-.508.562-1.065.972-1.669 1.226-.604.254-1.29.381-2.06.381-.852 0-1.65-.228-2.4-.68a5.145 5.145 0 0 1-1.792-1.812 4.669 4.669 0 0 1-.67-2.411c0-.92.22-1.748.66-2.482a4.61 4.61 0 0 1 1.802-1.721c.762-.413 1.61-.618 2.544-.618 1.43 0 2.644.562 3.647 1.689l-6.47 6.386c.454.371.894.642 1.319.815a3.84 3.84 0 0 0 1.442.256 4.04 4.04 0 0 0 2.04-.555M569.286 412.9c-.666-.618-1-1.47-1-2.554v-9.643h.66v3.73h2.843v.577h-2.843v5.336c0 .905.271 1.617.813 2.132.543.514 1.227.772 2.05.772v.578c-1.016 0-1.857-.31-2.523-.928M580.05 412.766a4.351 4.351 0 0 0 1.534-1.566 4.163 4.163 0 0 0 .567-2.132c0-.755-.192-1.463-.576-2.122a4.427 4.427 0 0 0-1.545-1.576 3.988 3.988 0 0 0-2.102-.587c-.755 0-1.46.199-2.112.598a4.56 4.56 0 0 0-1.566 1.586 4.093 4.093 0 0 0-.587 2.122c0 .755.196 1.46.587 2.111a4.48 4.48 0 0 0 1.577 1.566c.659.392 1.367.587 2.121.587.755 0 1.457-.195 2.102-.587zm-4.594.505a4.905 4.905 0 0 1-1.793-1.783 4.691 4.691 0 0 1-.66-2.42c0-.866.22-1.673.66-2.42a4.917 4.917 0 0 1 1.793-1.783 4.883 4.883 0 0 1 4.986.053c.796.473 1.351 1.087 1.668 1.842v-2.327h.66v9.27h-.66v-2.307c-.37.769-.944 1.383-1.72 1.844-.776.46-1.604.69-2.483.69s-1.696-.22-2.452-.659M592.37 412.766a4.357 4.357 0 0 0 1.534-1.566 4.174 4.174 0 0 0 .567-2.132 4.16 4.16 0 0 0-.576-2.122 4.426 4.426 0 0 0-1.545-1.576 3.99 3.99 0 0 0-2.103-.587 3.97 3.97 0 0 0-2.111.598 4.55 4.55 0 0 0-1.566 1.586 4.079 4.079 0 0 0-.587 2.122c0 .755.195 1.46.587 2.111a4.47 4.47 0 0 0 1.576 1.566c.66.392 1.367.587 2.122.587.755 0 1.455-.195 2.101-.587zm-7.005-8.333h.659v2.266c.37-.742.947-1.342 1.73-1.803a4.802 4.802 0 0 1 2.473-.69c.892 0 1.712.22 2.462.659a4.978 4.978 0 0 1 1.782 1.772c.44.741.66 1.552.66 2.431s-.22 1.69-.66 2.431a4.972 4.972 0 0 1-1.782 1.772c-.75.438-1.57.659-2.462.659-.838 0-1.645-.227-2.421-.68-.775-.454-1.37-1.05-1.782-1.792v6.365h-.66zM598.55 411.911l6.037-5.994c-.455-.399-.894-.683-1.32-.856-.426-.17-.934-.258-1.524-.258-.837 0-1.584.183-2.235.546a4.022 4.022 0 0 0-1.536 1.494c-.37.632-.555 1.346-.555 2.142 0 1.141.378 2.115 1.133 2.926zm5.192.907a4.719 4.719 0 0 0 1.606-1.525v1.05c-.509.564-1.064.972-1.668 1.226-.604.255-1.291.382-2.061.382a4.553 4.553 0 0 1-2.4-.68 5.126 5.126 0 0 1-1.791-1.813 4.647 4.647 0 0 1-.67-2.41c0-.92.22-1.748.659-2.483a4.618 4.618 0 0 1 1.803-1.72c.762-.411 1.61-.618 2.544-.618 1.427 0 2.643.563 3.646 1.69l-6.469 6.386c.452.371.893.642 1.318.813.425.173.907.258 1.443.258.713 0 1.394-.185 2.04-.556M622.137 394.256h.845l-2.864 2.368h-.865zm-5.274 3.996h5.543v.598h-4.863v8.405h4.059v.597h-4.059v5.254h4.863v.597h-5.543zM631.243 412.766a4.359 4.359 0 0 0 1.534-1.566 4.176 4.176 0 0 0 .568-2.132 4.16 4.16 0 0 0-.576-2.122 4.43 4.43 0 0 0-1.546-1.576 3.991 3.991 0 0 0-2.102-.587c-.756 0-1.46.199-2.112.598a4.551 4.551 0 0 0-1.565 1.586 4.082 4.082 0 0 0-.587 2.122c0 .755.195 1.46.587 2.111a4.47 4.47 0 0 0 1.576 1.566c.66.392 1.366.587 2.121.587.756 0 1.456-.195 2.102-.587zm-7.005-8.333h.66v2.266c.37-.742.947-1.342 1.73-1.803a4.803 4.803 0 0 1 2.473-.69c.892 0 1.712.22 2.462.659a4.98 4.98 0 0 1 1.782 1.772c.44.741.659 1.552.659 2.431s-.22 1.69-.66 2.431a4.973 4.973 0 0 1-1.781 1.772c-.75.438-1.57.659-2.462.659-.838 0-1.645-.227-2.42-.68-.777-.454-1.372-1.05-1.784-1.792v6.365h-.659zM636.537 404.433h.659v9.271h-.659zm-.174-2.328a.682.682 0 0 1-.217-.516c0-.19.072-.357.217-.494a.71.71 0 0 1 .504-.206c.192 0 .36.07.505.206a.661.661 0 0 1 .216.494.684.684 0 0 1-.216.516.712.712 0 0 1-.505.205.708.708 0 0 1-.504-.205M642.172 413.332a4.78 4.78 0 0 1-1.781-1.751c-.441-.741-.66-1.579-.66-2.513 0-.866.219-1.666.66-2.4a4.93 4.93 0 0 1 1.801-1.76 4.952 4.952 0 0 1 2.524-.66c.77 0 1.43.124 1.978.37.549.247 1.085.631 1.607 1.154v1.112c-.454-.673-.958-1.184-1.513-1.535-.557-.35-1.248-.525-2.072-.525-.755 0-1.466.195-2.132.587a4.494 4.494 0 0 0-1.596 1.577 4.026 4.026 0 0 0-.597 2.121c0 .824.192 1.562.576 2.215.384.653.903 1.16 1.556 1.524a4.25 4.25 0 0 0 2.11.546c1.539 0 2.763-.693 3.668-2.08v1.113a4.89 4.89 0 0 1-1.637 1.163c-.597.254-1.274.382-2.03.382a4.887 4.887 0 0 1-2.462-.64M651.7 411.911l6.037-5.994c-.454-.399-.894-.683-1.318-.856-.427-.17-.935-.258-1.526-.258-.837 0-1.583.183-2.234.546a4.015 4.015 0 0 0-1.536 1.494c-.37.632-.556 1.346-.556 2.142 0 1.141.378 2.115 1.133 2.926zm5.192.907a4.722 4.722 0 0 0 1.607-1.525v1.05c-.51.564-1.065.972-1.669 1.226-.604.255-1.29.382-2.06.382a4.552 4.552 0 0 1-2.4-.68 5.13 5.13 0 0 1-1.792-1.813 4.652 4.652 0 0 1-.67-2.41c0-.92.22-1.748.66-2.483a4.617 4.617 0 0 1 1.803-1.72c.761-.411 1.609-.618 2.543-.618 1.428 0 2.644.563 3.647 1.69l-6.47 6.386c.453.371.894.642 1.319.813.425.173.907.258 1.442.258.714 0 1.394-.185 2.04-.556M660.62 404.433h.66v2.142c.274-.672.676-1.2 1.205-1.587a3 3 0 0 1 1.803-.576c.425 0 .858.09 1.298.267v.763a2.169 2.169 0 0 0-1.34-.454c-.494 0-.971.153-1.432.454-.46.302-.83.708-1.112 1.216a3.301 3.301 0 0 0-.423 1.627v5.42h-.659zM667.686 404.433h.66v9.271h-.66zm-.175-2.328a.684.684 0 0 1-.216-.516.66.66 0 0 1 .216-.494.711.711 0 0 1 .506-.206c.192 0 .36.07.504.206a.659.659 0 0 1 .217.494.682.682 0 0 1-.217.516.708.708 0 0 1-.504.205.71.71 0 0 1-.506-.205M672.776 411.911l6.036-5.994c-.454-.399-.894-.683-1.319-.856-.426-.17-.934-.258-1.525-.258-.837 0-1.583.183-2.234.546a4.02 4.02 0 0 0-1.536 1.494c-.37.632-.556 1.346-.556 2.142 0 1.141.378 2.115 1.134 2.926zm5.191.907a4.72 4.72 0 0 0 1.607-1.525v1.05c-.51.564-1.065.972-1.669 1.226-.604.255-1.29.382-2.06.382a4.554 4.554 0 0 1-2.4-.68 5.132 5.132 0 0 1-1.792-1.813 4.65 4.65 0 0 1-.67-2.41c0-.92.22-1.748.66-2.483a4.62 4.62 0 0 1 1.802-1.72c.762-.411 1.61-.618 2.544-.618 1.428 0 2.644.563 3.647 1.69l-6.47 6.386c.453.371.894.642 1.319.813.425.173.907.258 1.442.258.714 0 1.394-.185 2.04-.556M365.982 407.124a.91.91 0 1 1-1.82-.002.91.91 0 0 1 1.82.002M402.277 407.124a.91.91 0 1 1-1.819-.001.91.91 0 0 1 1.82 0M499.268 407.124a.91.91 0 1 1-1.819 0 .91.91 0 0 1 1.819 0M612.385 407.202a.91.91 0 1 1-1.818 0 .91.91 0 0 1 1.818 0" fill="#8e6448"/></g></svg>