<svg xmlns="http://www.w3.org/2000/svg" width="1322.835" height="755.905" viewBox="0 0 992.126 566.929"><g data-name="Plan 1"><path d="M197.321 360.183v33.382c0 3.485.463 5.735 1.964 7.015 1.587 1.353 4.474 1.878 9.294 1.878h12.399c.642 0 1.102.13 1.497.522.417.413.543.878.479 1.507v.079c0 .648-.146 1.105-.582 1.501-.396.36-.84.48-1.464.48h-12.05c-5.416 0-9.3-.478-11.954-2.356-2.762-1.954-4.022-5.213-4.022-10.69v-33.318c0-.649.146-1.105.582-1.501.396-.36.84-.48 1.464-.48h.348c.623 0 1.067.12 1.463.48.437.396.582.852.582 1.501zm56.575 45.715c-.422-.417-.546-.887-.477-1.526v-.02c-1.49.68-3.264 1.288-5.318 1.755-2.572.583-5.58.945-9.007.945-4.485 0-7.832-.749-10.116-2.188-2.547-1.606-3.771-3.983-3.771-7.063 0-3.602 1.672-6.059 4.654-7.613 2.722-1.42 6.552-2.018 11.183-2.018 2.182 0 4.601.064 7.01.258 1.807.145 3.606.365 5.293.686v-6.17c0-2.702-.506-4.546-1.937-5.646-1.563-1.2-4.3-1.73-8.694-1.73-2.387 0-4.685.17-6.895.432-2.261.268-4.378.62-6.394.985-.748.17-1.3.052-1.757-.364-.437-.396-.582-.884-.582-1.517v-.127c0-.722.208-1.175.695-1.554.34-.264.664-.349 1.125-.453l.031-.01a80.453 80.453 0 0 1 7.236-1.1c2.178-.23 4.496-.38 6.819-.38 5.702 0 9.338.959 11.608 2.86 2.383 1.995 3.184 4.857 3.184 8.604v21.495c0 .65-.145 1.106-.582 1.502-.396.36-.84.48-1.463.48h-.349c-.642 0-1.101-.131-1.496-.523zm-22.203-4.322c1.614.941 4.16 1.388 7.68 1.388 3.027 0 5.736-.374 8.075-.972 2.378-.608 4.36-1.442 5.9-2.346v-6.27c-1.28-.322-2.817-.553-4.373-.718-3.321-.352-6.75-.4-8-.4-3.61 0-6.588.36-8.607 1.323-1.73.825-2.722 2.163-2.722 4.22 0 1.726.67 2.97 2.047 3.775zm62.86-29.022c.396-.332.845-.443 1.308-.443h.21c1.713 0 1.761.356 1.953 1.757l.006.045.01.069.033.385a23.777 23.777 0 0 1 4.707-1.91c2.31-.66 4.73-.978 7.29-.978 5.912 0 10.458 1.674 13.586 4.629 3.295 3.111 4.968 7.583 4.968 12.968 0 5.15-1.542 9.918-5.069 13.271-3.055 2.906-7.553 4.705-13.763 4.705-3.505 0-6.315-.552-8.538-1.314a19.844 19.844 0 0 1-2.93-1.27v12.679c0 .649-.145 1.105-.581 1.501-.396.36-.84.48-1.464.48h-.348c-.691 0-1.137-.13-1.532-.522-.434-.43-.513-.848-.513-1.459v-43.055c0-.702.254-1.192.667-1.538zm25.926 6.512c-2.353-2.221-5.882-3.498-10.617-3.498-2.037 0-3.931.234-5.865.83-1.782.547-3.625 1.406-5.672 2.67v20.185c1.27 1.151 2.845 2.01 4.575 2.609 2.187.758 4.628 1.102 7.031 1.102 4.865 0 8.264-1.394 10.502-3.588 2.659-2.608 3.752-6.405 3.752-10.363 0-4.156-1.227-7.606-3.706-9.947zm45.782-2.809c2.943 2.749 4.927 6.793 4.927 12.503 0 6.021-1.822 10.426-4.839 13.421-3.377 3.353-8.189 4.871-13.575 4.871-5.356 0-10.178-1.523-13.566-4.886-3.016-2.995-4.848-7.395-4.848-13.406 0-5.7 1.99-9.739 4.933-12.487 3.708-3.461 8.896-4.794 13.481-4.794 4.618 0 9.792 1.329 13.487 4.778zm-3.128 22.934c2.27-2.294 3.616-5.738 3.616-10.431 0-4.375-1.465-7.446-3.633-9.503-2.79-2.647-6.778-3.69-10.342-3.69-3.564 0-7.552 1.043-10.342 3.69-2.168 2.057-3.633 5.128-3.633 9.503 0 4.693 1.347 8.137 3.616 10.43 2.485 2.512 6.128 3.71 10.36 3.71 4.23 0 7.874-1.198 10.358-3.71zm20.017 6.75c-.397.36-.84.48-1.464.48h-.348c-.624 0-1.067-.12-1.464-.48-.436-.396-.581-.853-.581-1.502v-30.347c0-.649.145-1.105.581-1.501.397-.36.84-.48 1.464-.48h.348c.624 0 1.067.12 1.464.48.436.396.581.852.581 1.501v.927a18.297 18.297 0 0 1 3.378-1.928c2.527-1.113 5.115-1.612 7.045-1.612 1.078 0 1.842.018 2.414.045.586.027.9.063 1.13.097l.063.016c.533.107.877.204 1.219.49.484.405.632.837.632 1.523v.19c0 .727-.17 1.186-.727 1.575-.409.285-.805.342-1.387.342-.11 0-.343-.014-.664-.034a39.559 39.559 0 0 0-2.61-.092c-1.921 0-3.98.534-5.881 1.458-1.763.856-3.377 2.04-4.612 3.435v23.915c0 .65-.145 1.106-.581 1.502zm27.225-1.987c-1.625-2.083-2.031-5.108-2.031-9.378V376.2h-6.662c-.623 0-1.067-.12-1.463-.48-.436-.396-.582-.852-.582-1.501v-.127c0-.649.146-1.105.582-1.501.396-.36.84-.48 1.463-.48h6.662v-5.226c0-.552.108-.973.404-1.365.29-.383.661-.602 1.183-.745l-.002-.003.418-.126v.001c.69-.226 1.216-.195 1.706.138.547.373.73.877.73 1.594v5.732h13c.623 0 1.067.12 1.463.48.436.396.582.852.582 1.501v.127c0 .649-.146 1.105-.582 1.501-.396.36-.84.48-1.463.48h-13v18.06c0 3.37.26 5.656 1.189 6.984.84 1.2 2.436 1.72 5.194 1.72 1.055 0 2.161-.078 3.235-.203a36.503 36.503 0 0 0 3.515-.588h.021c.694-.14 1.196-.085 1.65.232.557.389.728.883.728 1.591v.19c0 .439-.055.79-.246 1.138-.268.485-.65.755-1.237.871l.001.004a39.35 39.35 0 0 1-3.805.634c-1.14.132-2.36.22-3.584.22-4.633 0-7.394-.95-9.07-3.099zm53.246-14.54c-.51.426-1.147.568-2.1.568h-26.98c.182 4.7 1.636 7.88 4.203 9.881 2.826 2.205 7.081 3.1 12.537 3.1 1.535 0 3.36-.084 5.196-.21 2.342-.162 4.722-.391 6.568-.6.61-.07 1.09.008 1.52.313.52.371.742.874.742 1.594v.126c0 .63-.136 1.07-.545 1.473-.36.353-.767.495-1.353.561-1.545.208-3.807.434-6.144.596-2.025.141-4.109.236-5.844.236-6.78 0-12.055-1.259-15.692-4.143-3.714-2.946-5.648-7.478-5.648-13.96 0-12.606 7.167-17.47 17.578-17.47 5.053 0 9.35 1.175 12.344 3.782 2.786 2.426 4.399 6.02 4.399 10.97v1.138c0 .921-.184 1.544-.781 2.044zm-6.659-11.086c-2.155-1.936-5.407-2.76-9.303-2.76-3.648 0-6.829.722-9.122 2.542-2.016 1.599-3.4 4.101-3.883 7.784h25.3c-.11-3.49-1.192-5.949-2.992-7.566zm47.314-5.695c.389.385.53.832.53 1.46v30.346c0 .627-.141 1.074-.53 1.46-.396.39-.838.521-1.445.521h-.488c-.607 0-1.05-.13-1.444-.522-.324-.32-.476-.682-.519-1.155a44.557 44.557 0 0 1-5.533 1.478c-2.496.503-5.137.831-7.549.831-2.19 0-5.749-.259-8.825-1.902-3.207-1.712-5.828-4.837-5.828-10.51v-20.548c0-.649.146-1.105.582-1.501.396-.36.84-.48 1.464-.48h.348c.624 0 1.067.12 1.464.48.436.396.581.852.581 1.501v20.548c0 3.863 1.757 5.923 3.836 7.012 2.206 1.157 4.827 1.312 6.239 1.312 2.19 0 4.618-.28 7.011-.77a41.047 41.047 0 0 0 6.197-1.767v-26.335c0-.649.146-1.105.582-1.501.397-.36.84-.48 1.464-.48h.418c.607 0 1.05.13 1.445.522zm34.014.205c.434.43.513.818.513 1.444v.19c0 .666-.157 1.137-.63 1.53-.43.359-.907.451-1.563.377l-.063-.01a60.881 60.881 0 0 0-5.21-.633 64.346 64.346 0 0 0-4.958-.168c-3.379 0-5.783.465-7.34 1.273-1.397.724-2.038 1.746-2.038 2.941 0 3.629 4.425 4.817 10.496 6.446l.345.092h.005c4.215 1.145 7.347 2.137 9.513 3.691 2.372 1.702 3.533 3.945 3.533 7.474 0 3.625-1.597 6.06-4.447 7.594-2.61 1.405-6.27 1.973-10.693 1.973-2.456 0-4.702-.096-6.765-.25a97.359 97.359 0 0 1-5.572-.584v.002c-.586-.066-.994-.208-1.353-.561-.41-.402-.545-.844-.545-1.473v-.19c0-.892.315-1.403.906-1.725.476-.259.883-.24 1.371-.177l.001-.005.142.018c3.461.431 6.877.857 11.815.857 3.57 0 6.443-.372 8.365-1.302 1.634-.79 2.545-2.046 2.545-3.924 0-2.206-.655-3.585-1.965-4.563-1.49-1.113-3.862-1.852-7.049-2.666-3.667-.937-7.232-1.893-9.96-3.369-3.017-1.632-4.987-3.853-4.987-7.231 0-2.818 1.357-4.974 3.904-6.42 2.333-1.325 5.688-2.01 9.913-2.01 2.112 0 3.886.065 5.559.195 1.633.127 3.185.322 4.885.585l.058.01c.579.117.927.231 1.269.57zm41.112 16.575c-.509.427-1.147.57-2.1.57h-26.98c.182 4.698 1.636 7.878 4.203 9.88 2.827 2.205 7.082 3.1 12.538 3.1 1.534 0 3.359-.084 5.196-.21 2.342-.162 4.722-.391 6.567-.6.611-.07 1.091.008 1.52.313.52.371.742.874.742 1.594v.126c0 .63-.136 1.07-.544 1.473-.36.353-.768.495-1.353.561-1.546.208-3.808.434-6.144.596-2.026.141-4.11.236-5.845.236-6.78 0-12.054-1.259-15.691-4.143-3.715-2.946-5.648-7.478-5.648-13.96 0-5.918 1.642-10.15 4.5-12.988 3.149-3.128 7.69-4.482 13.078-4.482 5.053 0 9.349 1.175 12.343 3.782 2.786 2.426 4.4 6.02 4.4 10.97v1.138c0 .921-.185 1.544-.782 2.044zm-6.658-11.085c-2.155-1.936-5.408-2.76-9.303-2.76-3.648 0-6.83.722-9.123 2.542-2.015 1.599-3.4 4.101-3.883 7.784h25.3c-.11-3.49-1.192-5.949-2.991-7.566zm44.843-2.103c3.029-2.939 7.474-4.746 13.557-4.746 3.708 0 6.597.677 8.861 1.607 1.106.454 2.06.97 2.885 1.496v-16.295c0-.65.146-1.106.582-1.502.397-.36.84-.48 1.464-.48h.348c.624 0 1.067.12 1.463.48.437.396.582.853.582 1.502v46.152c0 .65-.145 1.106-.582 1.502-.396.36-.84.48-1.463.48h-.418c-.642 0-1.102-.131-1.497-.523-.352-.348-.497-.735-.494-1.226a29.46 29.46 0 0 1-4.638 1.544 29.714 29.714 0 0 1-7.023.836c-5.963 0-10.518-1.665-13.65-4.599-3.312-3.104-4.973-7.568-4.973-12.935 0-5.191 1.547-9.947 4.996-13.293zm25.303 23.848v-20.15c-1.303-1.374-2.92-2.398-4.726-3.105-2.178-.853-4.635-1.25-7.16-1.25-4.74 0-8.072 1.396-10.273 3.594-2.611 2.607-3.7 6.4-3.7 10.356 0 4.186 1.223 7.635 3.713 9.965 2.369 2.216 5.936 3.48 10.748 3.48 2.183 0 4.19-.282 6.146-.824 1.739-.482 3.462-1.176 5.252-2.066zm20.158-41.558a3.087 3.087 0 0 1 1.073 2.364c0 1.122-.608 2.182-1.46 3.099-1.015 1.093-2.426 2.027-3.381 2.522l-.01.006c-.473.238-.814.382-1.223.403-.764.038-1.22-.252-1.609-.957l-.07-.126c-.335-.608-.412-1.08-.094-1.7.206-.4.518-.65 1.029-.94l.01-.005.26-.145c.143-.079.295-.162.45-.252a2.534 2.534 0 0 1-.327-.34c-.452-.568-.59-1.238-.59-1.881 0-.943.48-1.668 1.167-2.17.677-.496 1.591-.76 2.34-.76.932 0 1.798.321 2.435.882zm39.374 30.898c-.51.427-1.147.57-2.1.57h-26.98c.182 4.698 1.636 7.878 4.203 9.88 2.827 2.205 7.082 3.1 12.538 3.1 1.534 0 3.359-.084 5.195-.21 2.343-.162 4.723-.391 6.568-.6.61-.07 1.09.008 1.52.313.52.371.742.874.742 1.594v.126c0 .63-.136 1.07-.545 1.473-.359.353-.767.495-1.352.561-1.546.208-3.808.434-6.144.596-2.026.141-4.11.236-5.845.236-6.78 0-12.054-1.259-15.692-4.143-3.714-2.946-5.648-7.478-5.648-13.96 0-12.606 7.167-17.47 17.579-17.47 5.053 0 9.348 1.175 12.343 3.782 2.786 2.426 4.399 6.02 4.399 10.97v1.138c0 .921-.184 1.544-.78 2.044zm-6.659-11.085c-2.155-1.936-5.407-2.76-9.303-2.76-3.648 0-6.829.722-9.122 2.542-2.015 1.599-3.4 4.101-3.883 7.784h25.3c-.11-3.49-1.192-5.949-2.991-7.566zm41.516 27.57c-.421-.417-.545-.887-.477-1.526v-.02c-1.489.68-3.263 1.288-5.318 1.755-2.572.583-5.579.945-9.007.945-4.485 0-7.831-.749-10.115-2.188-2.547-1.606-3.771-3.983-3.771-7.063 0-3.602 1.671-6.059 4.654-7.613 2.722-1.42 6.551-2.018 11.182-2.018 2.183 0 4.602.064 7.01.258 1.807.145 3.607.365 5.294.686v-6.17c0-2.702-.507-4.546-1.937-5.646-1.563-1.2-4.301-1.73-8.695-1.73-2.387 0-4.684.17-6.894.432-2.262.268-4.379.62-6.394.985-.75.17-1.3.052-1.758-.364-.436-.396-.582-.884-.582-1.517v-.127c0-.722.209-1.175.696-1.554.34-.264.664-.349 1.124-.453l.032-.01a80.453 80.453 0 0 1 7.235-1.1c2.178-.23 4.497-.38 6.82-.38 5.702 0 9.337.959 11.608 2.86 2.383 1.995 3.184 4.857 3.184 8.604v21.495c0 .65-.146 1.106-.582 1.502-.396.36-.84.48-1.463.48h-.349c-.642 0-1.102-.131-1.497-.523zm-22.202-4.322c1.614.941 4.16 1.388 7.679 1.388 3.028 0 5.737-.374 8.076-.972 2.377-.608 4.36-1.442 5.899-2.346v-6.27c-1.279-.322-2.816-.553-4.372-.718-3.322-.352-6.75-.4-8.001-.4-3.608 0-6.587.36-8.606 1.323-1.731.825-2.722 2.163-2.722 4.22 0 1.726.67 2.97 2.047 3.775zm67.36-28.943c.389.385.53.832.53 1.46v30.346c0 .627-.141 1.074-.53 1.46-.395.39-.838.521-1.445.521h-.488c-.607 0-1.05-.13-1.444-.522-.324-.32-.476-.682-.519-1.155a44.569 44.569 0 0 1-5.533 1.478c-2.495.503-5.137.831-7.549.831-2.19 0-5.749-.259-8.825-1.902-3.207-1.712-5.828-4.837-5.828-10.51v-20.548c0-.649.146-1.105.582-1.501.396-.36.84-.48 1.464-.48h.348c.624 0 1.067.12 1.463.48.437.396.582.852.582 1.501v20.548c0 3.863 1.757 5.923 3.836 7.012 2.207 1.157 4.827 1.312 6.239 1.312 2.19 0 4.618-.28 7.011-.77a41.047 41.047 0 0 0 6.198-1.767v-26.335c0-.649.145-1.105.582-1.501.396-.36.84-.48 1.463-.48h.418c.607 0 1.05.13 1.445.522M141.887 147.638h36.865l-5.675 167.272h35.262l5.674-167.272h36.865l.946-27.879H142.832zm213.223-27.879h-51.611L260.975 314.91h32.377l7.292-35.406h43.276l4.89 35.406h35.582zm-29.062 34.57h.64l13.322 98.69h-33.98zm156.39-34.57h-53.214l-6.62 195.151h55.457c35.262 0 54.083-16.17 55.104-46.278l.539-15.891c.7-20.63-6.181-35.128-24.877-41.54l.019-.557c15.925-6.412 23.403-18.958 24.084-39.03l.237-6.97c1.021-30.11-14.185-44.885-50.73-44.885zm-5.886 107.333c16.028 0 22.571 5.576 21.956 23.697l-.577 17.006c-.491 14.497-7.064 19.237-18.924 19.237H458.81l2.034-59.94zm3.978-79.454c12.502 0 17.743 6.133 17.27 20.073l-.368 10.872c-.53 15.612-8.714 20.63-21.858 20.63H461.79l1.75-51.575zm178.923-27.879h-51.61L565.317 314.91h32.377l7.292-35.406h43.276l4.89 35.406h35.582zm-29.062 34.57h.641l13.321 98.69h-33.98zm167.624 87.818-.946 27.878c-.472 13.94-7.695 18.958-18.915 18.958-11.22 0-18.102-5.018-17.629-18.958l3.576-105.381c.473-13.94 7.705-19.236 18.924-19.236 11.22 0 18.093 5.296 17.62 19.236l-.71 20.909h33.34l.642-18.958c1.06-31.224-16.287-49.066-50.907-49.066-34.621 0-53.178 17.842-54.238 49.066l-3.442 101.48c-1.06 31.223 16.286 49.066 50.907 49.066 34.621 0 53.178-17.843 54.237-49.067l.88-25.927z" fill="#1a1a18"/></g></svg>