<svg xmlns="http://www.w3.org/2000/svg" xmlns:xlink="http://www.w3.org/1999/xlink" width="1322.835" height="755.905" viewBox="0 0 992.126 566.929"><g data-name="Plan 1"><path d="m255.066 213.153 2.697 20.17.258 2.095-.258.86c-.287.488-.689.775-1.263.832-.66.058-1.664-1.118-3.013-3.528-10.472-18.363-24.703-27.544-42.635-27.544-14.288 0-25.564 4.39-33.798 13.198-8.235 8.78-12.367 20.8-12.367 36.036 0 17.56 4.591 31.876 13.744 43.009 9.181 11.103 20.944 16.67 35.347 16.67 8.436 0 16.7-2.239 24.819-6.743 8.12-4.476 13.772-9.927 16.899-16.326 1.463-2.955 2.582-4.476 3.357-4.533.89-.057 1.348.488 1.348 1.607l-.086.918-.344 1.836-1.923 10.272-.344 1.52c-.23 1.464-1.55 2.984-3.96 4.533-12.939 8.235-27.199 12.367-42.778 12.367-18.018 0-32.565-5.366-43.61-16.067-11.047-10.702-16.556-24.79-16.556-42.263s5.71-32.02 17.158-43.582c11.419-11.563 25.764-17.359 43.037-17.359 11.82 0 22.666 2.669 32.593 7.977l3.357 1.778 1.349.574 1.434.517c.287 0 .689-.23 1.263-.66 1.233-.89 2.065-1.349 2.524-1.349.89 0 1.464 1.062 1.75 3.185M292.394 227.766v75.516c0 3.538.417 6.24 1.23 8.13.945 2.131 3.603 3.581 7.976 4.306 1.208.22 1.823.66 1.867 1.34.044.99-.417 1.472-1.362 1.472-.373 0-.945-.087-1.67-.263-.637-.132-1.604-.198-2.9-.198l-5.603.066h-3.34c-4.086 0-6.591.066-7.536.198-1.384.197-2.197.307-2.46.307-1.121 0-1.692-.417-1.736-1.274-.044-.725.549-1.252 1.801-1.604 1.934-.55 3.23-1.296 3.911-2.219.66-.923.989-2.417.989-4.482v-71.364c0-3.955-1.384-5.932-4.13-5.932l-3.209.131c-.439 0-.79-.044-1.098-.131-.506-.22-.77-.55-.77-1.033 0-.616.55-1.055 1.67-1.362 1.473-.352 2.791-.747 4-1.23l3.932-1.605c3.01-1.208 5.098-2.219 6.24-3.098.528-.33.945-.505 1.297-.505.637-.044.966.9.966 2.834zM338.205 264.129c7.712 0 14.347 2.724 19.884 8.151 5.537 5.427 8.305 11.887 8.305 19.401 0 8.152-2.724 14.897-8.173 20.214-5.45 5.317-12.348 7.976-20.676 7.976-8.151 0-14.852-2.593-20.103-7.756-5.252-5.163-7.889-11.8-7.889-19.863 0-7.8 2.79-14.435 8.372-19.906 5.58-5.47 12.326-8.217 20.28-8.217zm-1.67 2.57c-5.361 0-9.69 1.978-12.963 5.955-3.274 3.976-4.922 9.184-4.922 15.621 0 8.196 2.043 15.051 6.152 20.566 4.087 5.515 9.184 8.283 15.27 8.283 5.317 0 9.514-1.955 12.59-5.866 3.054-3.911 4.592-9.206 4.592-15.908 0-8.459-1.933-15.336-5.8-20.675-3.845-5.317-8.833-7.976-14.92-7.976M393.815 264.129c3.406 0 6.328.44 8.767 1.34l2.834.967c1.165.44 1.736 1.098 1.736 2v1.032c0 .593.044 1.208.132 1.802l.241 2.504c.132.901.198 1.736.198 2.461 0 1.67-.483 2.527-1.428 2.57-.527.045-.989-.505-1.428-1.67-2.351-6.525-6.767-9.799-13.25-9.799-2.57 0-4.68.726-6.327 2.198-1.648 1.45-2.483 3.295-2.483 5.537 0 2.35.88 4.262 2.637 5.734 1.758 1.45 5.36 3.23 10.766 5.34 5.361 2.109 9.074 4.328 11.162 6.657 2.087 2.35 3.12 5.492 3.12 9.426 0 4.855-1.802 9.008-5.383 12.457-3.582 3.45-7.866 5.186-12.832 5.186-3.56 0-7.426-1.01-11.6-3.032-.99-.462-1.605-.704-1.869-.704l-1.67-.197c-.988-.088-1.515-.615-1.603-1.604l-.066-2.769-.198-8.217.132-1.933c.176-1.165.637-1.758 1.428-1.802.769-.044 1.274.593 1.538 1.933.9 4.724 2.659 8.394 5.251 11.052 2.593 2.659 5.713 3.999 9.36 3.999 3.142 0 5.713-.923 7.712-2.768 2-1.846 2.988-4.219 2.988-7.097 0-4.373-2.416-7.625-7.228-9.778l-5.647-2.504c-5.163-2.241-8.81-4.549-10.964-6.921-2.131-2.395-3.208-5.296-3.208-8.723 0-4.13 1.648-7.602 4.966-10.437 3.296-2.834 7.382-4.24 12.216-4.24M492.731 295.44l.086 2.926c0 6.743.631 10.731 1.923 11.965 1.29 1.234 5.508 1.836 12.624 1.836 10.5 0 19.596-1.234 27.285-3.73 7.718-2.496 12.653-5.795 14.776-9.898.775-1.52 1.578-2.267 2.353-2.267.89 0 1.32.574 1.262 1.693-.23 3.701-2.037 7.747-5.48 12.194-4.82 6.111-12.624 9.152-23.44 9.152-1.808 0-3.874-.086-6.227-.258l-9.095-.66c-5.308-.401-10.96-.602-16.9-.602-6.885 0-12.652.344-17.329 1.004-1.95.287-3.529.459-4.705.516-1.406.058-2.094-.43-2.094-1.492 0-.889.746-1.578 2.266-2.008 3.873-1.176 6.484-2.898 7.804-5.165 1.32-2.266 1.98-6.11 1.98-11.476l.086-3.873v-75.172c0-7.46-3.041-11.82-9.095-13.055l-3.787-.745c-1.349-.287-2.009-.833-2.009-1.665 0-1.29.947-1.922 2.87-1.922 1.262 0 3.04.115 5.279.344 3.815.316 8.09.488 12.853.488 5.136 0 9.813-.143 14.03-.43 2.123-.115 3.328-.172 3.615-.172 1.349 0 2.009.43 2.009 1.262 0 1.205-.804 2.009-2.439 2.41l-2.926.66c-5.05 1.234-7.575 6.255-7.575 15.063zM587.837 289.88v-7.976c0-4.922-.923-8.35-2.768-10.217-2.483-2.57-5.845-3.867-10.041-3.867-5.669 0-8.503 2.395-8.503 7.207 0 1.406.285 3.032.856 4.877.242.77.396 1.45.44 2.044.044.769-.395 1.164-1.274 1.164-2.022 0-3.845-.44-5.493-1.296-1.648-.857-2.483-1.802-2.483-2.835 0-2.658 1.428-5.536 4.307-8.612 3.867-4.153 8.986-6.24 15.38-6.24 5.844 0 10.37 1.296 13.578 3.889 3.23 2.592 4.834 6.262 4.834 10.985v25.224c0 3.999.483 6.833 1.45 8.525.967 1.692 2.593 2.549 4.856 2.549.659 0 1.164-.044 1.56-.132.769-.198 1.274-.308 1.538-.308.725-.044 1.077.264 1.032.901-.044.769-1.054 1.56-3.032 2.351-1.977.791-3.91 1.187-5.8 1.187-3.516 0-6.702-2.176-9.536-6.504-6.218 4.724-11.997 7.075-17.313 7.075-4.021 0-7.23-1.077-9.602-3.252-2.395-2.175-3.582-5.076-3.582-8.723 0-4.922 2.242-8.766 6.746-11.491 4.504-2.724 12.128-4.9 22.85-6.525zm0 2.526c-6.68.593-11.842 2.11-15.49 4.526-3.647 2.44-5.47 5.515-5.47 9.294 0 2.967.878 5.296 2.614 7.031 1.736 1.736 4.065 2.615 7.03 2.615 3.604 0 6.614-1.187 9.075-3.538 1.494-1.494 2.241-3.889 2.241-7.14zM630.968 274.368c5.756-6.834 11.71-10.24 17.907-10.24 6.855 0 12.304 2.813 16.28 8.438 2.747 3.867 4.132 9.755 4.132 17.643v15.402l-.067 1.912.198 3.098c.462 2.834 2.263 4.482 5.405 4.965l2.703.374c1.164.175 1.757.615 1.801 1.296.044.945-.659 1.406-2.13 1.406-.462 0-1.297-.065-2.506-.198-1.406-.175-4.02-.263-7.843-.263l-6.372.198h-2.46l-1.847.131-.9-.197c-.308-.176-.462-.484-.462-.967 0-.637.396-1.055 1.165-1.23l1.933-.506c1.714-.44 2.57-1.977 2.57-4.636v-22.213c0-5.976-1.384-10.569-4.13-13.82-2.746-3.23-6.657-4.856-11.71-4.856-3.582 0-6.746 1.055-9.514 3.164-2.769 2.087-4.153 4.504-4.153 7.207v24.52l.066 1.933.066 3.208c.22 3.626 3.186 5.581 8.942 5.933 1.428.132 2.131.593 2.131 1.362 0 .769-.483 1.165-1.472 1.165-.747 0-1.823-.11-3.296-.33-.813-.088-2.834-.132-6.041-.132-6.834 0-10.899.088-12.239.264-1.34.131-2.197.198-2.57.198-.814 0-1.209-.352-1.165-1.033.044-.528.461-.923 1.23-1.23 2.175-.77 3.648-1.714 4.417-2.835.747-1.12 1.12-2.922 1.12-5.405v-29.09c0-3.055-.373-5.12-1.098-6.218-.725-1.1-2.11-1.648-4.131-1.648l-2.769.066c-.373 0-.724-.088-1.032-.264-.374-.176-.571-.462-.571-.9 0-.616.549-1.012 1.67-1.231a32.654 32.654 0 0 0 8.305-2.637l3.405-1.67c1.34-.637 2.176-1.054 2.527-1.23.593-.33 1.12-.506 1.538-.506.77 0 1.12.616 1.033 1.868a39.398 39.398 0 0 0-.066 2.461zM728.742 310.291c-4.372 3.78-7.932 6.306-10.656 7.624-2.725 1.297-5.8 1.956-9.228 1.956-6.482 0-11.93-2.527-16.325-7.603-4.394-5.053-6.592-11.315-6.592-18.785 0-8.24 2.637-15.183 7.888-20.851 5.251-5.67 11.69-8.503 19.335-8.503 5.185 0 10.393 1.516 15.578 4.57v-25.421c0-8.152-2.197-12.107-6.57-11.843l-2.262.132c-.286 0-.572-.044-.836-.132-.417-.176-.659-.506-.702-.967-.088-.879.527-1.384 1.867-1.56 4.416-.55 9.448-2.526 15.073-5.932.483-.286.878-.44 1.23-.44.637 0 .967.462.967 1.407l.065 1.164v81.845c0 4.855 1.473 7.272 4.439 7.272l3.801-.132.593.066c.462.176.703.505.703 1.01 0 .946-.769 1.495-2.329 1.67-1.757.176-2.878.308-3.34.396l-3.603.571c-2.834.44-4.746.88-5.69 1.363-.813.461-1.45.703-1.934.703-.989.044-1.472-1.033-1.472-3.208zm0-7.8v-21.225c0-3.867-.945-6.7-2.834-8.503-4.24-4.064-9.272-6.108-15.117-6.108-5.185 0-9.382 1.978-12.568 5.933-3.185 3.933-4.79 9.14-4.79 15.556 0 7.053 2.088 13.16 6.262 18.324 4.197 5.163 9.14 7.756 14.831 7.756 4.197 0 7.625-1.077 10.261-3.252 2.637-2.175 3.955-5.01 3.955-8.48M772.268 275.84c4.988-7.8 9.58-11.711 13.776-11.711 1.34 0 3.077.79 5.252 2.373 2.175 1.604 3.295 2.878 3.383 3.867.044.637-.637 1.823-2.065 3.56-1.406 1.735-2.417 2.614-3.01 2.657-.308 0-1.253-.505-2.835-1.537-1.845-1.297-3.603-1.934-5.273-1.934-2.615 0-4.812.945-6.57 2.812-1.757 1.868-2.636 4.219-2.636 7.01v22.982c0 3.603.483 6.152 1.45 7.69.967 1.516 2.659 2.395 5.054 2.593l3.34.263c1.384.088 2.065.506 2.065 1.275 0 .857-.593 1.296-1.802 1.296-.308 0-1.318-.11-3.032-.308-.813-.088-2.021-.131-3.603-.131l-4.636-.067h-2.835c-3.34 0-5.734.11-7.14.308-1.121.176-1.89.286-2.33.33-1.164.044-1.735-.374-1.735-1.275 0-.725.659-1.208 2-1.472 1.845-.44 3.031-1.23 3.559-2.373.549-1.164.813-3.647.813-7.426v-27.619c0-4.943-2.351-7.404-7.075-7.404l-2.197.066c-.99 0-1.473-.44-1.473-1.296 0-.528.33-.901.967-1.165a9.826 9.826 0 0 1 1.406-.198c4.043-.373 8.789-2.263 14.282-5.668.571-.286 1.055-.462 1.494-.506.967-.044 1.472.681 1.472 2.198l-.066 1.208zM830.603 308.995l9.668-26.586c1.032-2.878 1.538-5.405 1.538-7.602 0-2.044-.462-3.537-1.407-4.46-.944-.923-2.79-1.714-5.493-2.351-1.032-.22-1.537-.66-1.537-1.363 0-.769.439-1.142 1.296-1.098.55.044 1.406.11 2.57.198.945.088 2.879.131 5.78.131 3.229 0 5.47-.043 6.766-.131 1.45-.088 2.417-.132 2.9-.132.902 0 1.34.373 1.34 1.098 0 .572-.438 1.033-1.34 1.429-1.691.637-2.878 1.362-3.58 2.197-.704.813-1.45 2.263-2.22 4.372L824.1 338.942l-.638 2.043c-.351 1.121-.747 1.758-1.23 1.934-.461.176-1.978.264-4.504.264-2.922 0-4.373-.308-4.373-.901 0-.352.264-.747.77-1.23 2.966-2.967 5.58-6.526 7.821-10.657 2.264-4.153 3.384-7.47 3.384-9.953 0-1.296-.813-3.845-2.439-7.668l-16.15-37.484c-1.076-2.483-2.02-4.196-2.877-5.14-.835-.946-2-1.605-3.494-2-.945-.264-1.428-.66-1.428-1.209 0-.945.615-1.406 1.867-1.406.901 0 2.044.066 3.406.198 1.033.131 3.208.197 6.504.197 4.02 0 6.855-.066 8.503-.197 1.054-.088 1.823-.132 2.307-.132 1.164-.044 1.736.373 1.736 1.274 0 .77-1.165 1.318-3.472 1.67-2.57.395-3.867 1.45-3.867 3.23 0 1.538.681 3.91 2.065 7.14z"/><symbol id="a"><path d="M.468.445h.096L.562.449a.266.266 0 0 1-.176.134A.278.278 0 0 1 .182.56C.039.467 0 .341.065.182.159.039.285 0 .443.066c.051.025.09.062.117.112H.464A.232.232 0 0 0 .377.124a.176.176 0 0 0-.144.007.208.208 0 0 0-.073.054C.09.287.098.381.185.469c.101.07.196.062.283-.024z"/></symbol><symbol id="b"><path d="M.306.559A.276.276 0 0 1 .035.365C0 .199.06.083.217.017A.27.27 0 0 1 .314.001c.17.019.262.113.275.284C.571.454.476.546.306.559M.307.483C.421.476.489.417.51.304.513.182.454.108.333.082L.299.08C.177.094.111.162.101.285c.014.123.083.189.206.198z"/></symbol><symbol id="c"><path d="M0 0h.079v.249L.261 0h.105L.213.2c.09.011.14.061.151.15a.194.194 0 0 1-.033.119.165.165 0 0 1-.115.063l-.03.003H0V0m.079.259V.46h.093A.133.133 0 0 0 .255.431C.293.388.295.344.261.298A.12.12 0 0 0 .214.269.21.21 0 0 0 .164.26 1.198 1.198 0 0 0 .079.259z"/></symbol><symbol id="d"><path d="M.079.179H0V.175L.001.161a.157.157 0 0 1 .043-.1.18.18 0 0 1 .179-.042.168.168 0 0 1 .109.119A.15.15 0 0 1 .3.286a.175.175 0 0 1-.091.052C.191.341.173.346.156.35a.095.095 0 0 0-.021.009.052.052 0 0 0-.023.021.049.049 0 0 0-.009.033.075.075 0 0 0 .036.068.083.083 0 0 0 .078-.003.065.065 0 0 0 .028-.037L.249.418H.33C.32.507.27.557.181.568.086.562.033.512.021.418A.143.143 0 0 1 .103.281.591.591 0 0 1 .185.257.105.105 0 0 0 .22.244L.222.243C.261.213.269.176.248.132A.093.093 0 0 0 .17.089C.114.094.084.124.079.179z"/></symbol><symbol id="e"><path d="M0 0h.296v.074H.08v.159h.21v.075H.08V.46h.215v.075H0V0z"/></symbol><symbol id="f"><path d="M0 0z"/></symbol><symbol id="g"><path d="M.486 0 .279.535H.207L0 0h.084l.061.158h.196L.402 0h.084M.314.232H.173l.071.204.07-.204z"/></symbol><symbol id="h"><path d="M0 0h.27v.075H.081v.46H0V0z"/></symbol><symbol id="i"><path d="M.22 0h.048l.218.535H.399L.244.138.087.535H0L.22 0z"/></symbol><symbol id="j"><path d="M0 0h.078v.535H0V0z"/></symbol><use xlink:href="#a" transform="matrix(62.94 0 0 -62.94 294.296 418.696)" fill="#1a1a18"/><use xlink:href="#b" transform="matrix(62.94 0 0 -62.94 342.27 416.87)" fill="#1a1a18"/><use xlink:href="#c" transform="matrix(62.94 0 0 -62.94 393.894 415.863)" fill="#1a1a18"/><use xlink:href="#d" transform="matrix(62.94 0 0 -62.94 432.574 417.374)" fill="#1a1a18"/><use xlink:href="#e" transform="matrix(62.94 0 0 -62.94 470.645 415.863)" fill="#1a1a18"/><use xlink:href="#f" transform="matrix(62.94 0 0 -62.94 492.422 415.863)" fill="#1a1a18"/><use xlink:href="#f" transform="matrix(62.94 0 0 -62.94 504.696 415.863)" fill="#1a1a18"/><use xlink:href="#a" transform="matrix(62.94 0 0 -62.94 538.573 418.696)" fill="#1a1a18"/><use xlink:href="#g" transform="matrix(62.94 0 0 -62.94 584.428 415.863)" fill="#1a1a18"/><use xlink:href="#h" transform="matrix(62.94 0 0 -62.94 631.846 415.863)" fill="#1a1a18"/><use xlink:href="#i" transform="matrix(62.94 0 0 -62.94 658.493 415.863)" fill="#1a1a18"/><use xlink:href="#j" transform="matrix(62.94 0 0 -62.94 705.428 415.863)" fill="#1a1a18"/><path d="M265.96 355.743h472.705v5.66H265.96z" fill-rule="evenodd"/></g></svg>