<svg xmlns="http://www.w3.org/2000/svg" width="1322.835" height="755.905" viewBox="0 0 992.126 566.929"><g data-name="Plan 1"><path d="M579.188 264.056c0-36.2-14.769-64.384-44.227-84.577-17.094-11.91-36.74-17.839-58.998-17.839-36.207 0-64.159 14.5-83.826 43.459-12.389 18.126-18.603 37.776-18.603 58.957 0 35.745 14.75 63.69 44.232 83.864 18.126 12.453 37.498 18.628 58.197 18.628 28.443 0 52.746-9.987 72.927-29.919 20.189-19.88 30.298-44.06 30.298-72.573zM771.896 471.04H661.058l-27.06-73.015c-41.322 48.627-94.043 73.015-158.062 73.015-57.866 0-106.77-20.21-146.842-60.51-40.006-40.337-60.03-89.14-60.03-146.553 0-43.929 12.388-83.62 37.17-119.08 24.853-35.368 57.947-60.545 99.256-75.563 24.295-8.807 48.071-13.185 71.36-13.185 43.912 0 83.558 12.554 118.97 37.585 35.4 25.063 60.634 58.252 75.591 99.576z"/><path stroke-width="20.08863678" stroke-miterlimit="10" fill="none" stroke="#fff" d="M579.188 264.056c0-36.2-14.769-64.384-44.227-84.577-17.094-11.91-36.74-17.839-58.998-17.839-36.207 0-64.159 14.5-83.826 43.459-12.389 18.126-18.603 37.776-18.603 58.957 0 35.745 14.75 63.69 44.232 83.864 18.126 12.453 37.498 18.628 58.197 18.628 28.443 0 52.746-9.987 72.927-29.919 20.189-19.88 30.298-44.06 30.298-72.573zM771.896 471.04H661.058l-27.06-73.015c-41.322 48.627-94.043 73.015-158.062 73.015-57.866 0-106.77-20.21-146.842-60.51-40.006-40.337-60.03-89.14-60.03-146.553 0-43.929 12.388-83.62 37.17-119.08 24.853-35.368 57.947-60.545 99.256-75.563 24.295-8.807 48.071-13.185 71.36-13.185 43.912 0 83.558 12.554 118.97 37.585 35.4 25.063 60.634 58.252 75.591 99.576z"/><path d="M403.878 304.227c-.304-.432-.58-.723-.855-.872-.293-.15-.696-.24-1.215-.24-.694 0-1.229.344-1.584.997-.314.579-.481 1.365-.481 2.316 0 .96.185 1.742.546 2.347.408.681.964 1.023 1.676 1.023.695 0 1.334-.272 1.913-.79zm1.317 6.615h-1.105l-.212-.717c-.916.64-1.699.966-2.358.966-1.012 0-1.826-.473-2.453-1.436-.553-.847-.843-1.862-.843-3.038 0-1.358.314-2.464.91-3.307.647-.933 1.572-1.388 2.741-1.388.797 0 1.471.34 2.003 1.01v-4.237h1.317zM412.604 305.06c0-1.264-.607-1.902-1.824-1.902-.583 0-1.023.125-1.353.366-.457.326-.776.911-.959 1.747h4.136zm-4.24 1.317c0 .977.124 1.755.407 2.3.2.396.54.722 1.001.941.393.181.775.26 1.174.26.67 0 1.395-.369 2.22-1.113l.675.966c-.909.898-1.92 1.33-3.022 1.33-1.536 0-2.618-.583-3.277-1.765-.414-.759-.629-1.687-.629-2.75 0-1.339.35-2.435 1.065-3.288.694-.825 1.662-1.252 2.908-1.252.86 0 1.56.277 2.109.82.636.605.942 1.428.942 2.479v1.072zM418.18 311.097c-1.155 0-2.099-.331-2.799-1.014l.668-1.062c.588.58 1.335.87 2.274.87.46 0 .85-.16 1.164-.515.298-.314.442-.635.442-.983 0-.615-.448-1.055-1.34-1.322-.475-.111-1.158-.322-2.027-.661-.651-.341-.996-.934-.996-1.772 0-.918.307-1.617.89-2.105.513-.459 1.152-.65 1.918-.647.768.006 1.59.285 2.437.795l-.447 1.093c-.796-.517-1.477-.773-2.04-.773-.987 0-1.475.43-1.475 1.263 0 .455.236.766.674.955.819.292 1.63.536 2.442.814.888.446 1.341 1.117 1.341 2.049 0 .98-.298 1.74-.942 2.286-.568.475-1.311.73-2.184.73M437.295 310.843v-6.031c0-1.14-.486-1.696-1.472-1.696-.326 0-.725.17-1.167.556-.587.46-.871.965-.871 1.552v5.619h-1.325v-6.118c0-.535-.133-.95-.449-1.22-.231-.247-.564-.371-.937-.371-.455 0-.934.225-1.395.66-.459.433-.699.857-.699 1.283v5.766h-1.332v-8.633h1.332v1.225c.86-.951 1.639-1.43 2.364-1.43.442 0 .852.166 1.222.44.393.284.66.668.871 1.142.942-1.118 1.823-1.67 2.669-1.67.718 0 1.319.293 1.797.877.5.6.727 1.245.727 1.931v6.118zM444.46 303.087c-.89 0-1.563.362-2.043 1.066-.396.639-.6 1.43-.6 2.41 0 .92.194 1.695.576 2.302.453.7 1.087 1.047 1.883 1.047.848 0 1.51-.363 1.957-1.063.39-.624.592-1.414.592-2.37 0-.936-.187-1.712-.554-2.332-.44-.712-1.032-1.06-1.81-1.06zm-.105 7.958c-1.518 0-2.624-.58-3.288-1.767-.466-.79-.708-1.719-.708-2.814 0-1.503.453-2.69 1.372-3.522a3.8 3.8 0 0 1 2.646-1.026c1.001 0 1.873.347 2.573 1.026.89.832 1.337 2.02 1.337 3.522 0 1.02-.266 1.987-.792 2.839-.707 1.163-1.744 1.742-3.14 1.742M455.213 310.843v-5.659c0-.714-.174-1.23-.523-1.61a1.384 1.384 0 0 0-1.066-.458c-.448 0-.924.17-1.436.556-.562.44-.84.919-.84 1.463v5.708h-1.345v-8.633h1.345v.986c.489-.485.904-.819 1.254-.986.346-.2.737-.28 1.173-.28.7 0 1.328.28 1.878.824.591.601.885 1.324.885 2.207v5.882zM461.222 310.988c-.534 0-1.001-.234-1.359-.73-.381-.494-.575-1.14-.575-1.93v-4.973h-1.32v-1.15h1.32v-1.766h1.349v1.766h2.177v1.162l-2.177-.012v5.182c0 .774.329 1.16.964 1.16.342 0 .79-.258 1.31-.786l.67.96c-.64.746-1.418 1.117-2.359 1.117M468.94 306.792c-.358 0-.797.031-1.291.155-.14.025-.464.093-.96.218-.82.232-1.232.718-1.239 1.488 0 .377.096.714.289.947.238.29.574.436 1.01.436.458 0 .9-.124 1.35-.372.563-.282.841-.655.841-1.123zm1.268 4.253c-.468 0-.821-.28-1.068-.831-.336.264-.633.459-.877.575-.502.226-1.056.337-1.704.337-.637 0-1.2-.206-1.645-.65-.443-.453-.69-1.06-.69-1.83 0-.946.289-1.627.856-2.05.34-.262 1.018-.523 2.022-.761.407-.109 1.01-.175 1.838-.263v-1.115c0-.379-.156-.692-.437-.933a1.494 1.494 0 0 0-1.008-.366c-.614 0-1.369.377-2.242 1.106l-.69-.978c.362-.343.856-.66 1.465-.933.607-.282 1.093-.436 1.467-.436.79 0 1.45.26 1.97.751.522.536.792 1.172.792 1.97v4.91c.053.228.18.343.36.343.13.014.353-.115.705-.37l.274.913c-.378.4-.843.61-1.388.61M475.756 303.116c-.579 0-1.017.21-1.348.63-.313.386-.457.833-.457 1.346 0 .536.144.977.476 1.336.33.395.82.608 1.394.608.55 0 1-.183 1.348-.557.353-.367.522-.85.522-1.477 0-.48-.188-.925-.548-1.302-.38-.39-.84-.584-1.387-.584zm.67 7.974c-.188 0-.471.007-.823.007-.37 0-.66.024-.864.03-.207.027-.41.186-.644.525-.219.31-.33.668-.33 1.03 0 .427.186.753.564.99.364.25.806.36 1.327.36.663 0 1.24-.163 1.761-.504.549-.382.834-.845.834-1.392 0-.718-.608-1.046-1.825-1.046zm2.137-7.261c.218.48.323.866.323 1.208 0 .871-.287 1.6-.874 2.192-.568.57-1.311.872-2.191.872-.34 0-.725-.088-1.158-.227-.412.588-.637.991-.637 1.188 0 .105.046.24.12.394.075.13.17.241.262.257.331.158.901.227 1.74.227 1.166 0 1.982.068 2.393.236.74.29 1.098.921 1.098 1.893 0 .99-.5 1.781-1.51 2.378-.86.481-1.81.748-2.856.766h-.057c-.831 0-1.497-.214-1.996-.59-.496-.414-.747-.897-.747-1.51 0-.729.397-1.49 1.165-2.271-.287-.088-.524-.276-.721-.556-.208-.263-.296-.508-.296-.737 0-.207.115-.529.395-.951.193-.28.439-.661.755-1.13-.724-.645-1.085-1.438-1.094-2.448 0-.8.304-1.516.907-2.093.618-.607 1.36-.863 2.237-.857 1.105 0 1.839.283 2.215.852l2.389-.75v1.657zM486.776 310.843v-5.659c0-.714-.18-1.23-.535-1.61a1.377 1.377 0 0 0-1.065-.458c-.447 0-.923.17-1.437.556-.567.44-.848.919-.848 1.463v5.708h-1.338v-8.633h1.338v.986c.506-.485.91-.819 1.26-.986.353-.2.74-.28 1.179-.28.689 0 1.33.28 1.865.824.613.601.887 1.324.887 2.207v5.882zM495.5 305.06c0-1.264-.62-1.902-1.837-1.902-.562 0-1.017.125-1.343.366-.446.326-.77.911-.942 1.747h4.121zm-4.248 1.317c0 .977.142 1.755.423 2.295.199.4.531.725.991.946.39.181.78.26 1.166.26.689 0 1.41-.369 2.225-1.124l.677.977c-.905.898-1.898 1.327-3.02 1.327-1.53 0-2.62-.583-3.273-1.78-.433-.752-.624-1.67-.624-2.732 0-1.339.346-2.435 1.058-3.288.696-.835 1.67-1.252 2.914-1.252.846 0 1.56.277 2.114.82.622.605.934 1.428.934 2.479v1.072zM501.08 311.097c-1.16 0-2.096-.331-2.814-1.014l.695-1.062c.57.58 1.32.87 2.25.87.46 0 .847-.18 1.175-.515.292-.314.449-.635.449-.983 0-.615-.46-1.055-1.34-1.322-.483-.111-1.16-.322-2.045-.661-.648-.341-.972-.934-.972-1.772 0-.918.29-1.617.876-2.105.519-.459 1.148-.65 1.917-.647.774 0 1.571.285 2.436.782l-.437 1.106c-.798-.517-1.474-.773-2.06-.773-.964 0-1.467.43-1.467 1.263 0 .44.224.766.681.943.815.273 1.626.548 2.423.826.9.446 1.354 1.117 1.354 2.049 0 .98-.3 1.74-.93 2.286-.578.475-1.3.73-2.191.73M515.32 310.988c-1.152 0-2.073-.45-2.72-1.367-.576-.822-.868-1.854-.868-3.094 0-1.162.292-2.14.884-2.973.662-.933 1.576-1.389 2.736-1.404.408 0 .876.096 1.417.283.416.135.76.28 1.014.446l-.484 1.044c-.773-.492-1.415-.744-1.894-.744-.848 0-1.511.429-1.973 1.26-.368.653-.553 1.412-.553 2.261 0 .923.23 1.713.707 2.32.467.601 1.037.917 1.718.917a3.86 3.86 0 0 0 2.048-.568l.52.86c-.55.294-.951.491-1.24.58-.374.132-.822.18-1.312.18M523.35 303.087c-.906 0-1.564.362-2.04 1.066-.417.639-.6 1.43-.6 2.41 0 .92.183 1.695.57 2.302.45.7 1.084 1.047 1.893 1.047.844 0 1.5-.363 1.952-1.063.394-.624.583-1.414.583-2.37 0-.936-.177-1.712-.549-2.332-.426-.712-1.019-1.06-1.81-1.06zm-.109 7.958c-1.523 0-2.62-.58-3.3-1.767-.457-.79-.688-1.719-.688-2.814 0-1.503.46-2.69 1.368-3.522a3.773 3.773 0 0 1 2.642-1.026c.99 0 1.862.347 2.596 1.026.858.832 1.299 2.02 1.299 3.522 0 1.02-.255 1.987-.765 2.839-.715 1.163-1.77 1.742-3.152 1.742M532.88 303.7a.876.876 0 0 0-.327-.132c-.15-.064-.343-.073-.597-.073-.37.01-.758.27-1.17.769-.358.47-.563.828-.563 1.064v5.515H528.9v-8.633h1.323v1.443c.673-1.09 1.373-1.643 2.1-1.643.193 0 .524.097.94.296zM537.242 311.097c-1.171 0-2.1-.331-2.82-1.014l.682-1.062c.585.58 1.34.87 2.261.87.446 0 .841-.18 1.174-.515.292-.314.442-.635.442-.983 0-.615-.442-1.055-1.34-1.322-.48-.111-1.16-.322-2.04-.661-.644-.341-.976-.934-.976-1.772 0-.918.292-1.617.876-2.105.507-.459 1.157-.65 1.932-.647.761 0 1.568.285 2.42.782l-.439 1.106c-.783-.517-1.467-.773-2.049-.773-.972 0-1.464.43-1.464 1.263 0 .44.228.766.675.943.815.273 1.625.548 2.428.826.901.446 1.363 1.117 1.363 2.049 0 .98-.319 1.74-.953 2.286-.583.475-1.29.73-2.172.73M547.355 305.06c0-1.264-.605-1.902-1.832-1.902-.578 0-1.024.125-1.367.366-.427.326-.73.911-.932 1.747h4.131zm-4.249 1.317c0 .977.133 1.755.424 2.295.2.4.532.725.998.946.38.181.775.26 1.161.26.671 0 1.41-.369 2.232-1.124l.664.977c-.908.898-1.895 1.327-3.007 1.327-1.537 0-2.634-.583-3.295-1.78-.413-.752-.619-1.67-.619-2.732 0-1.339.353-2.435 1.065-3.288.704-.835 1.668-1.252 2.912-1.252.851 0 1.549.277 2.12.82.617.605.921 1.428.921 2.479v1.072zM552.936 311.097c-1.165 0-2.11-.331-2.812-1.014l.68-1.062c.587.58 1.33.87 2.26.87.46 0 .844-.18 1.172-.515.29-.314.442-.635.442-.983 0-.615-.442-1.055-1.343-1.322-.476-.111-1.158-.322-2.02-.661-.667-.341-.996-.934-.996-1.772 0-.918.298-1.617.89-2.105.509-.459 1.13-.65 1.907-.647.761 0 1.586.285 2.437.782l-.424 1.106c-.8-.517-1.474-.773-2.064-.773-.976 0-1.468.43-1.468 1.263 0 .44.221.766.671.943.822.273 1.628.548 2.44.826.907.446 1.355 1.117 1.355 2.049 0 .98-.322 1.74-.934 2.286-.593.475-1.318.73-2.193.73M459.033 197.718V265.7h13.125v-67.982zM518.579 252.698c-3.71-2.54-5.558-6.048-5.558-10.53 0-2.667.783-5.133 2.338-7.408 2.352-3.469 5.673-5.272 9.919-5.43 2.418.147 4.584.883 6.496 2.21 3.693 2.54 5.548 6.075 5.548 10.628 0 3.577-1.275 6.61-3.798 9.101-2.371 2.342-5.194 3.576-8.47 3.73-2.286-.147-4.45-.904-6.475-2.301zm31.85-19.419c-1.883-5.194-5.058-9.356-9.496-12.505-4.447-3.143-9.426-4.715-14.933-4.715-.309 0-.617.01-.926.02-.201-.003-.397-.02-.599-.02-2.918 0-5.913.546-8.96 1.655-5.181 1.885-9.342 5.043-12.47 9.49-3.102 4.448-4.656 9.43-4.656 14.95 0 7.213 2.504 13.334 7.532 18.398 5.03 5.058 11.171 7.598 18.44 7.598.245 0 .484-.011.725-.017.263.007.525.017.79.017 7.493 0 13.755-2.667 18.769-7.971l2.31 6.39H562.5zM434.566 215.998h-39.08v12.46h17.519l-21.106 38.11h42.248V253.84h-18.669l20.615-37.843zM440.272 216.059h-1.516v50.509h14.635v-50.51zM479.986 216.059h-1.522v50.509h14.644v-50.51zM402.74 282.684c0-2.233-1.217-3.35-3.653-3.35-1.15 0-2.05.214-2.706.645-.878.594-1.511 1.62-1.893 3.074h8.252zm-8.49 2.307c0 1.743.283 3.096.847 4.06.406.718 1.07 1.27 1.994 1.66a6.2 6.2 0 0 0 2.334.46c1.33 0 2.809-.655 4.432-1.967l1.352 1.721c-1.803 1.559-3.81 2.339-6.02 2.339-3.067 0-5.254-1.046-6.563-3.137-.835-1.332-1.25-2.943-1.25-4.828 0-2.358.703-4.28 2.114-5.766 1.409-1.486 3.352-2.229 5.835-2.229 1.69 0 3.099.482 4.227 1.444 1.24 1.067 1.86 2.523 1.86 4.368v1.875zM416.846 285.73c-.722 0-1.578.093-2.571.276-.294.04-.935.174-1.929.4-1.623.39-2.447 1.26-2.468 2.615 0 .675.19 1.228.575 1.66.473.512 1.15.767 2.029.767.902 0 1.803-.214 2.707-.646 1.104-.512 1.657-1.169 1.657-1.966zm2.536 7.502c-.924 0-1.634-.493-2.13-1.475-.678.472-1.264.808-1.759 1.014-.993.409-2.122.614-3.383.614-1.308 0-2.412-.388-3.316-1.167-.901-.778-1.35-1.854-1.35-3.23 0-1.66.55-2.859 1.655-3.598.7-.472 2.064-.922 4.093-1.352.79-.164 2.007-.319 3.654-.462v-1.937c0-.674-.289-1.229-.864-1.66-.575-.431-1.247-.645-2.012-.645-1.24 0-2.74.656-4.498 1.967l-1.387-1.72c.744-.617 1.723-1.175 2.942-1.68 1.22-.5 2.198-.752 2.943-.752 1.58 0 2.892.452 3.94 1.355 1.049.9 1.575 2.04 1.575 3.412v8.672c.11.41.346.614.71.614.246.022.72-.194 1.42-.646l.54 1.6c-.745.719-1.669 1.076-2.773 1.076M437.14 292.893h-2.4l-.374-1.597c-1.668 1.436-3.392 2.152-5.176 2.152-1.33 0-2.479-.483-3.449-1.447-1.038-1.024-1.557-2.368-1.557-4.028v-10.3h2.672v10.178c0 2.276.993 3.412 2.979 3.412 1.059 0 2.102-.383 3.129-1.151 1.025-.77 1.538-1.524 1.538-2.26v-10.178h2.638zM468.799 292.893v-10.638c0-1.99-.993-2.983-2.977-2.983-.63 0-1.409.328-2.335.984-1.149.779-1.724 1.69-1.724 2.737v9.9h-2.638v-10.792c0-.941-.293-1.661-.879-2.153-.498-.43-1.127-.646-1.894-.646-.924 0-1.856.386-2.79 1.154-.938.767-1.406 1.523-1.406 2.26v10.177h-2.672v-15.22h2.672v2.151c1.714-1.68 3.292-2.52 4.736-2.52.88 0 1.697.255 2.451.768a4.841 4.841 0 0 1 1.711 2.03c1.893-1.967 3.674-2.953 5.342-2.953 1.444 0 2.65.519 3.62 1.554.97 1.035 1.455 2.168 1.455 3.398v10.792zM475.395 277.673h2.739v15.22h-2.74zm1.555-3.29c-.496 0-.924-.158-1.285-.476a1.553 1.553 0 0 1-.542-1.215c0-.47.182-.865.542-1.185a1.88 1.88 0 0 1 1.285-.476c.495 0 .918.158 1.267.476.35.32.526.714.526 1.185 0 .492-.177.896-.526 1.215-.349.318-.772.476-1.267.476M492.817 292.893v-9.991c0-1.232-.353-2.174-1.05-2.83-.588-.534-1.298-.8-2.132-.8-.9 0-1.86.328-2.874.984-1.129.76-1.693 1.608-1.693 2.552v10.085h-2.672v-15.22h2.672v1.72c.994-.838 1.831-1.417 2.52-1.735.69-.319 1.472-.478 2.351-.478 1.399 0 2.65.482 3.756 1.447 1.171 1.045 1.76 2.338 1.76 3.872v10.394zM509.827 282.684c0-2.233-1.216-3.35-3.652-3.35-1.15 0-2.051.214-2.705.645-.858.576-1.49 1.598-1.894 3.074h8.251zm-6.663-6.917-1.588-1.816 7.102-2.95 1.589 1.999zm-1.827 9.224c0 1.72.294 3.075.88 4.06.429.718 1.093 1.27 1.997 1.66.766.308 1.545.46 2.334.46 1.33 0 2.808-.655 4.431-1.967l1.319 1.721c-1.805 1.559-3.811 2.339-6.02 2.339-3.068 0-5.255-1.046-6.565-3.137-.834-1.332-1.25-2.943-1.25-4.828 0-2.358.704-4.28 2.113-5.766 1.41-1.486 3.354-2.229 5.837-2.229 1.689 0 3.1.482 4.227 1.444 1.24 1.067 1.86 2.523 1.86 4.368v1.875zM523.255 280.286c-.135-.08-.35-.162-.642-.244-.294-.084-.688-.125-1.183-.125-.744.022-1.524.483-2.334 1.384-.746.822-1.117 1.434-1.117 1.843v9.75h-2.674v-15.22h2.674v2.52c1.329-1.907 2.728-2.86 4.194-2.86.382 0 1.015.166 1.895.491zM534.927 285.73c-.723 0-1.58.093-2.572.276-.293.04-.935.174-1.927.4-1.625.39-2.448 1.26-2.47 2.615 0 .675.19 1.228.575 1.66.474.512 1.15.767 2.03.767.902 0 1.803-.214 2.706-.646 1.105-.512 1.658-1.169 1.658-1.966zm2.534 7.502c-.922 0-1.634-.493-2.129-1.475-.679.472-1.262.808-1.758 1.014-.994.409-2.122.614-3.384.614-1.308 0-2.411-.388-3.315-1.167-.9-.778-1.351-1.854-1.351-3.23 0-1.66.551-2.859 1.656-3.598.7-.472 2.063-.922 4.09-1.352.792-.164 2.01-.319 3.657-.462v-1.937c0-.674-.289-1.229-.864-1.66-.576-.431-1.246-.645-2.012-.645-1.24 0-2.739.656-4.499 1.967l-1.387-1.72c.744-.617 1.725-1.175 2.943-1.68 1.218-.5 2.199-.752 2.943-.752 1.579 0 2.89.452 3.94 1.355 1.048.9 1.574 2.04 1.574 3.412v8.672c.113.41.348.614.71.614.247.022.72-.194 1.421-.646l.54 1.6c-.743.719-1.67 1.076-2.775 1.076M542.774 271.428v21.465h2.639v-21.465zM560.126 282.684c0-2.233-1.218-3.35-3.656-3.35-1.148 0-2.05.214-2.704.645-.879.594-1.513 1.62-1.893 3.074h8.253zm-8.493 2.307c0 1.743.284 3.096.847 4.06.407.718 1.072 1.27 1.995 1.66a6.2 6.2 0 0 0 2.335.46c1.33 0 2.809-.655 4.432-1.967l1.352 1.721c-1.804 1.559-3.81 2.339-6.02 2.339-3.067 0-5.255-1.046-6.563-3.137-.835-1.332-1.252-2.943-1.252-4.828 0-2.358.704-4.28 2.116-5.766 1.409-1.486 3.353-2.229 5.835-2.229 1.689 0 3.1.482 4.226 1.444 1.241 1.067 1.86 2.523 1.86 4.368v1.875z"/><path d="M446.188 212.506c3.859 0 6.986-2.483 6.986-5.547 0-3.064-3.127-5.548-6.986-5.548-3.857 0-6.985 2.484-6.985 5.548s3.128 5.547 6.986 5.547M485.433 211.89c3.858 0 6.986-2.484 6.986-5.548s-3.128-5.547-6.986-5.547c-3.858 0-6.986 2.483-6.986 5.547 0 3.064 3.128 5.548 6.986 5.548" fill-rule="evenodd"/></g></svg>