<svg xmlns="http://www.w3.org/2000/svg" xmlns:xlink="http://www.w3.org/1999/xlink" width="1322.835" height="755.905" viewBox="0 0 992.126 566.929"><g data-name="Plan 1"><symbol id="a"><path d="M.372.176a.12.12 0 0 0-.109-.06.134.134 0 0 0-.11.055l.364.153A.25.25 0 0 1 .264.54.268.268 0 0 1 0 .269C0 .12.118 0 .264 0c.128 0 .219.071.249.176H.372m-.249.1c.003.088.064.148.14.148A.13.13 0 0 0 .365.378L.123.276z"/></symbol><symbol id="b"><path d="M0 .298V0h.132v.301c0 .058.042.098.1.098C.319.399.329.33.329.301V0h.132v.298c0 .135-.085.23-.229.23A.222.222 0 0 1 0 .298z"/></symbol><symbol id="c"><path d="M0 .005C.073 0 .132.014.175.055c.059.055.066.14.066.208 0 .074.014.093.026.106.019.019.046.026.083.022v.128C.276.525.219.508.176.466.116.409.109.331.109.263.109.188.096.164.083.152.064.133.034.13 0 .133V.005z"/></symbol><symbol id="d"><path d="M.789.298c0 .135-.085.23-.229.23A.214.214 0 0 1 .396.455a.207.207 0 0 1-.164.073A.221.221 0 0 1 0 .298V0h.132v.301c0 .058.041.098.1.098C.319.399.328.33.328.301V0H.46v.301c0 .058.042.098.1.098C.647.399.657.33.657.301V0h.132v.298z"/></symbol><symbol id="e"><path d="M.529.269c0 .148-.11.269-.246.269a.198.198 0 0 1-.15-.06v.278H0V.269A.26.26 0 0 1 .265 0a.26.26 0 0 1 .264.269M.397.268C.397.186.338.123.265.123.192.123.133.188.133.268c0 .082.059.148.132.148.073 0 .132-.063.132-.148z"/></symbol><symbol id="f"><path d="M0 .231C0 .09.08 0 .231.016v.12C.166.132.133.158.133.231v.528H0V.231z"/></symbol><symbol id="g"><path d="M.142.305H0V.164h.075V.146C.075.102.054.071.013.062V0c.075.008.129.057.129.147v.158z"/></symbol><symbol id="h"><path d="M0 0z"/></symbol><symbol id="i"><path d="M.515.186H.374A.121.121 0 0 0 .266.12C.193.12.134.187.134.268c0 .083.059.151.132.151.048 0 .089-.03.107-.065h.141A.243.243 0 0 1 .266.54.264.264 0 0 1 0 .269C0 .12.111 0 .266 0c.125 0 .219.069.249.186z"/></symbol><symbol id="j"><path d="M.135.273H0V.147h.071V.136C.071.094.052.064.013.056V0c.071.007.122.054.122.138v.135z"/></symbol><symbol id="k"><path d="M.231.136C.165.132.132.159.132.231v.182h.093V.53H.132v.131H0V.232C0 .091.08 0 .231.016v.12z"/></symbol><symbol id="l"><path d="M.133.571v.074c0 .037-.03.066-.066.066A.066.066 0 0 1 0 .645V.571h.133m0-.056H.001V0h.132v.515z"/></symbol><symbol id="m"><path d="M.461.23v.297H.329V.226a.096.096 0 0 0-.1-.098C.142.128.132.197.132.226v.301H0V.23C0 .095.085 0 .229 0c.14 0 .232.099.232.23z"/></symbol><symbol id="n"><path d="M.368.258a.21.21 0 0 1 .071.164v.093H.307v-.1C.307.357.271.317.219.317c-.051 0-.087.04-.087.098v.1H0V.422A.21.21 0 0 1 .066.258.21.21 0 0 1 0 .094V0h.132v.101c0 .058.036.098.087.098.052 0 .088-.04.088-.098V0h.132v.094a.212.212 0 0 1-.071.164z"/></symbol><use xlink:href="#a" transform="matrix(41.4168 0 0 -34.514 309.705 545.612)"/><use xlink:href="#b" transform="matrix(41.4168 0 0 -34.514 334.554 545.198)"/><use xlink:href="#c" transform="matrix(41.4168 0 0 -34.514 356.381 545.37)"/><use xlink:href="#a" transform="matrix(41.4168 0 0 -34.514 372.575 545.612)"/><use xlink:href="#d" transform="matrix(41.4168 0 0 -34.514 397.424 545.198)"/><use xlink:href="#e" transform="matrix(41.4168 0 0 -34.514 434.16 545.612)"/><use xlink:href="#f" transform="matrix(41.4168 0 0 -34.514 459.466 545.715)"/><use xlink:href="#a" transform="matrix(41.4168 0 0 -34.514 470.69 545.612)"/><use xlink:href="#g" transform="matrix(41.4168 0 0 -34.514 494.918 550.858)"/><use xlink:href="#h" transform="matrix(41.4168 0 0 -34.514 502.704 545.198)"/><use xlink:href="#i" transform="matrix(41.4168 0 0 -34.514 516.703 545.612)"/><use xlink:href="#j" transform="matrix(41.4168 0 0 -34.514 540.518 530.667)"/><use xlink:href="#a" transform="matrix(41.4168 0 0 -34.514 546.896 545.612)"/><use xlink:href="#c" transform="matrix(41.4168 0 0 -34.514 569.84 545.37)"/><use xlink:href="#k" transform="matrix(41.4168 0 0 -34.514 586.987 545.715)"/><use xlink:href="#h" transform="matrix(41.4168 0 0 -34.514 597.962 545.198)"/><use xlink:href="#d" transform="matrix(41.4168 0 0 -34.514 613.038 545.198)"/><use xlink:href="#l" transform="matrix(41.4168 0 0 -34.514 650.645 545.198)"/><use xlink:href="#a" transform="matrix(41.4168 0 0 -34.514 660.005 545.612)"/><use xlink:href="#m" transform="matrix(41.4168 0 0 -34.514 684.647 545.612)"/><use xlink:href="#n" transform="matrix(41.4168 0 0 -34.514 708.337 545.198)"/><path d="M401.54 209.446V181.71l119.044-71.527L639.63 181.71v27.736h83.389v-51.113c0-14.526-7.636-27.985-20.131-35.5L542.156 26.244c-13.265-7.958-29.89-7.958-43.144 0l-160.73 96.59c-12.495 7.514-20.132 20.973-20.132 35.5v51.112z"/><path d="M401.54 209.446V181.71l119.044-71.527L639.63 181.71v27.736h83.389v-51.113c0-14.526-7.636-27.985-20.131-35.5L542.156 26.244c-13.265-7.958-29.89-7.958-43.144 0l-160.73 96.59c-12.495 7.514-20.132 20.973-20.132 35.5v51.112z" fill="#ef7c00"/><path d="M639.707 223.476v154.561c0 23.99-15.8 41.031-39.412 42.528-32.934-1.475-37.892-27.257-37.892-42.528v-154.61h-83.347v154.61c0 23.948-15.838 40.996-39.435 42.528-34.624-1.597-38.38-30.257-38.38-42.528V223.476h-83.343v153.07c0 72.579 46.438 119.466 118.306 119.466.696 0 1.388-.036 2.078-.08l.649-.08 1.328.08c.791.044 1.552.08 2.37.08 29.325 0 56.392-10.574 76.954-29.892 19.85 19.318 47.05 29.892 77.283 29.892.803 0 1.558-.036 2.317-.08l.994-.08 1.047.08c.66.044 1.371.08 2.084.08 70.513 0 119.778-49.132 119.778-119.465V223.476z" fill="#fff"/><path d="M639.707 223.476v154.561c0 23.99-15.8 41.031-39.412 42.528-32.934-1.475-37.892-27.257-37.892-42.528v-154.61h-83.347v154.61c0 23.948-15.838 40.996-39.435 42.528-34.624-1.597-38.38-30.257-38.38-42.528V223.476h-83.343v153.07c0 72.579 46.438 119.466 118.306 119.466.696 0 1.388-.036 2.078-.08l.649-.08 1.328.08c.791.044 1.552.08 2.37.08 29.325 0 56.392-10.574 76.954-29.892 19.85 19.318 47.05 29.892 77.283 29.892.803 0 1.558-.036 2.317-.08l.994-.08 1.047.08c.66.044 1.371.08 2.084.08 70.513 0 119.778-49.132 119.778-119.465V223.476z" fill="#1a1a18"/></g></svg>