<svg xmlns="http://www.w3.org/2000/svg" width="1322.835" height="755.905" viewBox="0 0 992.126 566.929"><g data-name="Plan 1"><path d="M224.035 163.066v26.176c0 10.995-1.479 23.963 3.158 29.331.733.923 1.561 1.749 2.482 2.483 2.128 1.557 4.368 3.002 7.898 3.158 15.492.376 32.565.376 48.059 0 3.276-.183 5.4-1.519 7.446-2.933a18.416 18.416 0 0 0 2.707-2.708c1.427-2.032 2.762-4.156 2.933-7.446.376-11.13.376-23.841 0-34.975-.2-3.409-1.623-5.591-3.16-7.67a12.918 12.918 0 0 0-2.255-2.254c-2.209-1.553-4.437-3.082-8.123-3.162-19.855-.374-41.29-.374-61.145 0zm-9.025-48.505c.125-2.318 2.69-4.357 5.415-3.839 5.47 1.043 3.61 12.576 3.61 19.633v23.233h47.833c5.269 0 10.713-.494 15.569.23 8.876 1.33 15.066 6.858 18.275 13.54 3.432 7.137 2.482 18.64 2.482 29.33 0 12.381.324 20.078-4.738 27.075-4.309 5.956-10.7 9.927-21.886 9.927h-31.813c-10.592 0-20.337.125-26.173-5.64a21.516 21.516 0 0 0-2.934-2.933c-2.844-3.774-5.221-8.016-5.64-14.215zM424.282 234.456c-5.83.299-4.513-8.862-4.513-15.343v-79.42c0-6.524-.985-12.545 4.288-12.864h2.933c5.469.35 4.286 6.945 4.286 13.763v79.423c0 6.504 1.44 14.384-4.512 14.441z" fill="#1a1a18" fill-rule="evenodd"/><path d="M424.282 234.456c-5.83.299-4.513-8.862-4.513-15.343v-79.42c0-6.524-.985-12.545 4.288-12.864h2.933c5.469.35 4.286 6.945 4.286 13.763v79.423c0 6.504 1.44 14.384-4.512 14.441zM326.91 216.056c.314 3.6 3.373 6.795 6.995 7.896 3.016.919 7.516.452 11.732.452h24.82c4.521 0 9.057.49 11.959-.452 7.164-2.324 7.613-9.493 6.993-18.952h-41.966c-5.073 0-10.27-.577-13.538.451-3.3 1.038-6.984 4.758-6.995 8.123-.373.316-.373 2.166 0 2.482zm62.5-21.886c-.388-3.095.61-8.87-.226-11.958-2.006-7.396-9.549-6.997-19.405-6.997h-25.495c-3.822 0-9.264.286-11.056-1.577-1.575-1.641-1.687-5.767-.452-7.447 2.548-3.457 18.766-1.808 24.82-1.808 15.029 0 29.257-1.641 36.552 5.647.658.844 1.41 1.593 2.256 2.254 6.365 7.04 4.513 21.326 4.513 36.778v13.085c0 6.228 1.11 12.855-4.513 12.862h-2.482c-2.138-.194-3.085-1.578-4.287-2.708-2.39 1.521-5.48 2.341-9.025 2.708h-45.125c-5.79-.453-9.737-2.75-13.313-5.415a15.413 15.413 0 0 0-2.482-2.483c-.79-1.51-1.819-2.331-2.481-3.61-7.373-14.23 5.193-29.157 19.403-29.106 17.524-.15 35.65.301 52.797-.225" fill="#1a1a18" fill-rule="evenodd"/><path d="M326.91 216.056c.314 3.6 3.373 6.795 6.995 7.896 3.016.919 7.516.452 11.732.452h24.82c4.521 0 9.057.49 11.959-.452 7.164-2.324 7.613-9.493 6.993-18.952h-41.966c-5.073 0-10.27-.577-13.538.451-3.3 1.038-6.984 4.758-6.995 8.123-.373.316-.373 2.166 0 2.482zm62.5-21.886c-.388-3.095.61-8.87-.226-11.958-2.006-7.396-9.549-6.997-19.405-6.997h-25.495c-3.822 0-9.264.286-11.056-1.577-1.575-1.641-1.687-5.767-.452-7.447 2.548-3.457 18.766-1.808 24.82-1.808 15.029 0 29.257-1.641 36.552 5.647.658.844 1.41 1.593 2.256 2.254 6.365 7.04 4.513 21.326 4.513 36.778v13.085c0 6.228 1.11 12.855-4.513 12.862h-2.482c-2.138-.194-3.085-1.578-4.287-2.708-2.39 1.521-5.48 2.341-9.025 2.708h-45.125c-5.79-.453-9.737-2.75-13.313-5.415a15.413 15.413 0 0 0-2.482-2.483c-.79-1.51-1.819-2.331-2.481-3.61-7.373-14.23 5.193-29.157 19.403-29.106 17.524-.15 35.65.301 52.797-.225M468.75 203.85c-4.84 0-9.256 3.999-9.927 7.672-1.129 6.162 3.11 10.401 7.67 11.506 3.175.77 7.694.226 11.733.226h12.184c9.26 0 18.492 1.26 23.917-.45 6.977-2.2 7.74-9.015 6.995-18.954-17.829 0-35.192.003-52.572 0zm-4.738-36.33c.365-5.957 10.762-4.284 18.05-4.284 15.037 0 36.92-1.96 43.546 5.193a24.867 24.867 0 0 0 3.16 3.154c1.986 2.827 3.731 5.902 4.061 10.381v47.834c-.288 2.494-1.914 3.65-4.286 4.061h-2.708c-2.222-.11-2.89-1.776-4.288-2.707-2.37 1.54-5.476 2.345-9.024 2.707h-44.9c-11.352-1.584-18.534-7.34-20.308-18.501v-3.385c1.811-11.576 9.219-17.556 21.435-18.727 17.45-.15 35.499.3 52.572-.226.722-9.998-.086-16.921-7.446-18.73-5.446-1.33-15.425-.222-24.594-.222h-12.41c-6.209 0-12.4.9-12.86-4.285z" fill="#1a1a18" fill-rule="evenodd"/><path d="M468.75 203.85c-4.84 0-9.256 3.999-9.927 7.672-1.129 6.162 3.11 10.401 7.67 11.506 3.175.77 7.694.226 11.733.226h12.184c9.26 0 18.492 1.26 23.917-.45 6.977-2.2 7.74-9.015 6.995-18.954-17.829 0-35.192.003-52.572 0zm-4.738-36.33c.365-5.957 10.762-4.284 18.05-4.284 15.037 0 36.92-1.96 43.546 5.193a24.867 24.867 0 0 0 3.16 3.154c1.986 2.827 3.731 5.902 4.061 10.381v47.834c-.288 2.494-1.914 3.65-4.286 4.061h-2.708c-2.222-.11-2.89-1.776-4.288-2.707-2.37 1.54-5.476 2.345-9.024 2.707h-44.9c-11.352-1.584-18.534-7.34-20.308-18.501v-3.385c1.811-11.576 9.219-17.556 21.435-18.727 17.45-.15 35.499.3 52.572-.226.722-9.998-.086-16.921-7.446-18.73-5.446-1.33-15.425-.222-24.594-.222h-12.41c-6.209 0-12.4.9-12.86-4.285zM570.167 173.558c-6.036.358-9.534 3.25-10.379 8.801-.376 9.778-.376 21.134 0 30.911.18 4.002 3.117 7.324 6.768 8.574 2.984 1.021 8.229.452 12.185.452h25.27c4.01 0 9.363.363 11.959-.677 2.484-.996 5.14-3.845 5.866-5.867 1.472-4.098.451-12.529.45-17.824 0-5.474 1.267-12.973-.45-17.823-1.172-3.313-5.164-6.539-9.928-6.547a775.73 775.73 0 0 0-41.741 0zm-1.58 59.568c-8.123-.762-15.565-5.41-18.728-12.184-2.02-4.33-1.805-13.905-1.805-21.887 0-8.318-.83-18.114 1.58-23.689 1.65-3.815 5.332-7.535 9.026-9.701 7.145-4.19 17.5-3.162 27.526-3.162 12.848 0 27.922-1.402 36.327 2.708 1.04-.16 1.14-1.426 2.256-2.031 3.376-1.832 9.42-.207 9.025 4.285v76.49c-.793 9.351-5.554 14.882-12.635 18.051-4.377 1.96-11.131 2.03-17.6 2.03h-19.63c-6.032 0-15.186 1.163-17.823-1.579-2.79-2.9-1.168-9.415 3.159-9.25 14.365-.15 29.33.3 43.32-.226 9.99-.792 10.448-9.676 9.701-22.111-2.194.59-5.348 2.171-8.798 2.256z" fill="#1a1a18" fill-rule="evenodd"/><path d="M570.167 173.558c-6.036.358-9.534 3.25-10.379 8.801-.376 9.778-.376 21.134 0 30.911.18 4.002 3.117 7.324 6.768 8.574 2.984 1.021 8.229.452 12.185.452h25.27c4.01 0 9.363.363 11.959-.677 2.484-.996 5.14-3.845 5.866-5.867 1.472-4.098.451-12.529.45-17.824 0-5.474 1.267-12.973-.45-17.823-1.172-3.313-5.164-6.539-9.928-6.547a775.73 775.73 0 0 0-41.741 0zm-1.58 59.568c-8.123-.762-15.565-5.41-18.728-12.184-2.02-4.33-1.805-13.905-1.805-21.887 0-8.318-.83-18.114 1.58-23.689 1.65-3.815 5.332-7.535 9.026-9.701 7.145-4.19 17.5-3.162 27.526-3.162 12.848 0 27.922-1.402 36.327 2.708 1.04-.16 1.14-1.426 2.256-2.031 3.376-1.832 9.42-.207 9.025 4.285v76.49c-.793 9.351-5.554 14.882-12.635 18.051-4.377 1.96-11.131 2.03-17.6 2.03h-19.63c-6.032 0-15.186 1.163-17.823-1.579-2.79-2.9-1.168-9.415 3.159-9.25 14.365-.15 29.33.3 43.32-.226 9.99-.792 10.448-9.676 9.701-22.111-2.194.59-5.348 2.171-8.798 2.256zM656.064 234.17c-6.32.376-4.513-11.39-4.513-18.728v-34.748c0-5.4-.993-13.516 1.355-15.793 2.888-2.804 8.163-1.1 9.926 1.353 6.986-3.91 20.741-2.708 32.492-2.708 9.135 0 17.037 1.227 20.983 5.416a21.472 21.472 0 0 0 2.932 2.931c2.031 3.09 3.944 6.285 4.063 11.284v46.254c-.165 2.92-1.71 4.458-4.513 4.739h-2.482c-5.835-.036-4.513-7.532-4.513-13.99v-26.173c0-10.05.8-17.35-7.446-19.406-4.058-1.011-11.333-.223-16.922-.223-11.22 0-21.183-1.529-23.916 6.54-1.133 3.35-.452 8.432-.452 13.09v26.623c0 5.56 1.337 13.757-4.511 13.539z" fill="#1a1a18" fill-rule="evenodd"/><path d="M656.064 234.17c-6.32.376-4.513-11.39-4.513-18.728v-34.748c0-5.4-.993-13.516 1.355-15.793 2.888-2.804 8.163-1.1 9.926 1.353 6.986-3.91 20.741-2.708 32.492-2.708 9.135 0 17.037 1.227 20.983 5.416a21.472 21.472 0 0 0 2.932 2.931c2.031 3.09 3.944 6.285 4.063 11.284v46.254c-.165 2.92-1.71 4.458-4.513 4.739h-2.482c-5.835-.036-4.513-7.532-4.513-13.99v-26.173c0-10.05.8-17.35-7.446-19.406-4.058-1.011-11.333-.223-16.922-.223-11.22 0-21.183-1.529-23.916 6.54-1.133 3.35-.452 8.432-.452 13.09v26.623c0 5.56 1.337 13.757-4.511 13.539zM814.842 181.69c-.203-3.552-3.55-7.168-7.22-8.124-2.87-.74-7.62-.223-11.733-.223h-24.142c-4.144 0-9.06-.621-11.96.223-3.38.987-7.129 4.596-7.219 7.9-.376 3.159-.376 7.896 0 11.055h41.29c4.802 0 9.967.648 13.538-.225 3.487-.855 7.206-4.412 7.446-8.123.373-.316.373-2.166 0-2.482zm-69.72 43.322c-5.494-5.573-4.287-17.13-4.287-29.332 0-7.794-.594-15.941 1.58-20.76 2.263-5.018 7.942-9.542 13.763-11.278 6.415-1.92 15.282-1.13 23.917-1.13 9.03 0 17.478-.431 25.044 0 9.471.54 16.44 5.47 19.63 11.962 3.027 6.157 1.904 15.464-2.256 20.304-1.148.957-2.2 2.01-3.159 3.158-3.641 2.676-7.765 4.87-13.763 5.19h-53.023c-.376 3.235-.376 8.046 0 11.281 1.902 11.007 17.4 8.123 31.814 8.123 5.371 0 21.64-1.607 24.368 1.58 2.393 2.796 1.077 9.225-3.384 9.025h-44.224c-5.64-.452-9.551-2.634-13.086-5.19a21.538 21.538 0 0 0-2.934-2.933" fill="#1a1a18" fill-rule="evenodd"/><path d="M814.842 181.69c-.203-3.552-3.55-7.168-7.22-8.124-2.87-.74-7.62-.223-11.733-.223h-24.142c-4.144 0-9.06-.621-11.96.223-3.38.987-7.129 4.596-7.219 7.9-.376 3.159-.376 7.896 0 11.055h41.29c4.802 0 9.967.648 13.538-.225 3.487-.855 7.206-4.412 7.446-8.123.373-.316.373-2.166 0-2.482zm-69.72 43.322c-5.494-5.573-4.287-17.13-4.287-29.332 0-7.794-.594-15.941 1.58-20.76 2.263-5.018 7.942-9.542 13.763-11.278 6.415-1.92 15.282-1.13 23.917-1.13 9.03 0 17.478-.431 25.044 0 9.471.54 16.44 5.47 19.63 11.962 3.027 6.157 1.904 15.464-2.256 20.304-1.148.957-2.2 2.01-3.159 3.158-3.641 2.676-7.765 4.87-13.763 5.19h-53.023c-.376 3.235-.376 8.046 0 11.281 1.902 11.007 17.4 8.123 31.814 8.123 5.371 0 21.64-1.607 24.368 1.58 2.393 2.796 1.077 9.225-3.384 9.025h-44.224c-5.64-.452-9.551-2.634-13.086-5.19a21.538 21.538 0 0 0-2.934-2.933M238.723 308.813c-2.964.262-5.123 1.328-6.935 2.741-.87.367-1.334 1.14-1.935 1.775v.16c-1.527 1.808-2.723 3.944-2.903 7.098a528.42 528.42 0 0 0 0 29.19c.93 6.812 4.845 10.64 11.612 11.613 13.171.269 27.47.269 40.642 0 3.038-.188 5.103-1.349 6.935-2.742a5.49 5.49 0 0 0 2.097-2.096c1.414-1.813 2.48-3.971 2.741-6.935.294-11.35.162-24.243.162-35.966 0-1.441.151-4.737-.162-5-.504-.42-5.023 0-6.45 0-15.437 0-31.188-.132-45.804.162zm59.996 40.32c-.172 5.85-2.373 9.669-5 13.063a15.395 15.395 0 0 0-2.096 2.097c-3.177 2.521-6.79 4.607-12.096 5h-41.288c-5.393-.413-9.127-2.485-12.257-5.161a9.132 9.132 0 0 0-1.612-1.614 1.462 1.462 0 0 0-.646-.645c-2.344-3.084-4.254-6.605-4.677-11.61v-30.16c.388-5.419 2.596-9.016 5.161-12.257a9.115 9.115 0 0 0 1.613-1.613c3.064-2.527 6.558-4.624 11.612-5.161h53.544c.376-11.022.054-22.74.162-34.03.381-1.553 1.31-2.561 2.903-2.903h1.613c1.774.43 2.858 1.55 3.064 3.548zM314.341 310.795c-2.182-1.825-1.79-6.03 0-7.672 1.927-1.766 6.657-1.527 8.123 0 4.372 4.557-3.05 11.916-8.123 7.672M475.644 310.05c-2.195-1.836-1.791-6.03 0-7.672 2.512-2.304 7.806-1.326 8.8 1.128 2.227 5.503-4.374 10.247-8.8 6.543M676.228 310.546c-2.258-1.9-1.676-6.122 0-7.671 1.823-1.683 6.547-1.626 8.123 0 4.262 4.395-2.877 12.085-8.123 7.671M408.097 310.956c.257-2.548-.51-5.126 1.354-6.543 3.123-2.374 8.338.23 6.769 5.19-.427.377-.248 7.167-.452 8.347v.226c3.235.526 7.445.077 11.056.226 4.09-.3 4.085 7 .45 7.22-3.345.143-7.707.226-11.054.226-1.05-.15-.946 1.303-.903 2.256 0 8.656-1.081 26.444-1.129 34.521 1.544 5.586-6.821 6.87-7.896 2.708 0-4.469 1.468-38.636 1.128-39.485-.832-.521-2.63-.078-3.836-.226-3.637-.505-3.057-7.532.903-7.22h3.384c0-2.4.226-4.914.226-7.446M660.062 304.455c.322 1.032.747 1.96.677 3.384-.289.257-.451 8.94-.451 10.154 3.235.524 7.446.075 11.056.225.917.06 1.531.424 2.256.677 1.481 2.04 1.002 6.266-1.805 6.543-2.677.12-7.79-.278-10.83.226h-.677c-.51.168-.089 1.265-.226 1.805-1.098 1.129-.364 27.417-1.354 33.618 2.526 7.558-9.308 9.04-8.122 1.58.225-.2.45-8.302.45-9.25.514-.681.328-21.038.904-24.368v-3.385h-.452c-.682-.521-2.328-.08-3.384-.226-3.681-.37-3.12-7.677.902-7.22 2.348.317 4.126.064 3.385-2.707 0-4.761-.482-16.171 7.671-11.056M389.572 318.11c4.031-.184 3.792 7.316 0 7.22-9.927.151-20.456-.3-30.008.227-8.948-1.036-10.189 12.999-1.58 13.312.097.505 1.113.092 1.58.225 9.176.376 19.93.376 29.106 0h.677c7.351.997 12.069 4.629 13.537 11.508v4.286c-1.406 7.244-6.327 10.972-13.537 12.41h-44.224c-3.697-.53-2.824-8.247 1.58-7.219 13.838-.151 28.279.3 41.741-.227 5.001-.241 8.287-5.684 5.64-10.153-.507-1.07-1.26-1.9-2.48-2.256-.895-.46-1.761-.948-3.16-.903-9.928-.525-20.833-.075-31.137-.226-7.376-1.047-12.097-4.749-13.311-11.958v-3.159c.535-7.127 8.124-12.836 14.891-13.086zM446.018 322.28c-.995-4.91 6.359-5.03 7.897-2.257 1.893-.89 3.901-1.664 6.543-1.805h11.282c4.104-.347 3.836 7.474 0 7.22-3.31.15-7.22-.3-10.154.226-4.773.267-7.764 2.315-7.896 7.22-.227.265-1.13 24.598-1.13 28.43 2.401 7.035-8.474 8.683-8.122 2.256.892-1.045.564-34.933 1.58-41.29M484.623 322.009c-1.339-5.084 7.352-5.773 7.897-1.805 0 8.756-1.071 32.698-1.304 40.387.784 7.781-8.899 9.05-8.172 2.03.245-.252 1.579-37.137 1.579-40.612M685.208 324.085c-2.121-6.076 6.727-7.969 7.896-3.385 0 11.09-1.691 32.072-1.353 42.645 1.076 5.013-7.412 5.724-7.896 1.577 0-11.453-.207-31.071 1.353-40.837M815.082 323.75c1.215 1.645 2.19 3.525 2.482 6.09v8.125c-.518.533-.08 2.024-.226 2.932v3.385c-.518.534-.08 2.025-.225 2.933v3.385c-.52.533-.081 2.025-.225 2.932v3.385c-.52.608-.08 2.176-.226 3.16-.28 2.42.483 4.503-.902 6.091-2.64 3.026-9.148.481-7.221-4.738.52-.534.081-2.025.225-2.933v-.226c.52-.608.08-2.176.227-3.159v-6.317c.518-.534.08-2.026.226-2.933v-3.384c.52-.61.08-2.177.224-3.16v-3.158c.521-.609.081-2.177.226-3.159.15-5.19-2.603-7.476-7.446-7.672-5.791-.376-13.161-.376-18.953 0-4.414.249-7.109 2.216-7.671 6.318-.516.386-.083 1.721-.225 2.482v3.384c-.52.534-.08 2.025-.225 2.934v3.384c-.52.534-.082 2.025-.227 2.932v3.385c-.518.533-.08 2.026-.226 2.933v3.385c-.518.534-.08 2.025-.224 2.933v.226c-.524 1.13-.078 3.232-.226 4.738-.761 4.806-10.09 3.563-7.897-2.933.519-.534.08-2.025.225-2.933v-3.61c.519-.534.08-2.025.226-2.933v-3.385c.52-.609.08-2.176.226-3.159v-3.385c.52-.608.08-2.176.224-3.158.521-.683.08-2.327.226-3.386v-6.542c.52-.534.08-2.025.227-2.933.294-2.943-.5-6.422 1.578-7.671 1.852-1.115 5.342-.657 6.318 1.353 2-.857 3.993-1.723 6.77-1.805H803.8c3.675.237 6.363 1.46 8.574 3.159v.226c1.037.694 1.67 1.79 2.707 2.482M712.15 349.211c-.65 6.215.957 10.174 6.092 10.604 9.852.376 21.285.376 31.137 0 3.913-.75 6.62-2.706 6.544-7.445.518-.535.08-2.026.225-2.933v-3.386c.519-.533.08-2.024.225-2.931v-3.385c.519-.535.08-2.026.226-2.934v-3.158c.374-.317.374-2.167 0-2.482-.627-3.662-3.08-5.495-7.22-5.64-9.025-.377-19.63-.377-28.655 0-5.153.26-8.12 2.71-7.896 8.347-.52.534-.082 2.025-.227 2.933v3.16c-.519.533-.08 2.024-.226 2.932v.903c-.516.385-.083 1.722-.225 2.482zm-2.031-27.527c2.56-1.801 5.382-3.343 9.476-3.61h31.137c7.972.829 12.708 4.893 13.99 12.41v4.512c-.52.534-.081 2.026-.225 2.933v3.16c-.521.607-.08 2.176-.227 3.158-.374.39-.374 2.319 0 2.708v.45c-.52.609-.08 2.177-.225 3.16.094 11.074-6.13 15.83-16.02 16.922-9.326-.376-20.23-.376-29.557 0-9.086-1.218-14.88-5.728-14.44-16.471.518-.533.08-2.026.226-2.934v-.902c.515-.386.082-1.722.224-2.482v-6.317c.521-.609.082-2.177.227-3.16.375-.389.375-2.318 0-2.706.226-3.534 1.358-6.163 2.932-8.349.923-.734 1.75-1.56 2.482-2.482M513.772 324.523c-3.868.644-6.325 2.7-6.544 6.994-.164.146-1.17 20.578-.677 21.434.728 3.035 2.644 4.878 5.867 5.416.05.884 28.133.337 30.91.225.267-.036.64.039.678-.225 1.54-.041 2.395-.763 3.384-1.354 1.205-.6 2.054-1.555 2.482-2.933 1.382-3.594.397-15.044 1.129-19.63.69-5.54-1.168-9.182-5.867-9.927-9.927-.377-21.434-.377-31.362 0zm-13.313-29.559c-.948-4.912 7.339-5.726 7.898-1.578 0 2.745-1.266 24.622-.677 25.27.713-.264 1.543-.412 2.031-.903 1.206-.523 2.663-.795 4.286-.902h31.137c21.056 1.179 14.728 37.365 10.38 42.87-.793.937-1.721 1.738-2.483 2.707-2.739 1.923-5.786 3.54-10.153 3.836-9.401-.377-20.382-.377-29.783 0-2.777-.307-5.409-.759-7.22-2.032-2.142 3.315-9.52 2.538-7.898-3.61.368-.377 1.58-39.399 1.58-43.77.569-.587.486-19.262.902-21.888M323.32 323.43c-1.726-5.57 7.103-6.685 7.898-2.482v3.61c-.447.38-.733 33.34-1.353 37.23.168 2.2-.207 3.853-.903 5.19-2.74 1.629-7.737 1.054-7.22-3.16.176-.206.77-35.289 1.579-40.388M580.066 318.67c2.811-1.664 7.46.005 6.543 4.06-.267.312-1.318 31.838-.903 32.266.663 2.946 2.706 4.514 5.866 4.963 9.852.375 21.285.375 31.136 0 3.617-.595 6.1-2.325 6.544-6.092 1.118-.834-.13-32.391 2.256-34.746 1.572-1.552 6.388-1.398 6.77 1.128 1.35 7.852.075 31.62-1.13 39.71-.332 2.854.51 5.631-1.353 6.994-2.035 1.49-5.126.512-6.77-1.127-1.978.954-4.332 1.534-6.993 1.805-10.153-.527-21.285-.075-31.815-.225-7.52-1.506-12.439-5.611-12.86-14.215 1.53-1.575-.344-32.718 2.709-34.521" fill="#1a1a18" fill-rule="evenodd"/></g></svg>