<svg xmlns="http://www.w3.org/2000/svg" width="1322.835" height="755.905" viewBox="0 0 992.126 566.929"><g data-name="Plan 1"><path d="M812.914 197.829c0-5.88 4.816-10.223 10.519-10.223 5.638 0 10.462 4.342 10.462 10.223 0 5.94-4.824 10.279-10.462 10.279-5.703 0-10.52-4.338-10.52-10.279 0 0 0 5.94 0 0zm10.519 8.571c4.685 0 8.384-3.634 8.384-8.571 0-4.85-3.7-8.515-8.384-8.515-4.735 0-8.438 3.666-8.438 8.515 0 4.937 3.703 8.571 8.438 8.571 0 0-4.735 0 0 0zm-2.195-2.63h-1.807v-11.822h4.546c2.821 0 4.22 1.032 4.22 3.36 0 2.116-1.342 3.039-3.092 3.253l3.39 5.209h-2.024l-3.145-5.128h-2.088zm2.17-6.645c1.53 0 2.903-.106 2.903-1.923 0-1.465-1.349-1.74-2.604-1.74h-2.469v3.663z" fill="#2f2483" fill-rule="evenodd"/><path d="M410.265 292.834c6.347 0 11.49-5.096 11.49-11.374v-82.29c0-6.282-5.143-11.374-11.49-11.374-6.346 0-11.49 5.092-11.49 11.375v82.289c0 6.278 5.144 11.374 11.49 11.374M510.01 292.834c6.346 0 11.497-5.096 11.497-11.374v-82.29c0-6.282-5.151-11.374-11.497-11.374-6.347 0-11.494 5.092-11.494 11.375v51.55l.733.803-39.458-56.139c-1.829-2.567-4.536-4.884-7.435-6.11 0 0-4.333-1.479-4.934-1.479-6.347 0-11.49 5.092-11.49 11.375v82.289c0 6.278 5.143 11.374 11.49 11.374 6.346 0 11.49-5.096 11.49-11.374l.157-52.142 39.08 57.575c7.588 7.508 11.86 5.94 11.86 5.94M582.626 206.675h22.49c3.187 0 10.351-.743 10.461-9.522-.142-7.916-7.307-9.357-10.462-9.357h-65.522c-9.69.162-12.415 5.22-12.245 10.167.153 4.465 3.205 8.712 12.245 8.712h20.045v-.166 74.95c0 6.28 5.148 11.375 11.494 11.375s11.494-5.096 11.494-11.374v-74.95zM644.228 249.795h41.162c5.891 0 10.68-4.733 10.68-10.572 0-5.835-4.789-10.564-10.68-10.564h-41.318.156v-21.34h48.167c5.446 0 9.86-4.37 9.86-9.761 0-5.392-4.414-9.762-9.86-9.762h-59.813.16c-6.347 0-11.49 5.092-11.49 11.375v82.003c0 6.283 5.143 11.699 11.49 11.699h59.82c5.446 0 9.857-4.37 9.857-9.762 0-5.391-4.411-9.765-9.857-9.765h-48.334zM795.81 279.28c0-2.099-2.11-2.099-2.11-4.356V262.5c0-18.878-18.587-21.135-15.812-21.78 16.955-3.95 17.766-21.136 17.766-24.044 0-24.203-19.722-28.88-26.407-28.88H722.71c-6.343 0-11.49 5.092-11.49 11.375v82.289c0 6.278 5.147 11.374 11.49 11.374 6.346 0 11.49-5.096 11.49-11.374v-31.87s21.682-1.288 29.832 2.91c8.15 4.19 8.307 23.713 8.307 25.974 0 2.257 1.469 14.198 13.532 14.198s9.939-11.297 9.939-13.392c0 0 0 2.095 0 0zm-35.69-46.47h-25.101v-27.262h24.45s14.83.644 14.83 13.55c0 12.91-13.041 13.713-14.18 13.713 0 0 1.139 0 0 0" fill="#e3000f" fill-rule="evenodd"/><path d="M788.717 303.395h-65.48c-2.878 0-5.116 2.687-5.116 4.11v5.06l.231.848c-6.591-5.69-16.506-9.606-31.357-9.606h-36.1c-1.594 0-3.383.947-3.383 4.113v25.618c-8.3-19.42-27.282-33.052-49.928-33.052-18.868 0-35.502 9.466-45.327 23.861l-.203-.63c-9.658-18.706-33.81-19.713-36.609-19.713h-33.542c-2.878 0-7.35 1.581-7.35 9.487 0 .993.3 18.484.3 37.496h-.281c-8.197-9.187-21.939-12.156-26.531-12.156h-22.045c-2.554 0-2.87-3.48-2.87-5.06 0-1.582.312-2.846 3.83-2.846h35.46c4.795 0 4.795-2.532 4.795-5.69v-16.449c0-4.11-4.475-4.743-6.709-4.743h-37.064c-3.19 0-30.984 3.796-30.984 30.675 0 26.883 25.236 33.362 30.351 33.362h20.124c4.792 0 4.471 4.43 4.471 4.43s-1.533 3.895-4.41 3.895h-38.975c-1.917 0-5.589 2.056-5.589 5.532v20.08c0 1.9.719 4.507 4.547 4.507h49.28c4.112 0 15.182-2.662 22.276-11.329l.003.102c0 5.673.022 5.135.022 7.057 0 3.48 2.557 4.427 4.471 4.427h23.002c3.515 0 3.831-2.846 3.831-5.378v-17.709h8.947c10.131 0 22.571-2.07 31.123-11.082l.103.021c7.496 21.023 27.751 36.08 51.553 36.08 21.995 0 40.949-12.856 49.632-31.39l.488.166v25.418c0 2.215 1.597 3.793 3.514 3.793h24.272c2.558 0 3.202-1.578 3.202-3.159v-26.999s21.08 27.946 22.357 29.21c1.281 1.268 3.832 1.268 5.433 1.268h23.001c4.792 0 2.555-3.796 2.555-3.796l-18.847-27.95c1.6-.947 17.886-13.279 17.886-28.46 0-3.525-.245-7.733-1.113-12.114h12.995v67.123c0 3.792 2.96 5.137 5.193 5.137h23.159c2.554 0 4.315-1.74 4.315-4.271v-68.623h15.969c4.475 0 5.033-4.109 5.033-7.271v-17.868c0-4.744-3.429-5.532-7.911-5.532 0 0 4.482 0 0 0zm-271.034 51.487h-11.825v-20.64h10.708c7.662 0 10.86 6.248 10.86 10.99 0 4.748-7.189 9.65-9.743 9.65 0 0 2.554 0 0 0zm78.909 18.871c-11.483 0-20.786-9.212-20.786-20.572 0-11.364 9.303-20.573 20.786-20.573 11.472 0 20.771 9.21 20.771 20.573 0 11.36-9.299 20.572-20.771 20.572 0 0 11.472 0 0 0zm94.554-18.871H679.32v-20.64h10.708c7.666 0 10.86 6.248 10.86 10.99 0 4.748-7.185 9.65-9.743 9.65 0 0 2.558 0 0 0" fill="#2f2483" fill-rule="evenodd"/><path d="M95.544 242.9c0-31.235 25.58-56.554 57.127-56.554 31.554 0 57.135 25.319 57.135 56.554 0 31.231-25.581 56.554-57.135 56.554-31.546 0-57.127-25.323-57.127-56.554" fill="#e3000f" fill-rule="evenodd"/><path d="M151.18 408.788v-107.63s38.9-3.947 61.845-19.748c22.941-15.8 39.896-62.21 90.773-78.993 50.873-16.786 69.823-15.804 69.823-15.804v113.56s-46.886.986-73.811 35.545c-26.936 34.56-63.844 58.259-90.78 65.171-26.932 6.91-57.85 7.899-57.85 7.899" fill="#2f2483" fill-rule="evenodd"/></g></svg>