<svg xmlns="http://www.w3.org/2000/svg" width="1322.835" height="755.905" viewBox="0 0 992.126 566.929"><g data-name="Plan 1"><path d="m374.808 248.914 4.9 5.541c-3.173 2.838-5.39 5.979-6.016 10.1-.494 3.244.496 5.396 2.606 5.718l.103.016c2.01.306 3.229-.773 5.69-6.566 2.96-6.98 5.684-11.36 12.843-10.27l.102.015c6.542.997 10.068 6.909 8.947 14.274-.8 5.254-3.13 9.483-6.622 12.695l-5.348-5.03c2.7-2.857 4.52-5.795 4.982-8.834.461-3.039-.685-4.847-2.437-5.114l-.103-.016c-2.369-.36-3.378 1.067-5.922 7.057-3.018 7.023-6.274 10.744-12.558 9.789l-.103-.017c-7.16-1.09-10.345-7.161-9.162-14.939.832-5.46 3.575-10.681 8.098-14.42M401.233 286.123l2.119 27.429-7.116.55-1.506-19.48-7.377.57 1.325 17.142-7.118.55-1.324-17.143-7.635.59 1.524 19.74-7.116.55-2.14-27.689zM392.395 338.545c1.219 3.713 3.9 5.192 6.819 4.234l.1-.034c3.266-1.072 4.201-3.902 2.983-7.615l-2.487-7.574-9.95 3.265zm11.793-20.873 5.2 15.842c1.447 4.406 1.332 8.229-.198 11.254-1.296 2.564-3.677 4.498-6.945 5.57l-.099.033c-5.594 1.837-10.1-.029-13.182-3.899l-9.595 12.53-2.926-8.912 8.65-11.067-1.968-5.99-11.089 3.641-2.502-7.624zM413.358 346.573l4.733 7.485-16.615 21.786 26.805-5.668 4.623 7.31-38.926 7.167-3.786-5.99zM436.103 379.425l5.485 5.858-26.63 24.93-5.485-5.86zM433.718 404.266l.062-.084c6.117-8.373 17.441-10.618 26.487-4.008 5.552 4.058 7.524 8.339 8.291 13.03l-7.598 1.74c-.765-3.722-2.155-6.674-5.102-8.826-4.964-3.628-11.555-2.119-15.242 2.93l-.063.084c-3.688 5.049-3.272 11.808 1.777 15.498 3.366 2.459 6.412 2.62 10.263 2.206l1.079 7.179c-5.397 1.025-10.239.585-15.918-3.565-8.667-6.334-10.217-17.728-4.036-26.184M474.799 410.445l25.454 10.447-2.713 6.603-18.076-7.419-2.81 6.846 15.91 6.528-2.712 6.604-15.908-6.528-2.908 7.087 18.318 7.517-2.709 6.605-25.696-10.545zM497.02 452.208l5.599-4.836c2.8 3.206 5.915 5.458 10.027 6.134 3.241.531 5.406-.433 5.75-2.543l.018-.102c.327-2.005-.736-3.236-6.5-5.765-6.945-3.04-11.295-5.813-10.121-12.96l.015-.102c1.072-6.53 7.024-9.989 14.378-8.782 5.242.86 9.446 3.24 12.616 6.769l-5.091 5.29c-2.826-2.735-5.743-4.587-8.775-5.084-3.034-.498-4.856.63-5.143 2.377l-.016.103c-.388 2.366 1.027 3.39 6.988 6.005 6.987 3.1 10.67 6.396 9.642 12.668l-.018.104c-1.173 7.146-7.28 10.262-15.043 8.989-5.45-.895-10.639-3.7-14.325-8.265M570.964 451.937c3.486-.63 5.368-2.24 4.886-4.906l-.019-.104c-.435-2.41-2.497-3.572-6.549-2.842l-9.127 1.647 1.424 7.898zm-4.713-14.083c3.488-.63 5.488-2.155 5.008-4.82l-.017-.103c-.426-2.36-2.514-3.36-5.847-2.758l-7.793 1.405 1.367 7.59zm-17.591-11.81 16.667-3.008c4.101-.74 7.535-.193 9.957 1.487 1.936 1.344 3.12 3.197 3.562 5.658l.019.103c.732 4.051-1.016 6.696-3.32 8.595 4.44.84 7.437 2.787 8.307 7.608l.02.102c1.184 6.564-3.557 10.808-11.66 12.27l-17.075 3.081zM610.227 429.82l-9.41-8.654.632 12.768zm-16.756-15.858 6.699-3.14 29.75 26.63-7.598 3.56-6.491-5.992-13.968 6.547.454 8.824-7.409 3.473zM615.989 402.38l6.23-5.057 18.383 22.655 14.118-11.455 4.597 5.664-20.35 16.51zM667.99 379.929l-12.371-3.217 6.559 10.974zm-22.242-6.123 4.439-5.923 38.774 9.53-5.033 6.714-8.547-2.24-9.253 12.342 4.546 7.577-4.907 6.546zM675.736 363.796l-.097-.039c-9.596-3.927-14.4-14.617-10.217-24.843 2.486-6.077 5.624-9.073 10.056-11.37l3.73 6.988c-3.237 1.716-5.438 3.518-7.036 7.425-2.21 5.402.808 11.647 6.547 13.995l.097.04c6.174 2.525 12.445.136 14.891-5.845 1.105-2.7 1.416-5.388.834-7.823l-4.822-1.971-3.059 7.474-6.414-2.623 5.998-14.663 14.663 5.999c1.52 4.675 1.979 10.438-.545 16.611-4.303 10.514-14.643 14.729-24.626 10.645M672.875 320.607l.855-7.35 24.285-14.383-22.31-2.595.916-7.868 36.234 4.216-.79 6.781-25.075 14.868 23.033 2.68-.913 7.867zM676.157 283.024l-3.788-27.25 7.07-.982 2.69 19.354 7.329-1.02-2.369-17.031 7.072-.983 2.368 17.031 7.587-1.054-2.727-19.612 7.07-.983 3.825 27.508zM438.514 184.986c2.5-2.51 3.123-4.906 1.204-6.818l-.075-.074c-1.735-1.73-4.093-1.504-6.999 1.413l-6.547 6.572 5.688 5.664zm-11.92-8.857c2.502-2.511 3.27-4.909 1.35-6.82l-.074-.075c-1.698-1.692-3.982-1.317-6.372 1.082l-5.59 5.612 5.463 5.444zm-21.188.371 11.954-11.997c2.942-2.955 6.071-4.471 9.018-4.477 2.36-.005 4.389.839 6.16 2.604l.074.074c2.917 2.905 2.997 6.074 2.191 8.95 4.124-1.85 7.699-1.968 11.169 1.49l.074.074c4.726 4.707 3.263 10.9-2.548 16.734l-12.248 12.295zM467.274 153.998l-10.079-7.859 1.668 12.673zm-17.987-14.44 6.422-3.672 31.808 24.118-7.28 4.166-6.958-5.445-13.384 7.66 1.167 8.755-7.099 4.061zM500.338 138.268c3.88-1.026 5.534-3.945 4.734-6.966l-.028-.101c-.918-3.476-3.83-4.701-7.71-3.675l-5.994 1.586 2.852 10.781zm-18.609-14.106 14.408-3.81c8.413-2.227 14.822 1.414 16.728 8.617l.026.102c2.16 8.161-3.068 14.073-10.977 16.166l-5.895 1.56 2.799 10.579-7.758 2.052zM530.765 122.613l-11.096.256-.17-7.398 30.213-.696.171 7.397-11.096.256.67 29.068-8.021.186zM560.975 116.472l7.932 1.211-5.506 36.056-7.932-1.211zM570.27 149.002l6.305-3.87c2.246 3.616 4.957 6.343 8.908 7.672 3.11 1.046 5.402.445 6.082-1.579l.034-.1c.649-1.924-.205-3.311-5.483-6.738-6.361-4.12-10.207-7.559-7.896-14.422l.033-.1c2.112-6.27 8.543-8.722 15.604-6.345 5.038 1.697 8.8 4.722 11.359 8.718l-5.88 4.397c-2.345-3.154-4.924-5.45-7.838-6.434-2.914-.98-4.892-.161-5.459 1.516l-.032.1c-.764 2.27.467 3.51 5.925 7.054 6.397 4.186 9.5 8.034 7.472 14.06l-.034.097c-2.311 6.863-8.841 8.952-16.298 6.44-5.233-1.761-9.9-5.365-12.802-10.466M622.194 144.864l-9.466-5.792 3.861-6.31 25.775 15.77-3.86 6.31-9.465-5.79-15.173 24.796-6.845-4.187zM652.258 156.624l19.448 19.463-5.05 5.046-13.813-13.823-5.234 5.23 12.156 12.165-5.05 5.045-12.155-12.163-5.419 5.415 13.997 14.006-5.049 5.047-19.634-19.647z" fill="#ef7c00"/><path d="M595.664 286.811c10.411-7.504 17.196-19.736 17.18-33.519-.028-22.736-18.549-41.212-41.284-41.184l-13.004.015-3.65 15.475 16.672-.02c14.206-.017 25.777 11.527 25.795 25.732.016 14.206-11.527 25.778-25.733 25.795l-54.18.065-4.397 15.476 4.416-.005 54.18-.066c14.206-.017 25.777 11.527 25.795 25.733.017 14.206-11.527 25.778-25.733 25.794l-86.855.105 32.641-106.466c3.94-14.883 7.631-20.184 12.073-19.7 4.442.483 4.839 5.48 4.839 5.48l6.6 1.748a4.15 4.15 0 0 0 5.074-2.95l3.631-13.718a4.15 4.15 0 0 0-2.95-5.074l-6.6-1.746c-3.795 5.18-9.804 1.72-9.557-3.396l-20.092-5.319c-24.363-6.448-37.98 20.057-37.98 20.057s12.349-9.68 21.839-7.168c8.285 2.193 13.95 5.978 8.167 27.828l-37.978 125.92 107.167-.13c22.736-.027 41.211-18.548 41.184-41.284-.017-13.783-6.83-25.999-17.26-33.478" fill="#13162f"/><path d="M541.15 322.877c7.233.354 14.466.659 21.698.911.393 2.582 1.21 4.358 2.151 4.357 1.321-.002 2.388-3.495 2.382-7.8-.005-4.307-1.08-7.797-2.4-7.796-.942.002-1.755 1.78-2.141 4.362-7.232.27-14.464.592-21.695.964-4.108.213-8.218.39-12.326.643-2.054.142-4.108.343-6.163.604-2.054.278-4.107.631-6.161 1.283 2.055.648 4.11.996 6.164 1.269 2.056.256 4.11.453 6.165.59 4.108.243 8.218.41 12.327.613M534.786 252.11c-2.054.278-4.108.631-6.162 1.283 2.055.648 4.11.996 6.165 1.269 2.055.256 4.11.453 6.164.589 4.11.244 8.219.41 12.328.613 7.232.356 14.465.66 21.697.912.392 2.58 1.21 4.357 2.151 4.357 1.32-.002 2.387-3.494 2.382-7.801-.005-4.306-1.08-7.796-2.4-7.795-.943.002-1.756 1.78-2.142 4.362-7.232.27-14.464.592-21.694.964-4.11.213-8.218.389-12.326.643a106.86 106.86 0 0 0-6.163.604" fill="#ef7c00"/><path d="M408.843 218.632a7.836 7.836 0 1 1-15.673 0 7.836 7.836 0 0 1 15.673 0M686.049 218.632a7.836 7.836 0 1 1-15.673-.001 7.836 7.836 0 0 1 15.673 0" fill="#13162f"/><path d="M538.748 103.883c-101.932 0-184.86 82.929-184.86 184.862 0 101.933 82.928 184.862 184.86 184.862 101.933 0 184.861-82.93 184.861-184.862 0-101.933-82.928-184.862-184.86-184.862zm0 374.38c-104.5 0-189.518-85.018-189.518-189.518 0-104.502 85.018-189.518 189.518-189.518s189.519 85.016 189.519 189.518c0 104.5-85.018 189.518-189.519 189.518"/><path d="M538.748 166.355c-67.486 0-122.39 54.903-122.39 122.39 0 67.486 54.904 122.39 122.39 122.39 67.486 0 122.391-54.904 122.391-122.39 0-67.487-54.905-122.39-122.39-122.39zm0 249.437c-70.054 0-127.048-56.993-127.048-127.047s56.994-127.047 127.048-127.047 127.048 56.993 127.048 127.047-56.994 127.047-127.048 127.047"/></g></svg>